<svg id="Layer_1" data-name="Layer 1" xmlns="http://www.w3.org/2000/svg" xmlns:xlink="http://www.w3.org/1999/xlink" viewBox="0 0 800 500"><defs><style>.cls-1{fill:#fff;}.cls-2,.cls-3{fill:none;stroke-miterlimit:10;}.cls-2{stroke:#fff;stroke-width:2px;opacity:0.29;}.cls-3{stroke:#6a2c90;stroke-width:1.3px;opacity:0.54;}.cls-4{fill:url(#linear-gradient);}.cls-5{fill:#373f5a;}.cls-6{fill:#e0ebf5;}.cls-7{fill:#7daadb;}.cls-8{fill:#b4ceec;}.cls-9{fill:#2a5096;}.cls-10{fill:#f69649;}.cls-11{fill:#21407b;}.cls-12{fill:#ed7d2a;}.cls-13{fill:#99bfe5;}.cls-14{fill:#b6d1ee;}.cls-15{fill:#29478b;}.cls-16{fill:#193661;}.cls-17{fill:#243863;}.cls-18{fill:#aa453d;}.cls-19{fill:#1f3f72;}.cls-20{fill:#c3d8f0;}.cls-21{fill:#fab17e;}.cls-22{fill:#b7463e;}.cls-23{fill:#9dbae1;}.cls-24{fill:#243963;}.cls-25{fill:#fab17f;}.cls-26{fill:#f9b17f;}.cls-27{fill:#f9b17e;}.cls-28{fill:#253963;}.cls-29{fill:#e4783b;}.cls-30{fill:#e3925b;}.cls-31{fill:#fab280;}.cls-32{fill:#ad4940;}.cls-33{fill:#2a3b64;}.cls-34{fill:#b3574a;}.cls-35{fill:#345273;}.cls-36{fill:#b5d1ee;}.cls-37{fill:#5097d0;}.cls-38{fill:#1e3f72;}.cls-39{fill:#f9b07e;}.cls-40{fill:#283a63;}.cls-41{fill:#e9eaed;}.cls-42{fill:#a8b7cc;}.cls-43{fill:#ecf2f9;}.cls-44{fill:#fab27f;}.cls-45{fill:#efeff4;}.cls-46{fill:#b7d3ee;}.cls-47{fill:#575774;}.cls-48{fill:#eaf1f5;}.cls-49{fill:#b7453e;}.cls-50{fill:#f0f1f6;}.cls-51{fill:#ea955c;}.cls-52{fill:#fff8f3;}.cls-53{fill:#4b4a8a;}.cls-54{fill:#fddfc7;}.cls-55{fill:#fde3ce;}.cls-56{fill:#ee985f;}.cls-57{fill:#b05146;}.cls-58{fill:#cc9f94;}.cls-59{fill:#e2eaf7;}.cls-60{fill:#bb7368;}.cls-61{fill:#cbe3f6;}.cls-62{fill:#b6d2ee;}.cls-63{fill:#eaf2f6;}.cls-64{fill:#e5edf3;}.cls-65{fill:#2d3e67;}.cls-66{fill:#fdf9f6;}.cls-67{fill:#eff5fa;}.cls-68{fill:#bde3e0;}.cls-69{fill:#a4d5cf;}.cls-70{fill:#a3d5ce;}.cls-71{fill:#b8d4ef;}.cls-72{fill:#bbd5ef;}.cls-73{fill:#c2d9f0;}.cls-74{fill:#c3d9f0;}.cls-75{fill:#c1d8ef;}.cls-76{fill:#bfd6ee;}.cls-77{fill:#bed6ef;}.cls-78{fill:#c0d7ef;}.cls-79{fill:#bed6ee;}.cls-80{fill:#bfd7ef;}.cls-81{fill:#bdd5ee;}.cls-82{fill:#bcd5ee;}.cls-83{fill:#c1daf2;}.cls-84{fill:#b9d4ef;}.cls-85{fill:#b7d4f0;}.cls-86{fill:#bbd6f0;}.cls-87{fill:#bcd7f1;}.cls-88{fill:#c3daf1;}.cls-89{fill:#c3d9f1;}.cls-90{fill:#b7d3ef;}.cls-91{fill:#b6d3ef;}.cls-92{fill:#bbd8f1;}.cls-93{fill:#bcdaf3;}.cls-94{fill:#96bae2;}.cls-95{fill:#bed8f1;}.cls-96{fill:#85afdd;}.cls-97{fill:#bdd7f0;}.cls-98{fill:#edb14c;}.cls-99{fill:#f1a838;}.cls-100{fill:#c4dbf1;}.cls-101{fill:#bcd7f0;}.cls-102{fill:#ed974f;}.cls-103{fill:#c3dbf2;}.cls-104{fill:#eaa363;}.cls-105{fill:#c7dbf1;}.cls-106{opacity:0.11;fill:url(#linear-gradient-2);}</style><linearGradient id="linear-gradient" x1="314.09" y1="583.65" x2="894.2" y2="-107.71" gradientUnits="userSpaceOnUse"><stop offset="0.02" stop-color="#fff" stop-opacity="0.99"/><stop offset="0.1" stop-color="#eae2ef" stop-opacity="0.99"/><stop offset="0.28" stop-color="#b497c8"/><stop offset="0.49" stop-color="#713996"/></linearGradient><linearGradient id="linear-gradient-2" x1="-40.55" y1="227.79" x2="116.29" y2="227.79" gradientUnits="userSpaceOnUse"><stop offset="1" stop-color="#713996" stop-opacity="0.93"/><stop offset="1" stop-color="#fff"/></linearGradient></defs><rect class="cls-1" x="1.04" y="0.74" width="798.77" height="499.37"/><rect class="cls-2" x="703.57" y="416.7" width="72.71" height="72.71"/><rect class="cls-2" x="678.98" y="393.18" width="72.71" height="72.71"/><path class="cls-3" d="M398.82,1.81c26.63,19,55.31,54.39,56.68,93,2.63,74.25-114.46,96.09-143,188.32-13.39,43.16-10.47,110.93,68,216.24"/><path class="cls-4" d="M799.1,500.82H388c-78.25-115-77.58-185.9-59.05-230.61,33.64-81.13,136.92-102,137.91-167.88C467.49,59.73,425,24.17,388,.39H799.1Z"/><path class="cls-5" d="M779.48,357.84h-.6c-.28,0-.56,0-.85,0-.75,0-.74,0-.93-.86,0-.17-.13-.34-.19-.52a2.23,2.23,0,0,1-2.26,1.05,31.44,31.44,0,0,0-3.22,0,3.24,3.24,0,0,1-2.57-.79,3.77,3.77,0,0,1-2.33.77c-4.47,0-9,0-13.44,0a2.92,2.92,0,0,1-2.16-.76,5,5,0,0,1-3.31.75c-4.53.06-9.06-.18-13.58.14a2.72,2.72,0,0,1-1.49.23l-7.13,0a3.16,3.16,0,0,0-2.15-.4c-4.19,0-8.38.07-12.57-.07-3.8.15-7.6.05-11.39.05-2.95,0-5.9.11-8.85-.06-1.62.06-3.24.14-4.86.1a6.08,6.08,0,0,1-1.28,0c-2.52,0-5,0-7.56-.05a5.1,5.1,0,0,1-2,.36,85.89,85.89,0,0,1-9.22-.28q-8.16,0-16.32,0c-5.92,0-11.83,0-17.75,0H542.67a8.64,8.64,0,0,1-1.83-.08c-.31-.1-.52-.38-.84-.44a5.51,5.51,0,0,1-2.1.49c-8.76.08-17.52,0-26.28,0-8.06-.07-16.11.15-24.17.25-7.84.09-15.67,0-23.51,0a4,4,0,0,1-1.53-.1l-.32-.36a57.52,57.52,0,0,1-7.54.15c-2.66,0-5.32.25-8-.24a9.2,9.2,0,0,1-1.8.26c-3.8,0-7.59.09-11.39-.08-1.07.09-2.14.06-3.21.1a21.27,21.27,0,0,0-4.44.15c-.5.38-1.08.2-1.62.2h-3.26a6.21,6.21,0,0,1-.09,1.22H779.57A6.21,6.21,0,0,1,779.48,357.84Z"/><path class="cls-6" d="M527.75,196.21a21.57,21.57,0,0,1-1.12,6.83,14,14,0,0,1-1.86,3.75,16.33,16.33,0,0,1-3.56,3.53,23.89,23.89,0,0,1-8.62,3.6c-1.18.25-2.39.4-3.58.61a30.59,30.59,0,0,1-4.48.25,3.37,3.37,0,0,0-.84.07,8.33,8.33,0,0,1-3.75,0,7.89,7.89,0,0,0-1.82-.09,26.46,26.46,0,0,1-5.82-.69,28.62,28.62,0,0,1-5.88-1.82,1,1,0,0,0-1.11.23c-1.38,1.05-2.59,2.29-3.89,3.43a40.26,40.26,0,0,0-4.05,3.68c-.37.42-.69.49-.8.31s0-.53.09-.79l3.63-9a4.64,4.64,0,0,1,.16-.53,1.34,1.34,0,0,0-.34-1.76,15.62,15.62,0,0,1-3.34-4.82,27.45,27.45,0,0,1-1.75-5.61,31.53,31.53,0,0,1-.54-7.81,17.07,17.07,0,0,1,.53-3.17,17.65,17.65,0,0,1,3.65-7.5,17.85,17.85,0,0,1,2.73-2.62,25.72,25.72,0,0,1,3.39-2.23,20.61,20.61,0,0,1,4.39-1.84l1.75-.5a25.43,25.43,0,0,1,3.56-.69c2.76-.44,5.52-.16,8.28-.24a5.94,5.94,0,0,1,2.51.23.8.8,0,0,0,.27,0,19.8,19.8,0,0,1,5.24.86,22,22,0,0,1,8.27,3.72,19.57,19.57,0,0,1,2.77,2.55,22,22,0,0,1,2.41,3.26,23.37,23.37,0,0,1,2.15,5c.48,1.52.64,3.1,1,4.64a4.54,4.54,0,0,1,.05,1,2.91,2.91,0,0,0,0,.84A10.91,10.91,0,0,1,527.75,196.21Z"/><path class="cls-7" d="M676.74,357.64c-.18.29-.48.24-.76.24l-8.72,0c-.57,0-1.13,0-1.69,0a1.14,1.14,0,0,1-.31-.44c-.22-1.67-.32-3.36-.4-5-.32-6.79-.73-13.56-1.09-20.34-.23-4.35-.46-8.7-.66-13.05-.25-5.43-.66-10.85-.85-16.28,0-1.52-.35-1.78-1.88-1.8-2.81,0-5.63,0-8.44,0-8.2.1-16.4,0-24.6,0-4.83,0-9.66.06-14.48,0-.84.07-1.69,0-2.53,0H557.27c-.7,0-1.41,0-2.11-.05-11.35.08-22.7,0-34.06,0-.56,0-1.12,0-1.69,0a1.18,1.18,0,0,0-1.38,1.2c-.33,2.89-.37,5.8-.53,8.7-.08,1.42.17,1.56,1.65,1.59s2.73,0,4.09,0c2.77.11,5.54-.08,8.31,0a3.38,3.38,0,0,1,2,.36c-.05,1-.88.77-1.41.79-2.48.07-5,0-7.43,0h-6c-1.06,0-1.53.48-1.53,1.53,0,.84,0,1.68,0,2.52-.44,6.82-.73,13.65-1.13,20.47-.35,5.84-.57,11.69-1,17.52-.11,1.37.07,1.58,1.59,1.58,6.9,0,13.79,0,20.68,0a1.08,1.08,0,0,1,1.15.43.47.47,0,0,1-.46.25l-1.27,0H515.9c-1.4,0-2.8,0-4.21-.07a.87.87,0,0,1,.1-.5,6.07,6.07,0,0,0,.56-2.87c-.18-7.23.17-14.46.38-21.68.16-5.43-.16-10.89.45-16.31,0-.14,0-.28,0-.42.06-2.39,0-2.48-2.38-2.48a8,8,0,0,1-.85,0c-1.36,0-2.72.07-4.08,0-.59,0-1.26.08-1.6-.61.46-.65,1.17-.5,1.8-.51,1.87,0,3.75,0,5.62,0,1.06,0,1.52-.37,1.52-1.47a71.75,71.75,0,0,1,.23-8.42c.17-1.4-.13-1.6-1.56-1.65h-.71c-3.9.09-5-2.18-4.23-5.9a2.32,2.32,0,0,1,2-1.94c13.35-.05,26.69,0,40,0a5,5,0,0,1,.54.07c.47,0,.94.07,1.41.07h37.27c.37,0,.75,0,1.12,0a.54.54,0,0,0,.44-.3,2.86,2.86,0,0,1,1.39-.16c5.21,0,10.42,0,15.63,0,5.68,0,11.35.14,17,.18-1.68,0-3.36,0-5,0-.43,0-1.1.22-1.09-.63a2.69,2.69,0,0,1,1.75-.37h4.64a5.22,5.22,0,0,1,2.85.58,3.83,3.83,0,0,0,2.07.26c6.57,0,13.17-.42,19.69.11,7.62.63,15.21.3,22.81.51a1,1,0,0,1,.27.09,2.24,2.24,0,0,1,1.71,2.42c0,.75,0,1.5,0,2.25a2.2,2.2,0,0,1-1.54,2.12,3.84,3.84,0,0,1-1.65.26c-1.18,0-2.35,0-3.52,0-.37,0-.51.18-.49.52.23,3.42,0,6.85.18,10.26.24,4.92.09,9.85.33,14.76.2,4.17,0,8.34.26,12.5.28,4.45.08,8.91.29,13.35.08,1.68.15,3.37.2,5.05,0,.65.14.8.71.8q3.6,0,7.18,0a.56.56,0,0,0,.57-.32C676.34,357.17,676.57,357.35,676.74,357.64Z"/><path class="cls-8" d="M750.68,262.39c0-.66,0-1.31,0-2a.51.51,0,0,0-.53-.54c-.85,0-1.69-.05-2.54,0a2.43,2.43,0,0,1-2.46-1.49,7.92,7.92,0,0,1-.94-3.77c0-1,0-2,0-3a26.09,26.09,0,0,1,.67-6c.38-2,.81-3.93,1.34-5.86a41.09,41.09,0,0,1,3.06-8.43,4.77,4.77,0,0,1,2.63-2.39,17.29,17.29,0,0,1,5.15-1.27c.54,0,.65-.16.69-.69,0-.14,0-.28,0-.42,0-1.11,0-1.11,1.12-1.64,1-.77,2-.45,3-.19a3.54,3.54,0,0,1,1.51,1.41c.3.59.52,1.21.77,1.82.86,2.11,1,2.14,3.19,2.19a4.92,4.92,0,0,0,4.88-2.75,32.48,32.48,0,0,1,6.55,1.45,15.91,15.91,0,0,1,4.65,2.26,5.41,5.41,0,0,1,2.35,3.05,6.53,6.53,0,0,1,.08,2.37,20,20,0,0,1-1.31,4.57,33.36,33.36,0,0,1-2.62,4.94,14.52,14.52,0,0,1-1.27,1.68,2.65,2.65,0,0,0-.69,1.92c0,.89-.07,1.8,0,2.67.22,1.53.13,3.08.31,4.61.15,1.26.08,2.52.26,3.76.24,1.59.09,3.19.31,4.75.17,1.21.11,2.42.24,3.63.17,1.53.27,3.06.3,4.61,0,.54.27,1.08.24,1.65a1.53,1.53,0,0,1-.38,1.17,2,2,0,0,0-.51,1.4,4.46,4.46,0,0,0-2.35,0,91.34,91.34,0,0,1-16.54,2.29,24.06,24.06,0,0,1-3.5-.28c-3-.27-6-.79-8.52-2.61a5.61,5.61,0,0,1-.13-1.1c0-1.68.27-3.34.43-5,.17-1.91.18-3.82.23-5.72a.89.89,0,0,1,.25-.63c.37,1.38,1.2,1.46,2.5,1.18a71.42,71.42,0,0,0,13.57-4.16,16.16,16.16,0,0,0,5.53-3.74.83.83,0,0,1,.49-.48c2.61-.93,3.41-3,3.47-5.52a4.2,4.2,0,0,1,1.3-1.42,27.34,27.34,0,0,1-6,2.16,4.09,4.09,0,0,1-3.55-1.34,21.55,21.55,0,0,1-4.82-6.54,69.41,69.41,0,0,1-4.88-12.21,73.45,73.45,0,0,0,1.26,8.18c1,3.85,2.19,7.57,4.76,10.72,1.56,1.91,3.29,3.45,5.86,3.74a21.26,21.26,0,0,1,1.93,3,3.42,3.42,0,0,1-2,.73,75.84,75.84,0,0,1-15.56,1.1c-.52,0-1,0-1.55,0-1,0-1.68.16-1.73,1.32C751.29,262,751.2,262.37,750.68,262.39Z"/><path class="cls-9" d="M686.52,349.72a2.9,2.9,0,0,1,0-2.31c2.85-8.93,5.37-18,7.63-27.05,1.93-7.77,3.69-15.59,5.23-23.45.42-2.12.84-4.23,1.25-6.35.62-.34,1.19,0,1.75.16a16.21,16.21,0,0,0,3,.73c1.49.19,2-.22,2-1.7,0-2.85,0-5.69,0-8.54a9.26,9.26,0,0,1,.65-4,1.43,1.43,0,0,1,1.21-.1A29.5,29.5,0,0,0,718,278a3.38,3.38,0,0,1,1.51.21c.66.45.69,1.18.81,1.86.51,2.85,1,5.71,1.53,8.55.71,3.61,2.15,4.89,5.84,5.26a2.76,2.76,0,0,1,1.8,1.66,14.16,14.16,0,0,1,1.47,7.91c-.49,5.61-1.4,11.16-2.18,16.73-1.14,8.13-2.25,16.26-3.92,24.31a28.35,28.35,0,0,1-1.16,4.34,2.85,2.85,0,0,1-1.24,1.65,4.33,4.33,0,0,1-2.34.08c-1.33-.39-1.58-1.5-1.69-2.65-.27-2.84-.49-5.7-.58-8.55-.15-5.62-.46-11.24-.33-16.87.12-5.45-.7-10.85-.9-16.28,0-.33-.15-.63-.19-1,.07-3.79-.67-7.56-.5-11.45-4.11,7.89-7.74,15.88-9.59,24.56a72.33,72.33,0,0,1-7.58,19.18,123.73,123.73,0,0,1-7.15,11.63c-.37.54-.66,1.15-1.35,1.38a7.27,7.27,0,0,1-2.63,0C687.13,350.51,686.65,350.33,686.52,349.72Z"/><path class="cls-10" d="M424.34,344.62c.08-2.34.12-4.69.28-7a97,97,0,0,1,1.22-10.19,130.44,130.44,0,0,1,3.94-15.81,41.38,41.38,0,0,0,1.62-8.83c.23-3,.46-6.07.58-9.12q.24-5.62.54-11.24c.15-2.72.32-5.43.54-8.14a15.56,15.56,0,0,1,1.22-4.32,10.6,10.6,0,0,0,.8-2.09c1,0,1.46.88,2.08,1.45,1.91,1.74,1.89,1.76,3.64-.07a48.43,48.43,0,0,1,4.06-4.41c1,.21,1.6-.32,2-1.22.28-.64.34-1.46,1.16-1.77,2-.1,4,.35,6,.09.94.23,1.92.25,2.84.55a36.42,36.42,0,0,1,1.33,10.84,6.28,6.28,0,0,1-.93,2.93c-3.21,5.53-5.13,11.57-6.87,17.67a133,133,0,0,0-3.76,17.9,3.86,3.86,0,0,1-.17.82,17.47,17.47,0,0,0-1.21,7.7,1.43,1.43,0,0,1-.2.82c-.7.45-.68-.23-.74-.54a5.19,5.19,0,0,1,.18-2.62,75.24,75.24,0,0,1-3.85,9.12q-4,8.86-8.45,17.58a3.64,3.64,0,0,1-3.09,2.3,6.41,6.41,0,0,1-3.91-1.17A1.63,1.63,0,0,1,424.34,344.62Z"/><path class="cls-11" d="M758.29,279.67c.94,0,1.87.1,2.8.09a67.07,67.07,0,0,0,13.48-1.42l5.34-1.13c.49-.11.49-.11.73.49a1.49,1.49,0,0,0,.14.24c.13,3.05.12,6.09,0,9.14-.19,3.93-.38,7.86-.61,11.8-.14,2.39,0,4.78-.06,7.17-.07,4.83-.28,9.65-.58,14.47-.12,1.83-.21,3.65-.32,5.48-.32,5.14-.62,10.29-1,15.44-.3,4.44-.65,8.88-1,13.32,0,.41,0,.86-.38,1.16-1.8.76-3.69.39-5.54.33a8.29,8.29,0,0,1-2.08-.34,2.17,2.17,0,0,1-1.16-2q-2-14.46-4-28.93c-.43-3.15-.91-6.3-1.29-9.45-.08-.41-.14-.81-.23-1.21-1.1-9-2.44-18-3.67-27q-.42-3.06-.83-6.12C758,280.71,757.82,280.13,758.29,279.67Z"/><path class="cls-1" d="M493.66,291.43c-.29-.15-.58-.31-.88-.44a2.72,2.72,0,0,1-1.65-2.26,10.14,10.14,0,0,0-.27-1.65,1.71,1.71,0,0,1,0-.84c.2-1,.2-1.94.32-2.9a46.23,46.23,0,0,1,1.08-5.46c.4-1.62.83-3.24,1.39-4.82-.35-.57,0-1.1.13-1.62a62.49,62.49,0,0,1,4.3-10.24,8.27,8.27,0,0,1,4-3.82,17.73,17.73,0,0,1,7.61-1.77,29.89,29.89,0,0,1,3.32,1.5c1.83.76,3.6,1,5.19-.55a12.78,12.78,0,0,1,8.43,3.23.87.87,0,0,1,.33,1.12c0,.09,0,.2,0,.27a18.19,18.19,0,0,1,1.4,4.24l1.95,6.86c.37.53,0,1-.16,1.45-1.89,4.72-3.84,9.42-5.72,14.15-.18.46-.31,1-.91,1.16a1.85,1.85,0,0,1-1.17-.36,8,8,0,0,0-5.17-1.11,6.45,6.45,0,0,1-2.83-.68c-1.59-.69-3.13-1.5-4.73-2.14-3.08-1.22-4.4-3.57-4.73-6.68a10,10,0,0,0-.35-2c-.93,1.19-1.52,2.46-2.34,3.59-.6.84-1.08,1.75-1.63,2.63s-.37,1.29.61,1.48a9,9,0,0,1,1.22.37,58,58,0,0,1,10,2.24,2.93,2.93,0,0,1,2.06,1.54,5.11,5.11,0,0,1,.18,2.74,1.58,1.58,0,0,1-.38,1.12c-.91.52-2,.08-2.9.48-2.66.38-5.35.31-8,.59a30,30,0,0,1-8.5-.76,4,4,0,0,1-.8-.41C493.88,291.62,493.77,291.52,493.66,291.43Z"/><path class="cls-12" d="M444.83,321.34a21.49,21.49,0,0,0,0-3.93,3.42,3.42,0,0,1,.15-1.36c.12-.4.29-.79.42-1.19a20.17,20.17,0,0,0,.95-4.08,37.91,37.91,0,0,1,.82-4.82c.6-2.87,1.2-5.74,1.9-8.59a104,104,0,0,1,4.72-14.8c.66-1.6,1.31-3.2,2.12-4.73.39-.75.84-1.46,1.23-2.21a6.09,6.09,0,0,0,.7-3,11.28,11.28,0,0,0-.25-3.48,34.36,34.36,0,0,0-.84-5.8,8,8,0,0,1,0-1c-.16-.49.19-.65.51-.84.83-.15,1.61-.7,2.51-.33a146,146,0,0,1,3.89,14.38,15.47,15.47,0,0,1,.24,5.17c-.38,3.07-.64,6.16-1,9.23-.39,3.35-.84,6.7-1.27,10.05s-.82,6.42-1.24,9.62-.82,6.14-1.24,9.2c-.33,2.42-.67,4.83-1,7.25q-.62,4.53-1.24,9.06c-.42,3-.86,6-1.29,9.05-.1.74-.24,1.48-.3,2.23a4.69,4.69,0,0,1-2,3.44l-1.12.84a1.5,1.5,0,0,1-1.57.69,6.65,6.65,0,0,1-4.41-1.76c-.67-1.27-.46-2.68-.56-4-.26-3.64-.53-7.29-.69-10.94-.17-3.8-.53-7.58-.55-11.38A2.82,2.82,0,0,1,444.83,321.34Z"/><path class="cls-8" d="M481,248.85c0,.28,0,.56,0,.84a2,2,0,0,1-.57,1.53,33.26,33.26,0,0,1-5.13,4.72,20.06,20.06,0,0,1-3.07,1.63,6.64,6.64,0,0,1-6.75-4.25,17.32,17.32,0,0,0-2.76-4.54c-.61,2-.74,3.91-1.45,5.69a1.08,1.08,0,0,0-.46.67,14.81,14.81,0,0,0-.73,2.52c-.76,1.07-2,1.21-3.11,1.49a3.28,3.28,0,0,0-3,.19,10.94,10.94,0,0,1-3.13-.06c-.82-.4-.4-.9-.1-1.38.72-1.16,1.8-2,2.62-3.11.95-1.26,1-1.31-.2-2.37-2.44-2.12-4.84-4.27-7.31-6.35-1.08-.91-2.11-1.85-3.17-2.77-.61-.52-1.05-.51-1.54.07-1.86,2.16-3.86,4.2-5.58,6.49-.87,1.17-.77,1.76.25,2.83,1.81,1.9,3.83,3.58,5.78,5.33a5.1,5.1,0,0,1,1.87,2.21,3.38,3.38,0,0,1-1,2.36,1.48,1.48,0,0,1-1.33.28A35.62,35.62,0,0,1,428.74,258a1.53,1.53,0,0,1-.48-.5c-.06-.13-.08-.31-.18-.37a9.68,9.68,0,0,1-2-2.14,4.49,4.49,0,0,1-.81-2.05,1.44,1.44,0,0,1,.11-.67,44.15,44.15,0,0,1,1.94-5.26c.74-1.66,1.41-3.36,2.12-5s1.38-3.17,2.08-4.75c.45-1,.93-2,1.37-3.07a4.39,4.39,0,0,0,.14-.82,10,10,0,0,1,8.53-4.93,20.33,20.33,0,0,0,5.11,2.85,11.28,11.28,0,0,0,10.15-1.5,5.12,5.12,0,0,1,1-.56,6.89,6.89,0,0,1,6.22,3.3,39.87,39.87,0,0,1,2.29,5.58,1.24,1.24,0,0,0,0,.81c.66,1.64,1.27,3.31,1.93,5,.48,1.21,1,2.41,1.51,3.61a4.84,4.84,0,0,0,.48.86,1.15,1.15,0,0,0,1.23.47l6-1.08a16.86,16.86,0,0,0,1.77-.4,3.32,3.32,0,0,1,1.25-.13A1.12,1.12,0,0,1,481,248.85Z"/><path class="cls-13" d="M614.26,161.5h57.63c.47,0,.94,0,1.41,0s.69.16.71.66,0,.85,0,1.27v99.32c0,2,.16,1.87-1.92,1.87H556.56c-.38,0-.76,0-1.13,0-.65,0-.86-.23-.89-.84,0-.43,0-.85,0-1.27V163.19c0-1.77-.1-1.69,1.68-1.69Z"/><path class="cls-10" d="M727.66,294.15l-.28,0a5.36,5.36,0,0,1-5.78-4.73c-.58-3.12-1.11-6.25-1.66-9.37-.1-.55-.24-1.09-.36-1.63a2.39,2.39,0,0,1-.55-1.27q-.94-5.72-1.91-11.45a2.6,2.6,0,0,1,0-1.24c.48-1,1.33-.64,2.09-.54,1.55.2,1.56.22,1.3-1.25a9.34,9.34,0,0,1-.13-1.4c0-2,0-2-2.14-2.13-1,0-1.92,0-2.24-1.22a46.38,46.38,0,0,1-1-6.52,11.63,11.63,0,0,1,.8-5.38c1.36-3.74,2.8-7.46,4.51-11.06.11-.19.24-.38.36-.56A1.93,1.93,0,0,1,721,234a1.4,1.4,0,0,1,.57-.35,15.68,15.68,0,0,1,9.83,3.47,5.43,5.43,0,0,1,1.69,2.38,21.76,21.76,0,0,1,1.37,8.49,3.1,3.1,0,0,0-.07,1.25,51,51,0,0,1-.14,10.48,20.58,20.58,0,0,1-1,4.63,1.68,1.68,0,0,1-1.55,1.35l-.7.07a6,6,0,0,1-3.81.57c-.38,0-.74-.15-1.11-.18s-1-.24-1.34.14.11.88.32,1.27a18.83,18.83,0,0,0,7.41,7.68,4.72,4.72,0,0,1,1.53,1.2,19.91,19.91,0,0,1,1,2.92c1,3.38,2.07,6.77,3.13,10.14.38,1.23.32,1.21-.76,1.63l-2.09.79a3.44,3.44,0,0,0-1.13.53A11.14,11.14,0,0,1,727.66,294.15Z"/><path class="cls-11" d="M742.71,353.65a2.45,2.45,0,0,1-.17-1.91c.58-2.66,1.08-5.32,1.48-8,.46-3.05.92-6.11,1.31-9.18s.72-5.85,1-8.79c.26-2.51.47-5,.67-7.55.26-3.18.49-6.35.72-9.53.13-1.73.23-3.46.32-5.19.14-2.76.25-5.52.38-8.29.09-1.91.2-3.83.3-5.75.88.13,1,.94,1.25,1.53,3.54,7.8,7.74,15.27,11.27,23.07.45,1,1,1.88,1.45,2.88a81,81,0,0,1-2.14,14,154.22,154.22,0,0,1-7.12,22.1c-.53,1.25-.83,2.76-2.47,3.21-2.75.37-5.11-.91-7.56-1.81A1.07,1.07,0,0,1,742.71,353.65Z"/><path class="cls-14" d="M671.76,293.35l-6.9,0H654.15a9.44,9.44,0,0,1-2.8-.21,4.4,4.4,0,0,0-1.26,0H627a.56.56,0,0,1-.56-.34.7.7,0,0,0-.74-.52c-2.68,0-5.35-.1-8,.07-.73,0-.95-.54-1.16-1-1.28-3-2.41-6.08-3.69-9.1-.12-.3-.21-.63.09-.9a.59.59,0,0,0,.51-.4,8.6,8.6,0,0,1,2.42-3.57,9.39,9.39,0,0,1,4.73-2.27,24.09,24.09,0,0,1,4.48-.24c5.68,0,11.35,0,17,0a10.55,10.55,0,0,1,5.13,1.22,8.9,8.9,0,0,1,4.43,5.71,11,11,0,0,1,.41,3c0,2.21,0,4.41,0,6.62,0,.32,0,.65,0,1,0,.54.16.68.66.71s.75,0,1.12,0c5.49,0,11,0,16.47,0C670.78,293.1,671.32,292.94,671.76,293.35Z"/><path class="cls-15" d="M612.89,281.28c.89,2.24,1.78,4.49,2.68,6.73.5,1.26,1,2.51,1.51,3.76.11.27.24.51.57.54a2.71,2.71,0,0,0,1.38.14h5.91a1.85,1.85,0,0,1,1,.12c.06,0,.09.15.12.22a.17.17,0,0,1-.1.23,2.07,2.07,0,0,1-1.1.12l-8.16,0H591.48c-.59,0-1.23.16-1.73-.34-1.37-3.44-2.73-6.88-4.11-10.32-1.13-2.83-2.27-5.65-3.41-8.48-.13-.3-.25-.61-.36-.92s0-.55.35-.57.46,0,.7,0h25.21l.84,0a.48.48,0,0,1,.44.3c.12.3.25.6.37.91l2.76,6.77C612.64,280.77,612.77,281,612.89,281.28Z"/><path class="cls-16" d="M466.29,238.11c-.33,0-.45-.28-.56-.55-.35-.91-.72-1.81-1.08-2.72a13,13,0,0,1-.53-1.29,5.26,5.26,0,0,0-3.44-3.41,8.34,8.34,0,0,0-2.8-.81c-3,.11-4.41-2-4.64-4.53,0-.77-.14-1.57.5-2.2,2.25-.28,2.87-1.95,3.27-3.83a16.18,16.18,0,0,0,.43-5.71,6.57,6.57,0,0,0-1.52-3.43c-.78-.88-1.24-.83-1.8.21a21.89,21.89,0,0,1-1.93,2.94,7.42,7.42,0,0,1-4.16,2.71c-1.71.45-2,.8-1.48,2.57a12.64,12.64,0,0,1-.74,8.25,3.8,3.8,0,0,1-4.29,2.38,10.86,10.86,0,0,0-7.78,4.08c-.2.24-.32.59-.71.6a12.44,12.44,0,0,1-.4-6.65,46,46,0,0,1,4.2-12.77,48.21,48.21,0,0,1,4.44-7.65,17.4,17.4,0,0,1,2.47-2.88,6.73,6.73,0,0,1,6.11-1.71,6.16,6.16,0,0,0,1.54.09,8.57,8.57,0,0,1,7.32,3.48,16,16,0,0,1,3.06,7,15.17,15.17,0,0,1,.26,3.5c0,1,0,2,0,2.95a12.35,12.35,0,0,0,2.27,6.84c.47.69,1,1.35,1.54,2a16.27,16.27,0,0,1,2,3,8.14,8.14,0,0,1,.71,2,4.9,4.9,0,0,1-1.55,4.85Z"/><path class="cls-10" d="M523.51,288.89a31.76,31.76,0,0,0,1.53-3.61q2.64-6.5,5.24-13c.38,0,.75,0,1.13,0h26.33c.18.56-.14.95-.3,1.35-1.62,4.05-3.25,8.08-4.87,12.13-.89,2.21-1.76,4.44-2.65,6.66a.83.83,0,0,1-.17.21c-2.8.18-5.61.07-8.42.08-5.56,0-11.13,0-16.7,0a7.39,7.39,0,0,1-1.82-.09,1.35,1.35,0,0,1-.45-.22.91.91,0,0,1-.21-.65,2.16,2.16,0,0,1,.25-.78,5.37,5.37,0,0,0,.29-.65,4.78,4.78,0,0,1,.26-.62,3.11,3.11,0,0,1,.32-.56A1.57,1.57,0,0,1,523.51,288.89Z"/><path class="cls-17" d="M509.73,255.83a23.26,23.26,0,0,0-5.9,1.2,19,19,0,0,0-2.07.89,7.39,7.39,0,0,0-3.12,2.95,42,42,0,0,0-2.18,4.41,76.08,76.08,0,0,0-2.84,7.78c-.42-.08-.59-.44-.8-.75a10.36,10.36,0,0,1-1.25-9.27,13.9,13.9,0,0,1,3.07-5.16,26,26,0,0,1,3.66-3.29l2.57-2a9.16,9.16,0,0,0,3.76-7,8.11,8.11,0,0,1,.23-1.38,20.15,20.15,0,0,1,4.06-8,10.76,10.76,0,0,1,2.86-2.47,6.87,6.87,0,0,1,4-1,31.45,31.45,0,0,1,5.28.79A7.22,7.22,0,0,1,525.7,237a23.42,23.42,0,0,1,2.52,5.78,33.94,33.94,0,0,1,1.48,10.69,17.83,17.83,0,0,1-.85,5.12,9,9,0,0,1-1.17,2.39c-.2.28-.3.27-.76-.1a3.24,3.24,0,0,0-1.35-1.55,12,12,0,0,0-2.84-1.48,26.69,26.69,0,0,0-4.57-1.27.69.69,0,0,1-.23-.37c0-.81,0-1.64.84-2.14,1.55.21,2.4-.61,3.1-1.89a12.5,12.5,0,0,0,1.54-7.32,6,6,0,0,0-.31-1.51c-.46-1.22-.74-1.32-1.84-.64a26.76,26.76,0,0,1-4,2.29,8.73,8.73,0,0,1-3.82.82c-1-.07-1.44.45-1.55,1.39a6.11,6.11,0,0,0,0,1.54,10.85,10.85,0,0,1-1.06,6A1.5,1.5,0,0,1,509.73,255.83Z"/><path class="cls-18" d="M734.48,248c-.14-.77-.33-1.54-.41-2.32a40.54,40.54,0,0,0-.82-4.53,7.48,7.48,0,0,0-4.11-5.18,19.2,19.2,0,0,0-5.28-1.76,9.49,9.49,0,0,0-2.49-.31,1.09,1.09,0,0,1-.81-1c-.17-1.94-.78-3.87-.09-5.83a5.28,5.28,0,0,0,.23-1.94c0-.63-.24-1.11-.93-1.2-2.58-.31-4.06-2.13-5.48-4a14.09,14.09,0,0,1-.91-1.41c-.68-1.16-.89-1.15-1.6.06a18.34,18.34,0,0,0-1.13,3.6c-.19.57-.19,1.37-1.12,1.35a9.35,9.35,0,0,1-.82-3.68,4.65,4.65,0,0,1,1.91-4.16,2.59,2.59,0,0,0,1-1.19,4.29,4.29,0,0,1,3.94-2.9,1.52,1.52,0,0,0,.69-.12,1.62,1.62,0,0,1,1.61,0,1.28,1.28,0,0,0,1.08,0,5.34,5.34,0,0,1,.81-.21,5.44,5.44,0,0,1,5.7,1.85,9.92,9.92,0,0,1,1.65,2.76,22.1,22.1,0,0,1,1.61,8.8c0,.84,0,1.69,0,2.53a7,7,0,0,0,3,5.61,10.6,10.6,0,0,0,1.42.9,6.29,6.29,0,0,1,3.44,5.59,13.18,13.18,0,0,1-.34,3.49A22.59,22.59,0,0,1,734.48,248Z"/><path class="cls-17" d="M762.43,316.77a2.33,2.33,0,0,1-.77-1.15c-1-2-1.91-4.06-2.91-6.06-2.48-5-5-10-7.47-15-.69-1.38-1.31-2.79-2-4.18a2.61,2.61,0,0,0-.57-1,15,15,0,0,1,0-3.07c.24-2.78.5-5.57,1-8.32a5.53,5.53,0,0,0,.07-.7c.18,0,.4-.06.54,0a19.48,19.48,0,0,0,7.75,2.25l.13,0a18.53,18.53,0,0,0,.36,3.05c.11,1.24.42,2.46.5,3.72a13.18,13.18,0,0,0,.34,2.35,14.09,14.09,0,0,0,.45,2.75c.06,1.73.54,3.4.62,5.13a20.2,20.2,0,0,0,.45,2.75c.14.73.13,1.47.3,2.21a22.07,22.07,0,0,1,.35,3.05c.06.74.25,1.46.33,2.2.16,1.62.56,3.21.72,4.83a8.26,8.26,0,0,1,.13,2.89,2.17,2.17,0,0,1,.09.84A1.19,1.19,0,0,1,762.43,316.77Z"/><path class="cls-10" d="M708.12,277.29a14.48,14.48,0,0,0-.18,2.94c-.05,2.95-.07,5.91-.1,8.86,0,.47,0,.94,0,1.41,0,.95-.4,1.35-1.35,1.45a5.36,5.36,0,0,1-1.54-.11,26.89,26.89,0,0,1-4.3-1.28,1.15,1.15,0,0,1-.32-.88c.33-2.44.66-4.89.94-7.35.26-2.22.45-4.45.68-6.68.07-.74.15-1.48.22-2.22a2.63,2.63,0,0,0-1.93-1.63,3.83,3.83,0,0,1-2.55-1.8.57.57,0,0,1-.21-.74c.28-.73.55-1.48.88-2.2a11.86,11.86,0,0,0,.91-3.08c.16-1,.29-2,.43-3s1.18-.69,1.79-1c2.38-.59,4.26,1.05,6.42,1.46.33.06.47.42.56.75.22,4.67.08,9.34.07,14A1.55,1.55,0,0,1,708.12,277.29Z"/><path class="cls-14" d="M493.66,291.43h.24c.16.17.42.1.58.25a16.33,16.33,0,0,0,4.12.59,2,2,0,0,1,.55,0,18.18,18.18,0,0,0,4,.26c.41.42.19.89.06,1.32a39.05,39.05,0,0,0-1.76,9.79c-.12,2.85,0,5.73,1.82,8.19a1,1,0,0,1,.27.9c-.48.6-1.17.5-1.8.51-1.82,0-3.63.05-5.45,0-1.25-.05-2.1.21-2.05,1.69a.88.88,0,0,1-.37.72,1.06,1.06,0,0,1-.27-.9c0-1,0-2,0-2.95V293.11C493.64,292.55,493.65,292,493.66,291.43Z"/><path class="cls-13" d="M493.9,315.65c0-.75,0-1.5,0-2.25a.52.52,0,0,1,.52-.55c.38,0,.75,0,1.13,0h6.75c.41,0,.86.12,1.17-.29s.66-.09.84.3.66.28,1,.28l4.62,0c-.38,1.22-1,2.41-.07,3.69.34.49-.16.74-.61.83a10,10,0,0,1-1.81.06c-2.47,0-4.94,0-7.41,0-.85,0-1.37.24-1.23,1.21-.09,4.63-.49,9.25-.75,13.88-.2,3.41-.43,6.82-.58,10.24-.18,4.21-.55,8.41-.68,12.62,0,1.19.32,1.56,1.49,1.54,3.66-.05,7.31,0,11,0a6.45,6.45,0,0,1,2,.16.89.89,0,0,1,.41.33.66.66,0,0,0,0,.14c-.51,0-1,.06-1.54.06-4.88,0-9.75,0-14.63,0q-15.9,0-31.79,0c-.44,0-.94.2-1.32-.21l1.55,0h29.3c1.74,0,1.31,0,1.72-1.54a4.63,4.63,0,0,0,0-1.12c0-2.54,0-5.07,0-7.61a14.18,14.18,0,0,1,.21-3.5,4.18,4.18,0,0,0,0-1.12c0-2.54,0-5.07,0-7.61a13.08,13.08,0,0,1,.21-3.36,4.62,4.62,0,0,0,0-1.12l0-8.87a8.06,8.06,0,0,1,.19-2.24,5.22,5.22,0,0,0,.06-1A1.31,1.31,0,0,0,495,317,1.74,1.74,0,0,1,493.9,315.65Z"/><path class="cls-10" d="M700.2,258.14c.22-1.67.4-3.33.65-5,.44-2.86.89-5.71,1.36-8.57.17-1,.4-2,.62-3a6.68,6.68,0,0,1,2.53-3.77,18.94,18.94,0,0,1,4.21-2.48,4.19,4.19,0,0,0,1.48-.77.76.76,0,0,1,.39-.36A4.83,4.83,0,0,1,712,234c.55-.09,1-.69,1.67-.16a1.07,1.07,0,0,1,.09.43c-.53,2.24-1.65,4.27-2.36,6.45-.14.44-.31.88-.49,1.31a26.45,26.45,0,0,0-2.1,12.45,7.9,7.9,0,0,1-.1,2.52,1.24,1.24,0,0,1-1,.8c-2.39-1.08-4.65-1.16-6.69.81C700.6,258.88,700,259,700.2,258.14Z"/><path class="cls-17" d="M760.3,210.84c-.09-.11-.15-.26-.26-.33a3.41,3.41,0,0,1-1.46-2.88,6.66,6.66,0,0,1,.07-2.13,8.26,8.26,0,0,1,1-.24A17.41,17.41,0,0,0,764,204a7.67,7.67,0,0,1,4.53-.5,12.33,12.33,0,0,1,3.17,1,7.67,7.67,0,0,1,4.29,6,12.14,12.14,0,0,1,.12,1.81,4.44,4.44,0,0,1-1.1,3.09,33.33,33.33,0,0,0-2.7,3.93,3.07,3.07,0,0,1-.8,1.12c-.54-.53-.41-1.22-.39-1.86a1.76,1.76,0,0,0-1.3-1.92,3,3,0,0,1-2.46-3,2,2,0,0,0-1.68-1.82,12.34,12.34,0,0,0-3.2-.37A2.74,2.74,0,0,1,760.3,210.84Z"/><path class="cls-19" d="M727.66,294.15l6.46-1.67a45.82,45.82,0,0,1-.49,5.74c-.4,3.31-.85,6.6-1.3,9.9-.41,2.93-.85,5.84-1.27,8.77s-.8,5.56-1.24,8.34c-.58,3.7-1.17,7.41-1.82,11.1s-1.42,7.65-2.13,11.47l-.3,1.51a.84.84,0,0,1-.57.74.25.25,0,0,1-.18.11.46.46,0,0,1-.09.15,1.6,1.6,0,0,1-2.25-.11,6.45,6.45,0,0,0,1.38-3.18,69.35,69.35,0,0,0,1.48-7.27c.18-1.24.5-2.47.71-3.71.25-1.42.44-2.85.66-4.28.26-1.7.54-3.41.79-5.11.13-.92.23-1.85.35-2.78s.21-1.76.34-2.63.35-1.84.47-2.76c.31-2.36.57-4.72.9-7.07.22-1.62.57-3.22.75-4.84a29.73,29.73,0,0,0,.29-4.89,13,13,0,0,0-1.49-6.06A3.27,3.27,0,0,0,727.66,294.15Z"/><path class="cls-20" d="M523.53,130.52c4,0,8.08,0,12.12,0,1.78,0,2.55.77,2.54,2.52-.05,7.84,0,15.68,0,23.52a2.17,2.17,0,0,1-2.39,2.44c-1.93,0-3.85,0-5.78,0h-17.9a5.8,5.8,0,0,1-1.8-.21,2,2,0,0,1-1.42-1.74,1.94,1.94,0,0,1,0-.42q0-11.84,0-23.66a2.55,2.55,0,0,1,.85-2,1.33,1.33,0,0,1,1-.43h12.83Z"/><path class="cls-21" d="M713.52,234l0-.31a.79.79,0,0,1,.29-.73,8.07,8.07,0,0,0,4.79-3,14.54,14.54,0,0,1-5.19,1.23c-1.89-.08-2.43-.51-3.12-2.24-.5-1.23-.55-2.55-.94-3.8a2.24,2.24,0,0,1,.23-1.66c.58-.3.65-.89.8-1.42a20.42,20.42,0,0,0,.5-2.19,4.34,4.34,0,0,1,.94-2c1.08-1.36,1.07-1.3,1.78.09a14.15,14.15,0,0,0,2.79,3.86,5.54,5.54,0,0,0,3.46,1.69l.14,0c1.15.19,1.17.21,1.18,1.45a6.06,6.06,0,0,1-.33,2.35,6.86,6.86,0,0,0-.17,2.92c0,.61.13,1.21.15,1.82a3,3,0,0,0,.6,1.83l-.32.31a6.28,6.28,0,0,1-5.79,1.52A2.06,2.06,0,0,1,713.52,234Z"/><path class="cls-21" d="M760.3,210.84a21,21,0,0,0,3.07.3,17.21,17.21,0,0,1,2.37.28,2.24,2.24,0,0,1,2.09,2.27s0,.09,0,.14a2,2,0,0,0,1.75,2.33,6.7,6.7,0,0,1,1.06.38c.81.36,1,.63.92,1.53a10.52,10.52,0,0,0,0,2.38c0,.18,0,.36,0,.54a3.68,3.68,0,0,1-2.2,1.85,12.8,12.8,0,0,1-5.94.74c-.49,0-1-.18-1.1-.71A4.36,4.36,0,0,0,760,220c-.12-.08-.14-.24-.17-.37.06-2.1-.15-4.2.11-6.29A5.47,5.47,0,0,1,760.3,210.84Z"/><path class="cls-22" d="M428.26,257.53a1,1,0,0,1,.66.18,32.13,32.13,0,0,0,10.68,4.43l1.76.46a1.1,1.1,0,0,0,.93-.19,5.57,5.57,0,0,1,2.61,2.51c-1.08,1.55-2.45,2.84-3.63,4.3-.5.62-1,1.21-1.55,1.81-.34.39-.55.4-1,.05l-3.69-3.23-8.68-7.57c-.07,0-.09-.16-.16-.3Z"/><path class="cls-23" d="M750.68,262.39a.83.83,0,0,0,.27-.62c0-.42,0-.85,0-1.27s.18-.6.59-.63.75,0,1.12,0h8a3.91,3.91,0,0,0,1.66-.18,1,1,0,0,1,.41-.08,20.22,20.22,0,0,0,4.18-.34,18.21,18.21,0,0,0,5.15-1,.17.17,0,0,1,.27,0c-.06.75-.65,1.13-1.15,1.51a24.45,24.45,0,0,1-5,2.85,68,68,0,0,1-9.31,3c-1.85.48-3.73.83-5.6,1.23-.4.09-.62-.09-.64-.51s0-.94,0-1.4Z"/><path class="cls-21" d="M700.2,258.14c.09.16.08.59.39.33.67-.58,1.43-1,2.15-1.52a2.8,2.8,0,0,1,2.51-.35,13.65,13.65,0,0,1,2.29,1,7,7,0,0,1,1.76.18,19.77,19.77,0,0,0,7,.09c0,.08.14.14.16.23a.75.75,0,0,0,.92.64h.28a10.71,10.71,0,0,1,3.15.38c.26.29,0,.54,0,.8A8.11,8.11,0,0,0,721,263a7.62,7.62,0,0,1,.24.94c.13.52-.06.75-.54.66-.78-.15-1.55-.33-2.33-.46-.37-.06-.76-.1-1,.29-3.1-.77-6.19-1.58-9.24-2.54a.81.81,0,0,0-.74-.32,4.78,4.78,0,0,1-2.5-.8,2.35,2.35,0,0,0-2.25-.43c-.48.2-.91-.21-1.38-.12s-1.08.21-1.39-.43C700,259.22,699.83,258.63,700.2,258.14Z"/><path class="cls-24" d="M424.34,344.62a6.94,6.94,0,0,0,4.7,2.14c.52.41.42,1,.43,1.55,0,1,0,2.05,0,3.07.08,2.19.72,4,3,4.9.54.21,1.17.5.85,1.33a.75.75,0,0,1-.61.29c-2.06,0-4.12,0-6.18,0a2.65,2.65,0,0,1-.79-.24,4,4,0,0,1-1.11-2.23,5.22,5.22,0,0,0-1.38-2.71c-.47-.52-.94-1-1.39-1.58a2.49,2.49,0,0,1-.26-3.12,11.1,11.1,0,0,1,1.05-1.49C423.19,345.86,423.77,345.25,424.34,344.62Z"/><path class="cls-24" d="M446.55,349.68c.62.3,1.24.63,1.88.89a4.89,4.89,0,0,0,3.79.19,7.26,7.26,0,0,0,4.39,4.05,16.88,16.88,0,0,0,2.95.86,6.11,6.11,0,0,1,1.35.36,1.75,1.75,0,0,1,1.18,1.27c-.06.28-.16.55-.51.58l-.7,0c-4.31,0-8.62,0-12.93,0a1.42,1.42,0,0,1-1.34-.55C445.53,356.11,445.49,351,446.55,349.68Z"/><path class="cls-25" d="M697.68,270a11.33,11.33,0,0,0,3.69,1.85c.82.22.8.27.83,1.16,0,.14,0,.28,0,.42-.49.18-.64.67-.88,1.05-1.19,1.91-2.35,3.83-3.52,5.75-.12.2-.23.41-.37.6a7.65,7.65,0,0,0-1.34,3.06,2.66,2.66,0,0,1-.87,1.55,6.88,6.88,0,0,0-.8,1c-.12.14-.27.37-.44.29s-.13-.39-.06-.59a1.48,1.48,0,0,0,.08-1,2.08,2.08,0,0,0-1.54,1.31c-.33.78-.65,1.56-1,2.33-.11.24-.21.53-.55.57s-.44-.26-.5-.74a9.25,9.25,0,0,1-.07-3.48,3.54,3.54,0,0,1,1-1.8,14.19,14.19,0,0,1,2.23-1.71,2.07,2.07,0,0,0,.91-1.18c1-3.25,2.12-6.49,3.17-9.74A3.17,3.17,0,0,0,697.68,270Z"/><path class="cls-12" d="M734,276.47a16.77,16.77,0,0,1-3.71-2.21,19,19,0,0,1-6-7.45c-.08-.16-.16-.33-.23-.51a.35.35,0,0,1,.29-.51,8.82,8.82,0,0,1,2.24.08,7.39,7.39,0,0,0,3.34,0,10.17,10.17,0,0,1,1.11-.09c.86,3,1.73,6,2.58,9,.08.26.13.54.19.81s.08.42.2.61Z"/><path class="cls-26" d="M686.52,349.72a2.64,2.64,0,0,0,1.82.61c.65,0,1.31,0,2,0,.33.13.78-.12,1,.33a27.77,27.77,0,0,1-.39,4.26c-3.54,1.34-7.12,2.39-10.93,1.21a2.05,2.05,0,0,1-1.41-.84,1.34,1.34,0,0,1,.37-.17,6,6,0,0,0,3.17-1.34c1-.79,2-1.63,3.05-2.45A8,8,0,0,0,686.52,349.72Z"/><path class="cls-27" d="M722.48,350.2l2.25.11a16.07,16.07,0,0,0,.8,4.86,18.11,18.11,0,0,1-6.87,1.82,6.74,6.74,0,0,1-5-1.07c-.21-.56.19-.77.58-.92a14.1,14.1,0,0,0,6-4.68Z"/><path class="cls-21" d="M772.22,227.45c-.1,1.68-1.17,2.44-2.66,2.84a12.53,12.53,0,0,1-4,.21,1.17,1.17,0,0,1-1-.8,31.93,31.93,0,0,1-1.33-3.4,1.19,1.19,0,0,1,1-.32c2.77.18,4.67-1.31,6.35-3.26.28-.34.39-.89,1-.9A35.55,35.55,0,0,0,772.22,227.45Z"/><path class="cls-24" d="M742.71,353.65a7.68,7.68,0,0,0,1.6.79c.92.3,1.83.63,2.74,1a11.05,11.05,0,0,0,4,.55.55.55,0,0,1-.1.82c-.47,1.11-.47,1.11-1.68,1.11-4.63,0-9.25,0-13.87,0-.45,0-1,.15-1.31-.29a3,3,0,0,1,1.89-.81,16.87,16.87,0,0,0,3.49-1A10,10,0,0,0,742.71,353.65Z"/><path class="cls-23" d="M461.23,254.47c0-.18-.16-.37-.12-.54.37-1.73.76-3.45,1.15-5.18,0-.18.12-.35.17-.51a1,1,0,0,1,.8.55c.57.85,1.14,1.71,1.64,2.61.6,1.06,1.15,2.14,1.72,3.22a4.55,4.55,0,0,0,2.54,2.08,8.41,8.41,0,0,0,2.44.61.8.8,0,0,1,.62.26,26.68,26.68,0,0,1-2.74.57,8.23,8.23,0,0,1-4.07-.85A15.62,15.62,0,0,1,461.23,254.47Z"/><path class="cls-28" d="M678.6,355.3c.4.13.81.24,1.2.38a10.25,10.25,0,0,0,5.8.39c1.46-.31,2.9-.71,4.36-1.06.31-.08.64-.12,1-.17,1,1.33.84,2.23-.53,2.8a9.88,9.88,0,0,1-3.16.26h-1.68a1,1,0,0,0-1.1,0c-2,0-4,0-6.06,0a3.88,3.88,0,0,1-1.65-.27l-.76-.31a5.82,5.82,0,0,1-.46-.53.36.36,0,0,1,.15-.58,4,4,0,0,1,.77-.32Z"/><path class="cls-29" d="M522.34,292.21c.61,0,1.21,0,1.82,0h25a.72.72,0,0,1,.58.33l-.24.48-.07,0-.05.06a1.63,1.63,0,0,1-.95.12H514a3.6,3.6,0,0,1-.56,0,.72.72,0,0,1-.1-1A24.59,24.59,0,0,1,522.34,292.21Z"/><path class="cls-28" d="M713.66,355.64a8.42,8.42,0,0,0,4.87,1,19.28,19.28,0,0,0,4.12-.82,20.32,20.32,0,0,1,2.88-.65,3.78,3.78,0,0,1-.11,2.69c-1.21,0-2.43,0-3.64,0h-9.41a4.15,4.15,0,0,1-1.78-.26c-.94-.29-1-1-.3-1.38A3.39,3.39,0,0,1,713.66,355.64Z"/><path class="cls-30" d="M771.49,221.82a9.12,9.12,0,0,1-5.18,4.32,4.89,4.89,0,0,1-1.51.19c-.56,0-1.12,0-1.67,0a5.45,5.45,0,0,0-1.16-1.14,1,1,0,0,1-.32-.61A4.42,4.42,0,0,0,760,220.5a.42.42,0,0,1,0-.62c.19,0,.42-.06.55,0a3.78,3.78,0,0,1,2,2.55c.11.73.15.76.89.76a18.85,18.85,0,0,0,4.17-.24,8.48,8.48,0,0,0,3.26-1.48l.66-.51C771.49,221.27,771.49,221.54,771.49,221.82Z"/><path class="cls-25" d="M760,219.88a1.07,1.07,0,0,0,.13.38,3.61,3.61,0,0,0,.44.33c1.4,1.21,1.4,1.21,1.39,3.06,0,.5,0,1,0,1.51a6.05,6.05,0,0,0-3.13-.19c-.31,0-.69.06-.89-.29a7.28,7.28,0,0,1-1.12-3.56c0-.85.33-1.2,1.18-1.25.51,0,1,0,1.61,0,.19-.19.09-.53.09-.85,0-1.49,0-3,0-4.49a1.78,1.78,0,0,1,.24-1.21Q760,216.6,760,219.88Z"/><path class="cls-31" d="M481,248.85a4.36,4.36,0,0,0-.52-1.65c2-1.92,1.22-1.64,4.22-2,.28,0,.55-.13.82-.18.46-.08.75,0,.69.22s-.35.27-.55.36l-.4.14-.38.16c-.05.34.22.38.41.43a9.09,9.09,0,0,0,2.49.36,3.06,3.06,0,0,1,1.73.36c0,.1-.05.22-.11.26a6.93,6.93,0,0,1-3.52,1.26C484.22,248.6,482.59,248.63,481,248.85Z"/><path class="cls-32" d="M713.77,233.09a1,1,0,0,1-.3.6c-.55.15-1,.58-1.61.53-.43-.32-.41-.83-.5-1.28s-.35-.73-.31-.87c0,.12.19.47.29.83-.07.54.47,1,.16,1.57l-.45.07a13.16,13.16,0,0,1-1.57-5.18,28.06,28.06,0,0,1-.18-4.2c.26-.08.45-.08.48.26a13.21,13.21,0,0,0,.83,3.4,7.22,7.22,0,0,0,.37.91,1.79,1.79,0,0,0,1.9,1.14,3.62,3.62,0,0,1,.57,0C714.39,231.48,714.25,232.26,713.77,233.09Z"/><path class="cls-24" d="M769.19,355.67a4.72,4.72,0,0,1,1.94.17,1.8,1.8,0,0,0,.7.08,32.41,32.41,0,0,0,4.62-.11,1,1,0,0,1,.4.11l.06.54c-.08,1.39.14,1.45-1.51,1.45h-5.32c-1,0-1,0-1.1-1.13A.68.68,0,0,1,769.19,355.67Z"/><path class="cls-33" d="M457,259c.06-.07.1-.18.17-.21l2.86-1.13a5.32,5.32,0,0,1-.3,3.58,9.63,9.63,0,0,1-2.41.53C457.11,260.86,457.18,259.91,457,259Z"/><path class="cls-34" d="M699.88,259.76l1.39.43a1.53,1.53,0,0,1-1,.5c-.22.05-.46.05-.62.25-.65,0-1.24.41-1.9.26-.13,0-.3,0-.27-.22a.44.44,0,0,1,.11-.24,2.85,2.85,0,0,1,1.07-.61C699.1,260,699.49,259.88,699.88,259.76Z"/><path class="cls-10" d="M734,276.2a.54.54,0,0,1-.2-.61A.6.6,0,0,1,734,276.2Z"/><path class="cls-9" d="M724.82,350.16a.14.14,0,0,1,.18-.11l-.06.11Z"/><path class="cls-13" d="M665.53,357.63a1.16,1.16,0,0,0,0,.18c-.32,0-.65.06-1,.06-5,0-10,0-15,0l-.42,0a1,1,0,0,1-.3-.43,50.07,50.07,0,0,1-.36-5.47c-.28-5.71-.67-11.42-.95-17.13-.24-4.68-.58-9.36-.8-14a7,7,0,0,0-.13-2.66,2,2,0,0,0-.34-.26c-2.89-.23-5.77,0-8.65-.1a7.26,7.26,0,0,1-1.4-.07c-.38-.09-.82-.3-.59-.74.71-1.38.21-2.71,0-4.06.61-.6,1.39-.47,2.12-.48h11.5c2.79,0,2.9.13,2.84,2.94a2.1,2.1,0,0,1-.76,1.47,3.2,3.2,0,0,0-1.15,3c.38,8.51.41,17,.65,25.54.09,3.37.13,6.74.2,10.11,0,1.62.14,1.74,1.78,1.75,3.56,0,7.13,0,10.69,0A2.74,2.74,0,0,1,665.53,357.63Z"/><path class="cls-14" d="M649.18,357.63a1.16,1.16,0,0,0,0,.18c-.56,0-1.12.05-1.68.05H540.62a.47.47,0,0,1-.47-.22,1.38,1.38,0,0,1,.67-.36,11.8,11.8,0,0,1,1.57-.08c3.62-.08,7.23,0,10.85,0h48.17a16.2,16.2,0,0,1,2,0,7.72,7.72,0,0,1,1.36,0c8.21-.07,16.43,0,24.64,0,.47,0,.94,0,1.41,0,1,0,1.33-.42,1.34-1.36,0-2.4-.25-4.78-.38-7.16q-.35-6.67-.77-13.33c-.25-4.07-.37-8.15-.75-12.21a26.75,26.75,0,0,1-.06-3.23c0-.33,0-.65,0-1,.07-2,1.22-2.58,3.08-1.47a3,3,0,0,1,.27,1.61c.05,2.18-.24,4.37.19,6.55a4.68,4.68,0,0,1,.11,1.12c-.11,5.54.52,11.06.28,16.6-.08,2,.44,4,.26,6,0,2-.06,3.93,0,5.89,0,.63-.14,1.33.42,1.85,4.08.2,8.15,0,12.23.09A2.9,2.9,0,0,1,649.18,357.63Z"/><path class="cls-28" d="M538.44,357.62l-.86-.26c-1.47-.08-2.36-1.15-3.17-2.1-1.77-2.11-3.35-4.37-5.56-6.07a2.53,2.53,0,0,1-.45-.53c-1.46-2-1.2-3,1-4.21.87-.06,1.18.63,1.55,1.21.62.94,1,2,1.61,2.95a13.43,13.43,0,0,0,6,5.49c.63.89,1.64,1.61,1.32,2.94-.29.83-.29.83-1,.65Z"/><path class="cls-35" d="M684.45,357.89c.52-.36.57-.36,1.1,0Z"/><path class="cls-15" d="M555,300.42a3.89,3.89,0,0,0,.25.5c5.26,8.09,9.91,16.54,14.44,25.05,1.3,2.43,2.54,4.9,3.83,7.34a1,1,0,0,1-.15,1.26c-1.32,1.51-3,1.4-4.74,1.07a2.39,2.39,0,0,1-1.21-.65c-5.47-4.77-10.88-9.6-15.94-14.8-1-1-1.92-2-2.87-3.07-.92-.36-1.22-1.25-1.65-2-1-1.72-1.52-3.62-2.36-5.4-.16-.34-.29-.69-.45-1-1.23-2.51-1.91-2.71-4.32-1.28a4,4,0,0,1-1.12.55c-2.6,1.1-5.13,2.31-7.81,3.22a28.4,28.4,0,0,1-7.67,1.59c-1.83,0-3.66,0-5.49,0-.66,0-.77-.1-.75-.71,0-1.31,0-2.63.18-3.93.08-.61.08-1.22.11-1.83.1-1.78.19-3.55.3-5.33,0-.53.16-.64.7-.67.37,0,.75,0,1.12,0h33.78C553.8,300.34,554.4,300.39,555,300.42Z"/><path class="cls-14" d="M652,300.41c0,4.5,0,9,0,13.49,0,.5.17,1-.27,1.47,0-.66,0-1.32,0-2a.54.54,0,0,0-.51-.56H636.58c-.33,0-.67,0-.9.28a2.26,2.26,0,0,1-1.23.19c-6.49,0-13,0-19.47,0a2.79,2.79,0,0,1-2.13-.45V300.43l14.93,0Z"/><path class="cls-15" d="M513.4,292.31l.05.73c-1,.43-2.09.09-3.13.2-.5.05-1-.13-1.49.13a2.21,2.21,0,0,0-1.61,2.22,15.36,15.36,0,0,0,0,2.25,2.4,2.4,0,0,0,2.13,2.41,13,13,0,0,0,2.24.09c2.69,0,2.37-.35,2.26,2.31-.13,3-.15,6.08-.21,9.12,0,.14,0,.28,0,.42,0,.48-.13.59-.57.62-.28,0-.57,0-.85,0h-7.86a1.61,1.61,0,0,0-.84-.3,4.44,4.44,0,0,1-1.67-2.52,19.64,19.64,0,0,1-.73-6.78,42.35,42.35,0,0,1,2-10.28,2.7,2.7,0,0,0,.07-.41,2.67,2.67,0,0,1,.53-.16c2.57-.16,5.15-.3,7.72-.45C512.11,292,512.9,291.38,513.4,292.31Z"/><path class="cls-36" d="M536.53,318.52c-.23-.89-.23-.89-.93-.91H516.73c0-.93,0-1.87,0-2.81a4.55,4.55,0,0,1,.09-1c.12-.51.35-.67.9-.7h14.6c.44,0,.95.16,1.29-.32,0-.33.24-.37.49-.38,1.25.13,2.54-.26,3.76.32.49,1.47-.44,2.76-.58,4.15C537.25,317.47,537.29,318.22,536.53,318.52Z"/><path class="cls-36" d="M511.68,357.67l-.28-.07a1.52,1.52,0,0,1-.32-1.31,33.71,33.71,0,0,0,.14-4.92c0-6,.19-12,.39-18,.16-4.68-.14-9.37.37-14,.1-.92-.33-1.29-1.2-1.29H500.23c-.72,0-1.14.62-1.79.69-.11-1.49.16-1.42,1.34-1.42h9.89a.48.48,0,0,0-.12-.56c-1-1.35-.92-2.2.24-3.44a1.8,1.8,0,0,1,.2-.19c.94,0,1.87,0,2.81,0,.55,0,.82.24.81.77a16,16,0,0,1-.16,3.91,5.28,5.28,0,0,0-.07,1.26c0,3.33,0,6.66,0,10a6.31,6.31,0,0,1-.16,1.67,5.93,5.93,0,0,0-.1,1.4c0,3.14,0,6.28,0,9.42a6.73,6.73,0,0,1-.19,1.95,4.39,4.39,0,0,0-.07,1.26c0,3.05,0,6.1,0,9.15a20.93,20.93,0,0,1-.25,3.06C512.46,357.56,512.12,357.62,511.68,357.67Z"/><path class="cls-24" d="M534,312.59a.37.37,0,0,0-.34.2h-10.4a5.46,5.46,0,0,1,2.15-.46A47.82,47.82,0,0,0,533,310a50.45,50.45,0,0,0,5.11-2.25c.2-.1.4-.27.64-.08.06.09.11.19.07.26A9.9,9.9,0,0,1,534,312.59Z"/><path class="cls-37" d="M508.83,293.37c.33-.33.76-.25,1.17-.26l3.45-.07H547c.8,0,1.59,0,2.38.06a.56.56,0,0,1-.46.26H509.25Z"/><path class="cls-23" d="M770.06,255.63a1.31,1.31,0,0,0-.28,0,3.91,3.91,0,0,1-2.87-.89,14.6,14.6,0,0,1-3.53-3.57,23.15,23.15,0,0,1-2.91-5.74,39.45,39.45,0,0,1-2-8,34.59,34.59,0,0,1-.52-5.28c0-.14,0-.28,0-.43.4.12.38.5.47.77.79,2.45,1.61,4.89,2.61,7.27a49.64,49.64,0,0,0,4.12,8.13,21.18,21.18,0,0,0,3.23,3.7,5.25,5.25,0,0,0,2.26,1.1,1.24,1.24,0,0,0,.54,0,12.8,12.8,0,0,0,1.35-.36,37.2,37.2,0,0,0,5.1-2c.19-.1.37-.31.72-.11a11.71,11.71,0,0,1-2.16,2.12A8.89,8.89,0,0,1,770.06,255.63Z"/><path class="cls-23" d="M753.19,249.28a4.28,4.28,0,0,1-.33,2.17.72.72,0,0,1-.64.49,3.17,3.17,0,0,1-1.11,0,8.41,8.41,0,0,0-2.22-.25c-.62,0-.84-.28-.74-.9a10.34,10.34,0,0,1,.32-1.36,70.21,70.21,0,0,1,3.1-8.11.31.31,0,0,1,.2-.16c.17,0,.25.12.27.25a42.2,42.2,0,0,1,.8,4.39A18.54,18.54,0,0,1,753.19,249.28Z"/><path class="cls-26" d="M770.06,255.63c.36-.35.86-.32,1.29-.49a19.46,19.46,0,0,0,4.92-2.84,1.43,1.43,0,0,1,.26,1.33,8.71,8.71,0,0,1-1.89,3.56,2.05,2.05,0,0,1-1.21.66,3.1,3.1,0,0,0-1.07.33h-.13l-.14,0c-.13,0-.27,0-.4,0-.36,0-.64-.07-.7-.47A5.4,5.4,0,0,0,770.06,255.63Z"/><path class="cls-38" d="M716.6,304.91c-.51,1.2-1,2.41-1.55,3.6-1.31,2.91-2.65,5.8-3.95,8.7a86.05,86.05,0,0,0-3.28,8.52,78.11,78.11,0,0,1-11.58,22.36c-.22.3-.49.58-.68.89a3,3,0,0,1-3.2,1.54,5.21,5.21,0,0,0-1.11.06l-.94-.24a7.77,7.77,0,0,0,1.08-1.46c1.68-2.42,3.26-4.91,4.77-7.44a105.83,105.83,0,0,0,5.5-10.43,70.9,70.9,0,0,0,2.93-7.44A53.85,53.85,0,0,0,706,318a64.93,64.93,0,0,1,1.93-6.88,98.64,98.64,0,0,1,3.81-9.65c1.05-2.36,2.25-4.63,3.38-6.95a8.92,8.92,0,0,1,.47-.86c.1-.15.28-.34.41-.33.34,0,.23.34.24.55,0,.79,0,1.59,0,2.39a7.46,7.46,0,0,0,.18,1.81,6.38,6.38,0,0,1,.09,1.39,16.64,16.64,0,0,0,.23,3.07A3.61,3.61,0,0,1,716.6,304.91Z"/><path class="cls-1" d="M708.14,261.86a.81.81,0,0,1,.89-.17c1.55.48,3.1.95,4.66,1.39.94.26,1.88.51,2.83.69a1.34,1.34,0,0,1,.86.63c.24,1.57.46,3.14.72,4.71.49,3,1,5.91,1.5,8.87a1.5,1.5,0,0,1,0,.42,31.45,31.45,0,0,1-11.46-1.11,5.23,5.23,0,0,1-.08-1.53Q708.09,268.8,708.14,261.86Z"/><path class="cls-39" d="M444.9,264.92a19.36,19.36,0,0,1-2.61-2.51,7.35,7.35,0,0,0,1-2.28,4.66,4.66,0,0,1,4.55,1.52.57.57,0,0,1-.11.42,8,8,0,0,1-.83,2.17,5.21,5.21,0,0,1-.56.77c-.34.39-.42.39-.95.17A4.45,4.45,0,0,1,444.9,264.92Z"/><path class="cls-40" d="M447.72,262.07l0-.3c.58-1.32,1.25-2.55,2.86-2.81l3.48.07c.15,1,0,2.06.16,3.08-.32.27-.71.19-1.08.21A35.34,35.34,0,0,1,447.72,262.07Z"/><path class="cls-41" d="M454.24,262.11a3.09,3.09,0,0,1-.16-3.08c.41-.11.67-.5,1.11-.58A2.26,2.26,0,0,1,457,259a2.51,2.51,0,0,1,.32,2.77c-.21.21-.41.42-.61.64A2.13,2.13,0,0,1,454.24,262.11Z"/><path class="cls-42" d="M763.08,315.36h-.27l0-.77A.66.66,0,0,1,763.08,315.36Z"/><path class="cls-21" d="M518.13,256.43a.11.11,0,0,1,0,.18,2.75,2.75,0,0,1-3.16,1.46,10.38,10.38,0,0,1-2.42-.73,17.22,17.22,0,0,1-2.85-1.5,6.88,6.88,0,0,0,1.31-2.77c.22-.86.38-1.74.55-2.61a2.13,2.13,0,0,0,0-1.12,7.54,7.54,0,0,1,.13-3.47.37.37,0,0,1,.39-.33c.37,0,.75,0,1.12,0a8.88,8.88,0,0,0,3.69-.77,25,25,0,0,0,4.16-2.33l1.34-.9a3.18,3.18,0,0,1,1.07,1.76,10.89,10.89,0,0,1-.12,6.37,20.49,20.49,0,0,1-1.28,3,6,6,0,0,1-.37.6c-.8,1.13-1.35,1.66-3,1-2.08.13-3.73-.9-5.35-1.94A7.66,7.66,0,0,0,518.13,256.43Z"/><path class="cls-43" d="M514.14,288a2.19,2.19,0,0,0-1.38-1.11,48.21,48.21,0,0,0-6.48-1.69,21.89,21.89,0,0,0-3.86-.63c-.11,0-.22-.15-.33-.23.43-1.63-.28-3.2-.29-4.8,1-1.38,1.74-3,2.82-4.28.33,0,.27.26.28.42a29.47,29.47,0,0,0,.89,4.93,4.77,4.77,0,0,0,2.4,3,76.82,76.82,0,0,0,7.37,3.41,5.23,5.23,0,0,0,1.51.2C516.31,288.26,515.18,288,514.14,288Z"/><path class="cls-44" d="M514.14,288a4.76,4.76,0,0,1,2.05-.56,1.54,1.54,0,0,0,.88-.26,7.83,7.83,0,0,1,5.57,1.25,8.79,8.79,0,0,0,.87.43l0,.29c-.19.13-.42.23-.26.53l-.28.57a1.2,1.2,0,0,1-1,.45,3.93,3.93,0,0,0-3.72-.27c-1.29.4-2.66,1-4,0A5.52,5.52,0,0,0,514.14,288Z"/><path class="cls-45" d="M514.24,290.49a8,8,0,0,0,4-.37c.58-.18,1.17-.3,1.74-.49a1.24,1.24,0,0,1,1.29.27l.85.71c.2.11.49,0,.64.24a.8.8,0,0,1-.34.65c-.51.66-1.24.43-1.9.47a6.3,6.3,0,0,0-1.62.13c-1.08,0-2.16,0-3.23,0a1.73,1.73,0,0,1-1.43-.41Z"/><path class="cls-46" d="M501.8,279.57c.07.06.16.12.19.19a15,15,0,0,1,.66,4c0,.39-.17.61-.56.65a10,10,0,0,1-2.1-.64.42.42,0,0,1-.23-.57c.19-.42.38-.84.61-1.24C500.83,281.13,501.32,280.35,501.8,279.57Z"/><path class="cls-47" d="M514.21,291.7a10.53,10.53,0,0,0,2.63.19l2.09.05a12.24,12.24,0,0,1,3.42,0,.66.66,0,0,1,0,.28l-5.17,0-3.77.06a.74.74,0,0,0-.7-.36l-1.27,0a2.93,2.93,0,0,1,1.52-.21C513.37,291.7,513.79,291.7,514.21,291.7Z"/><path class="cls-48" d="M494.48,291.67a.58.58,0,0,1-.58-.25A.59.59,0,0,1,494.48,291.67Z"/><path class="cls-49" d="M450.6,259a1.19,1.19,0,0,0-.8.51c-.68.77-1.37,1.53-2.06,2.3a2.5,2.5,0,0,0-1.35-.92,25.92,25.92,0,0,0-3.11-.72A4.3,4.3,0,0,0,442.2,259c-2-1.77-4-3.53-5.92-5.41-.37-.36-.7-.76-1.08-1.1a1.72,1.72,0,0,1-.34-2.28,3.24,3.24,0,0,1,.44-.71c2.11-2.45,4.24-4.88,6.27-7.23a.54.54,0,0,1,.63.13L454.29,253a3.7,3.7,0,0,0,.47.35,1.35,1.35,0,0,1-.52,1c-1.13,1.32-2.27,2.62-3.41,3.93C450.64,258.44,450.46,258.65,450.6,259Z"/><path class="cls-21" d="M453.6,224.92c0,.23.06.46.11.69a3.92,3.92,0,0,0,3,3.3c.4.11.79.28,1.18.42a8.61,8.61,0,0,1-3.92,2.33,11.89,11.89,0,0,1-10.21-1.3,6.88,6.88,0,0,1-2.23-1.67c.5-.11,1-.22,1.51-.35a3.66,3.66,0,0,0,2.6-2.37,17.35,17.35,0,0,0,.95-6.23,3,3,0,0,0-.2-.81,5.21,5.21,0,0,1-.33-1.79,3.81,3.81,0,0,1,.1-1.52c.24-.51.93-.29,1.41-.37a6.82,6.82,0,0,0,4.14-2.48,17.07,17.07,0,0,0,2.22-3.41l.38-.76c.19-.33.38-.4.68-.23a4.56,4.56,0,0,1,1.82,1.72,8.67,8.67,0,0,1,1.17,4.58,19.75,19.75,0,0,1-1.07,5.79,9.39,9.39,0,0,1-.66,1.4,1.54,1.54,0,0,1-1.62.87c-.24,0-.47,0-.71,0-1.86.49-3.5-.29-5.19-.92a6.63,6.63,0,0,0,4.15,2.79A1.31,1.31,0,0,1,453.6,224.92Z"/><path class="cls-6" d="M614.26,262.41H558.75c-.47,0-.94,0-1.41,0a.52.52,0,0,1-.54-.53c0-.52,0-1,0-1.55V164.79c0-1.67,0-1.59,1.63-1.59H670.15c1.67,0,1.61-.06,1.61,1.61v95.93c0,.37,0,.75,0,1.12a.53.53,0,0,1-.55.53c-.47,0-.94,0-1.41,0Z"/><path class="cls-1" d="M716.33,257.86c-.18.81-.23.9-.82.8a44.47,44.47,0,0,0-4.75-.26,3.05,3.05,0,0,1-1.86-.45c.52-.83,1.49-.69,2.23-1a8.26,8.26,0,0,0,1.65-.7A20.88,20.88,0,0,0,710,257c-.52.15-1.05.48-1.6.06a14.14,14.14,0,0,1,0-2.52c0-1.54,0-3.08,0-4.62a11,11,0,0,1,.49-3.17c1-3.22,2.16-6.36,3.37-9.5.42-1.08.85-2.17,1.28-3.26,0,0,.09.05.11.09.78,1.39,2.1,1.57,3.49,1.43a7.12,7.12,0,0,0,3-1,1.69,1.69,0,0,1,.9-.35,1.42,1.42,0,0,0,0,.2,1,1,0,0,1-.18.37c-1.79,4.07-3.51,8.16-4.93,12.39a11,11,0,0,0-.38,5C715.76,254.07,716.05,256,716.33,257.86Z"/><path class="cls-12" d="M724.63,248.89c.23.82.45,1.44.57,2.07.35,2,.93,3.9,1.39,5.85.22.89,0,1.31-.84,1.63a3.57,3.57,0,0,1-1.51.29c-.28,0-.56,0-.84,0s-.87.28-1.22,0-.22-.88-.25-1.33c0-.23,0-.47,0-.7-.19-2.7.92-5,2.17-7.28C724.17,249.27,724.34,249.17,724.63,248.89Z"/><path class="cls-21" d="M720.83,234.79a.34.34,0,0,1,.18-.37A.35.35,0,0,1,720.83,234.79Z"/><path class="cls-50" d="M598.55,284.15a1.84,1.84,0,0,1-1.65-1.48,1,1,0,0,1,.94-1.14,1.84,1.84,0,0,1,1.76,1.35A1,1,0,0,1,598.55,284.15Z"/><path class="cls-51" d="M453.6,224.92c-2.64,0-4.27-1.55-5.67-3.74a3.5,3.5,0,0,1,1.5.51c.49.16,1,.28,1.46.48a8,8,0,0,0,1.51.26,6,6,0,0,0,1.51.25,2.17,2.17,0,0,0-.24,1.17C453.66,224.21,453.62,224.56,453.6,224.92Z"/><path class="cls-52" d="M541,283.88a.93.93,0,0,1-.91-1.34,1.93,1.93,0,0,1,1.13-1.16,1.12,1.12,0,0,1,1.29.22,1.19,1.19,0,0,1,.07,1.31A1.75,1.75,0,0,1,541,283.88Z"/><path class="cls-53" d="M522.35,291.93h-3.42a3.61,3.61,0,0,1,1.38-.2c.69-.09,1.39-.16,2.08-.24C522.38,291.65,522.36,291.79,522.35,291.93Z"/><path class="cls-54" d="M522.73,290.85a.71.71,0,0,1-.64-.24c.27-.16.51-.38.85-.33A.51.51,0,0,1,522.73,290.85Z"/><path class="cls-55" d="M523.22,289.71a.73.73,0,0,1-.23-.13,1.75,1.75,0,0,1-.15-.34.81.81,0,0,1,.25-.08,2.55,2.55,0,0,1,.39,0Z"/><path class="cls-56" d="M518.13,256.43a2.2,2.2,0,0,1-1.35-.22,7.48,7.48,0,0,1-3.48-3.28c-.25-.43-.43-.89-.78-1.65a17.35,17.35,0,0,0,3.06,1.91c1,.38,2.11.71,3.17,1.05a1.25,1.25,0,0,0-.32.73C518.35,255.46,518.23,256,518.13,256.43Z"/><path class="cls-57" d="M708.37,257.07l4.29-1.27a1.3,1.3,0,0,1,.67-.13.44.44,0,0,1,.21.76,2.23,2.23,0,0,1-.62.3l-4,1.22a1.57,1.57,0,0,1-1.36-.36C707.7,257.22,708.19,257.39,708.37,257.07Z"/><path class="cls-58" d="M711.47,232.82l.39,1.4-.36.25a5.29,5.29,0,0,1-.3-1.67A.16.16,0,0,1,711.47,232.82Z"/><path class="cls-59" d="M523.5,157.58c-3.75,0-7.51,0-11.26,0a1.87,1.87,0,0,1-1.62-.64,1.36,1.36,0,0,1-.36-.89V133.55a1.71,1.71,0,0,1,1.65-1.88,8.18,8.18,0,0,1,1,0h22A2.14,2.14,0,0,1,537,133.6a8,8,0,0,1,0,.85c0,6.85,0,13.69,0,20.54,0,1.91-.77,2.65-2.58,2.61C530.82,157.53,527.16,157.58,523.5,157.58Z"/><path class="cls-56" d="M713.77,233.09c0-.4,0-.81,0-1.21a1.76,1.76,0,0,0-.28-1c1.58-.06,2.8-.39,5.81-1.54.09.41-.26.56-.41.81a6.73,6.73,0,0,1-3.07,2.53A3.73,3.73,0,0,1,713.77,233.09Z"/><path class="cls-60" d="M711.47,232.82l-.27,0a1.94,1.94,0,0,1-.18-1.29A2.4,2.4,0,0,1,711.47,232.82Z"/><path class="cls-61" d="M647,317.61h-9.41a8.85,8.85,0,0,1-2.5-.21,2.29,2.29,0,0,0-1.9.22c-.67-.53-1.43-.25-2.15-.22-.27,0-.37.27-.37.51,0,.65,0,1.31,0,2-.59,0-.63-.53-.66-.92-.08-1-.7-1.18-1.55-1.18-6.4,0-12.81.05-19.22,0-1.51,0-1.38,1.24-2,1.89-.09,0-.22,0-.25-.07a4.7,4.7,0,0,0-2.5-2.22,1.93,1.93,0,0,1-1.07-.26,1.42,1.42,0,0,1-.9-1.44c0-.32,0-.65,0-1a1.8,1.8,0,0,1,1.89-1.82h29.6a3.18,3.18,0,0,1,1.77.28,1.59,1.59,0,0,1,.87,1.61,3.4,3.4,0,0,1-.62,2.48c.33.24.7.13,1.06.13h8.8C646.19,317.33,646.65,317.2,647,317.61Z"/><path class="cls-61" d="M647.22,320.43a.88.88,0,0,1-.26-.75v-2.07a.87.87,0,0,1,.27.75C647.22,319.05,647.22,319.74,647.22,320.43Z"/><path class="cls-14" d="M606.94,319.59c0,.75,0,1.5,0,2.25a4.93,4.93,0,0,1-.17,1.53,3.9,3.9,0,0,0-.1,1,28.71,28.71,0,0,1-.24,4.34,15.34,15.34,0,0,0-.06,2.8,5.83,5.83,0,0,1-.17,1.81,4.07,4.07,0,0,0-.1,1.11,25.2,25.2,0,0,1-.23,4.06,14.49,14.49,0,0,0-.06,2.8,5.87,5.87,0,0,1-.2,1.95,3.42,3.42,0,0,0-.07,1,22.63,22.63,0,0,1-.25,4.19,12,12,0,0,0,0,2.25,16.63,16.63,0,0,1-.19,2.22,21.19,21.19,0,0,0-.09,3.09,4,4,0,0,1-.22,1.65h-1.23c0-3.41,0-6.83,0-10.24a6.74,6.74,0,0,1,.19-2.09,4,4,0,0,0,.07-1.25c0-2.62,0-5.24,0-7.86a10.76,10.76,0,0,1,.23-3.2,4.63,4.63,0,0,0,0-1.12c0-2.11,0-4.21,0-6.32a42,42,0,0,0,.14-5.26,4.9,4.9,0,0,1,.13-1.79v-1.12c.64,0,1.28,0,1.92,0,.42,0,.58.18.6.59S606.93,319,606.94,319.59Z"/><path class="cls-62" d="M541.79,335.58c0,3.41,0,6.83.05,10.24a9.65,9.65,0,0,0,.22,2.93,4.09,4.09,0,0,1,0,1.11c0,2.58,0,5.15,0,7.73h-1.46v-2.81a1.76,1.76,0,0,0,0-.56,15,15,0,0,1-.26-3.9,5.3,5.3,0,0,0-.15-1.53,4.11,4.11,0,0,1-.11-1.11,28,28,0,0,0-.24-4.19,15.16,15.16,0,0,1-.06-2.94c0-.38-.14-.63-.54-.69a.32.32,0,0,1,0-.37,3.72,3.72,0,0,0,1.29-1.88C540.88,336.88,540.88,336,541.79,335.58Z"/><path class="cls-63" d="M634,349.45a2,2,0,0,1,.56.06.65.65,0,0,1,.5.85,3.51,3.51,0,0,1-.4,1,2.17,2.17,0,0,0-.38,1.45c0,.57,0,1.13,0,1.69a1.46,1.46,0,0,0,.57,1.33c.41.32.35.66-.08,1.06-.21.19-.46.32-.48.64-.39-.25-.27-.66-.27-1Q634,353,634,349.45Z"/><path class="cls-61" d="M633.15,319c.34.28.27.67.27,1v5.45c-.34-.28-.27-.67-.27-1C633.14,322.65,633.15,320.83,633.15,319Z"/><path class="cls-25" d="M539.26,339.61a1,1,0,0,0,0,.25,53.22,53.22,0,0,0-1.58,5.37,29.51,29.51,0,0,0-.66,4.28,6,6,0,0,0,1,4.14c.13.2.23.41.35.61A10.34,10.34,0,0,1,533.8,351a19.2,19.2,0,0,1-2.13-3.28c-.47-.85-1-1.71-1.44-2.56a1,1,0,0,0-.72-.59,4.54,4.54,0,0,1,1.66-.72,3.55,3.55,0,0,0,2.45-2.32c.3-.84.57-1.69.86-2.53.08-.22.19-.42.29-.63A13,13,0,0,1,539.26,339.61Z"/><path class="cls-15" d="M539.26,339.61a11.79,11.79,0,0,1-4.49-1.26c-.07-.07-.12-.16-.2-.19-.64-.26-.73-.76-.65-1.37.13-1,.2-2,.33-2.92.46-3.61.92-7.21,1.54-10.8.26-1.51.5-3,.74-4.55a5.51,5.51,0,0,0,.45-1.88c.33-1.26.57-2.54.85-3.82a2.58,2.58,0,0,1,.73-2.64c.58-.11.87.29,1.11.69,2.21,3.82,4.48,7.61,6.6,11.47a1.77,1.77,0,0,1,.12.41,4.5,4.5,0,0,1-.46,1.47c-1.29,3.52-2.61,7-3.91,10.55-.09.26-.16.54-.23.81a27.84,27.84,0,0,0-1.17,2.95C540.19,339.51,540.52,339.41,539.26,339.61Z"/><path class="cls-24" d="M546.39,322.75a1.74,1.74,0,0,1-.72-.84c-1.84-3.21-3.66-6.43-5.55-9.61a5.39,5.39,0,0,0-1.41-2.05c-.5-1.23.28-2.1.84-3a6.5,6.5,0,0,1,1.72-.93,1.73,1.73,0,0,1,2.38.81,11.11,11.11,0,0,1,1.19,2.23c.57,1.33,1.09,2.68,1.64,4a22.6,22.6,0,0,0,2.14,3.77q-.84,2.19-1.69,4.38A4.09,4.09,0,0,1,546.39,322.75Z"/><path class="cls-25" d="M568.64,335.64c.51-.06,1-.17,1.53-.18a7.06,7.06,0,0,0,3.21-.89,18,18,0,0,0,6.44,4.56,4.58,4.58,0,0,0,2.16.47,1.86,1.86,0,0,1,1.22.19,13.68,13.68,0,0,1-9.29,1.79,9.83,9.83,0,0,1-3.81-.81A7.38,7.38,0,0,0,568.64,335.64Z"/><path class="cls-28" d="M570.1,340.77a23.61,23.61,0,0,1,3.75.39,14,14,0,0,0,5.28-.12,7.58,7.58,0,0,0,2.08-.79,3.13,3.13,0,0,1,2-.46c.69.12,1.39.22,2.07.38s.61.5.23.94a4,4,0,0,1-1.49,1,10.86,10.86,0,0,1-3.54.81,13.52,13.52,0,0,1-2.11,0,11.85,11.85,0,0,0-3.89.39,7.9,7.9,0,0,1-2.65.27c-1.27-.11-1.73-.61-1.78-1.89C570,341.43,570.08,341.1,570.1,340.77Z"/><path class="cls-61" d="M604.39,318.45v6c0,.36.07.75-.27,1v-6C604.12,319.13,604.05,318.74,604.39,318.45Z"/><path class="cls-64" d="M539.55,307.22c-.2.65-.39,1.31-.61,2a2.82,2.82,0,0,0-.23,1.07,18.56,18.56,0,0,0-.88,2.57h-3.08a.88.88,0,0,1-.77-.24,22.17,22.17,0,0,0,4.32-4.17c.16-.22.29-.47.44-.71S539.2,307.25,539.55,307.22Z"/><path class="cls-65" d="M455.74,259a1,1,0,0,1,.72.34,1.62,1.62,0,0,1,.23,2.05,1.15,1.15,0,0,1-2.11-.09,1.78,1.78,0,0,1,.26-1.94A1.18,1.18,0,0,1,455.74,259Z"/><path class="cls-66" d="M454.84,218.92c.46,0,.74,0,1,.06s.5,0,.49.35a.47.47,0,0,1-.35.39,3.53,3.53,0,0,1-2.18,0,.57.57,0,0,1-.23-.15c-.09-.1-.21-.21-.12-.36s.11-.17.18-.18Z"/><path class="cls-1" d="M575.94,174.77c.3-.24.27-.58.27-.9,0-.71,0-1.41,0-2.12,0-.44.18-.6.59-.63s.65,0,1,0h17.61c.28,0,.56,0,.84,0,.68,0,.78.14.81.86,0,.32,0,.65,0,1v31.54c0,.47,0,.94-.06,1.41a.38.38,0,0,1-.36.36,5.93,5.93,0,0,1-.84.06H573c-1.27,0-1.28,0-1.28-1.38q0-12.25,0-24.5c0-1.36,0-2.72,0-4.09,0-.23,0-.47,0-.7,0-.41.2-.57.64-.58.89,0,1.78,0,2.68,0,.32,0,.66,0,.9-.28Z"/><path class="cls-1" d="M605.23,215.06a1.51,1.51,0,0,1,.48-.26,10.4,10.4,0,0,1,1.12,0h17.46c.28,0,.56,0,.84,0,.88,0,.94.09,1,1v32.37c0,2,.13,1.85-1.8,1.85H602.62c-1.66,0-1.61,0-1.61-1.61V219.81c0-1,.06-1.07,1.16-1.09.79,0,1.59,0,2.39,0,.5,0,.65-.17.67-.7s0-1.22,0-1.83A.79.79,0,0,1,605.23,215.06Z"/><path class="cls-67" d="M604.4,189.35c0-.87.16-1,.85-1.06a39,39,0,0,0,4.57-.52,5.43,5.43,0,0,1,1,0,4.46,4.46,0,0,0,1.25-.15,4,4,0,0,1,1.1-.13,6.79,6.79,0,0,0,2-.22,3.71,3.71,0,0,1,1.25-.06,4,4,0,0,0,1.24-.22.42.42,0,0,1,.55.29,6.07,6.07,0,0,1,.31,1.36,19.2,19.2,0,0,0,.28,2.64,20.88,20.88,0,0,1,.23,2.22c.07,1.26.33,2.5.36,3.76a8.07,8.07,0,0,0,.07,1c.17,1,.17,1-.78,1.07a4.7,4.7,0,0,0-1.39.18,3.44,3.44,0,0,1-1,.1,6.52,6.52,0,0,0-2.36.25.83.83,0,0,1-.28,0,37,37,0,0,0-4.57.53,19.71,19.71,0,0,0-2.64.28.7.7,0,0,1-.86-.7c0-.33,0-.66,0-1a4.15,4.15,0,0,0-.18-1.52,2.28,2.28,0,0,1-.09-.83,5.24,5.24,0,0,0-.22-1.8A2.59,2.59,0,0,1,605,194a8.54,8.54,0,0,0-.19-1.66C604.53,191.26,604.84,190.14,604.4,189.35Z"/><path class="cls-1" d="M626.08,189.84c0-2-.12-1.82,1.83-1.84a7,7,0,0,0,2.5-.23,2.61,2.61,0,0,1,.84,0,12.84,12.84,0,0,0,3.21-.24,6.07,6.07,0,0,1,1.54-.05,6,6,0,0,0,2.23-.22,2,2,0,0,1,.69-.05c.84,0,.89.1,1,1,.19,1.53.17,3.08.33,4.6.12,1.22.2,2.42.23,3.63a3.93,3.93,0,0,0,.15,1,3.75,3.75,0,0,1,.12,1.11c0,1,0,1.09-1.12,1.12a11.76,11.76,0,0,0-3.07.24,6.06,6.06,0,0,1-1.54,0,8.9,8.9,0,0,0-2.51.22,5.4,5.4,0,0,1-1.4.06,6.44,6.44,0,0,0-2.22.22,2.59,2.59,0,0,1-.84.06c-1.11,0-1-.11-1.27-.93a1.17,1.17,0,0,1-.1-.55c.16-1.83-.34-3.63-.31-5.45a6.46,6.46,0,0,0-.2-2.09A6.52,6.52,0,0,1,626.08,189.84Z"/><path class="cls-67" d="M658.56,209c-2.85-.46-5.7-.89-8.51-1.54a28.82,28.82,0,0,1-4-.63.74.74,0,0,1-.76-.83,3.36,3.36,0,0,1,0-.84c.35-2,.71-4,1.07-6.05.2-1.14.51-2.27.61-3.44.06-.7.42-1,1.15-.92a20.69,20.69,0,0,1,2.49.33c2.15.41,4.29.9,6.44,1.28.78.14,1.58.15,2.35.34.18.05.38,0,.56.08.55.15.72.43.78,1a6.23,6.23,0,0,1-.33,2.07c-.35,1.55-.51,3.12-.81,4.68-.2,1.1-.37,2.2-.59,3.3A2.36,2.36,0,0,1,658.56,209Z"/><path class="cls-1" d="M582.22,245.48h-.29c-1.1,0-1.3-.15-1.45-1.24a15.75,15.75,0,0,1,0-1.82,8.51,8.51,0,0,0-.19-1.94,7.86,7.86,0,0,1-.09-1.82,9.84,9.84,0,0,0-.24-2.64,5.64,5.64,0,0,1,0-1.54c0-1.08.06-1,1.06-1.31a4.78,4.78,0,0,1,1.26-.08,11.5,11.5,0,0,0,3.2-.24,3.47,3.47,0,0,1,1.12,0,11.32,11.32,0,0,0,2.78-.23,6.71,6.71,0,0,1,1.68-.06,6.08,6.08,0,0,0,2.08-.19.43.43,0,0,1,.6.4,29.08,29.08,0,0,1,.32,4.18,5.56,5.56,0,0,0,.19,1.8,9,9,0,0,1,.08,1.81,5.23,5.23,0,0,0,.21,2.08,1,1,0,0,1,.06.42c0,1.58.1,1.64-1.45,1.62a3.43,3.43,0,0,0-1.52.19,1,1,0,0,1-.41.07c-1.83-.15-3.62.38-5.45.31a6.45,6.45,0,0,0-2.22.21,4.34,4.34,0,0,1-1.25,0Z"/><path class="cls-68" d="M571.46,230.65a.39.39,0,0,1-.41-.32c-.17-.53-.33-1.07-.45-1.62-.54-2.5-1.06-5-1.59-7.51-.13-.59-.27-1.18-.38-1.78-.07-.36.07-.6.49-.71,1.12-.3,2.26-.58,3.39-.82,2-.44,4.11-.83,6.16-1.26.91-.19,1.82-.42,2.73-.63.47-.11.72,0,.85.47s.28,1.18.41,1.77l1.17,5.61c.25,1.18.51,2.36.76,3.55.08.34-.05.52-.41.59-3.29.68-6.57,1.35-9.85,2-.51.1-1,.26-1.5.37S571.92,230.57,571.46,230.65Z"/><path class="cls-14" d="M633.28,183.22h-5.35c-.33,0-.66,0-1,0a.54.54,0,0,1-.55-.53c0-.23,0-.47,0-.7V172.4c0-.24,0-.47,0-.71,0-.4.2-.54.64-.58h11.83l.84,0a.48.48,0,0,1,.43.31,3.93,3.93,0,0,1,.33,1.35q0,4.52,0,9a2.59,2.59,0,0,1,0,.56,1,1,0,0,1-1.09.86Z"/><path class="cls-1" d="M569.38,241.25h5.35c.33,0,.66,0,1,0a.47.47,0,0,1,.46.45c0,.32,0,.65,0,1,0,2,0,4,0,6.05a13.15,13.15,0,0,0,.23,3.91.52.52,0,0,1-.52.68c-.33,0-.66,0-1,0h-5.35a18.8,18.8,0,0,0-2.79.2,25.21,25.21,0,0,1-3.79,0c-.41,0-.56-.19-.59-.63,0-.23,0-.47,0-.7v-9.72a7.87,7.87,0,0,1,0-.84.49.49,0,0,1,.46-.45c.33,0,.66,0,1,0h5.5Z"/><path class="cls-1" d="M608.92,173.08c.34-.28.24-.68.27-1.05.06-.88.09-.9,1-.93h7c.23,0,.47,0,.7,0a.56.56,0,0,1,.52.56,5.43,5.43,0,0,1,0,.57v10.14a5.36,5.36,0,0,1-.06.69.42.42,0,0,1-.38.36,4,4,0,0,1-.7.05h-11c-.88,0-1.08-.23-1.12-1.08a2.53,2.53,0,0,1,0-.28q0-3.3,0-6.62c0-.36-.07-.76.28-1a2.1,2.1,0,0,1,1.44-.38A2,2,0,0,0,608.92,173.08Z"/><path class="cls-68" d="M636.24,226.33a.86.86,0,0,1,.76-.28c2.58,0,5.16,0,7.74,0,.86,0,1.08.23,1.08,1.1,0,3.48,0,7,0,10.42a2.62,2.62,0,0,1,0,.28.54.54,0,0,1-.52.56c-.23,0-.47,0-.7,0h-10.7a7.75,7.75,0,0,1-.84,0,.49.49,0,0,1-.44-.47,5.47,5.47,0,0,1,0-.7v-7c0-.37-.09-.77.3-1a2.29,2.29,0,0,0,1.1.13c1.65.06,1.75,0,1.88-1.64A2.57,2.57,0,0,1,636.24,226.33Z"/><path class="cls-1" d="M647.51,247.17a.86.86,0,0,0,.29-.75c0-.66,0-1.31,0-2,0-.44.17-.6.58-.64.23,0,.47,0,.7,0h6.75c.23,0,.47,0,.7,0a.79.79,0,0,1,.81.8,5.4,5.4,0,0,1,0,.7v9.41c0,1.34-.13,1.46-1.44,1.47H645.4c-.23,0-.47,0-.7,0a.56.56,0,0,1-.55-.53s0-.09,0-.14c0-2.44,0-4.87,0-7.31,0-.58.15-.71.78-.73s1.22,0,1.83,0a.82.82,0,0,0,.75-.28Z"/><path class="cls-68" d="M657.1,168.29a.75.75,0,0,1,.61-.29h8.45c.67,0,.8.14.8.86q0,4.29,0,8.58c0,.66,0,1.31,0,2s-.17.65-.68.69a5.19,5.19,0,0,1-.56,0H655c-1.26,0-1.28,0-1.28-1.23q0-3.37,0-6.75c0-.37-.09-.77.28-1a.41.41,0,0,0,.26,0c.82-.33,1.89.22,2.5-.46S656.85,169.08,657.1,168.29Z"/><path class="cls-1" d="M653.71,226.33h8c.33,0,.66,0,1,0a.54.54,0,0,1,.55.53c0,.23,0,.47,0,.7v9.58c0,.19,0,.38,0,.56,0,.55-.16.68-.66.72H651.35c-1.27,0-1.29,0-1.29-1.22q0-3.18,0-6.34a5.39,5.39,0,0,1,0-.7.48.48,0,0,1,.47-.44c.75,0,1.51,0,2.26,0,.32,0,.67,0,.88-.3A2.92,2.92,0,0,1,653.71,226.33Z"/><path class="cls-62" d="M605.23,215.06v1.11c-.29.24-.26.58-.27.9a7.86,7.86,0,0,1,0,.84.51.51,0,0,1-.55.51c-.93,0-1.86,0-2.77,0-.18-.31,0-.45.18-.62a31.12,31.12,0,0,1,2.92-2.58C604.83,215.11,605.06,215.11,605.23,215.06Z"/><path class="cls-62" d="M575.94,174.77l-3.34-.05s-.06-.06-.15-.17a14.49,14.49,0,0,1,3.4-3,8,8,0,0,1,.08,1.73c0,.51,0,1,0,1.53Z"/><path class="cls-69" d="M636.24,226.33c0,.84,0,1.67,0,2.5,0,.54-.26.82-.74.84-.74,0-1.48,0-2.22,0-.27,0-.36-.25-.39-.49C634,228.21,635,227.18,636.24,226.33Z"/><path class="cls-70" d="M657.1,168.29a.81.81,0,0,1,.28.74c0,.6,0,1.2,0,1.8a.52.52,0,0,1-.53.53q-1.25,0-2.49,0c-.11,0-.22-.14-.33-.22L656,169.3A5.79,5.79,0,0,1,657.1,168.29Z"/><path class="cls-71" d="M608.92,173.08c0,1.46,0,1.4-1.47,1.4h-1.92a18.82,18.82,0,0,1,2.6-2.68.72.72,0,0,1,.69-.18A6.41,6.41,0,0,1,608.92,173.08Z"/><path class="cls-72" d="M653.71,226.33c0,1,0,2,0,3.08h-3.07c-.15-.32.06-.46.21-.63A25.78,25.78,0,0,1,653.71,226.33Z"/><path class="cls-46" d="M647.51,247.17H644.3a3.35,3.35,0,0,1,1.44-1.53c.54-.42,1-.92,1.5-1.36.13.05.19.05.22.08a.2.2,0,0,1,0,.13c0,.89,0,1.79,0,2.68Z"/><path class="cls-73" d="M523.84,137c.34.28.22.57.22.82,0,1.46,0,2.91,0,4.36,0,.33,0,.66,0,1a.31.31,0,0,0,.44.2,16.29,16.29,0,0,0,1.54-1.2c.42-.39.92-.65,1.35-1a.28.28,0,0,1,.38,0c.18.17.07.36-.07.48a16.39,16.39,0,0,1-1.54,1.21,5.29,5.29,0,0,0-1.67,1.66.64.64,0,0,1-.82.34.65.65,0,0,1-.16-1,2.29,2.29,0,0,0,.22-1.22V138C523.8,137.67,523.82,137.35,523.84,137Z"/><path class="cls-74" d="M533.28,149.91a.83.83,0,0,1-.55.73c-.22.05-.62-.3-.68-.59a.59.59,0,0,1,.48-.6A.65.65,0,0,1,533.28,149.91Z"/><path class="cls-75" d="M513.56,144.32c0,.23-.26.51-.55.54s-.71-.25-.69-.54.4-.68.62-.68S513.54,144.06,513.56,144.32Z"/><path class="cls-76" d="M528.43,136a.61.61,0,1,1,0-1.22.7.7,0,0,1,.59.66A.79.79,0,0,1,528.43,136Z"/><path class="cls-77" d="M533,139a.58.58,0,0,1-.52.54.6.6,0,0,1-.7-.5.58.58,0,0,1,.52-.54A.6.6,0,0,1,533,139Z"/><path class="cls-78" d="M523.53,156.07a.58.58,0,0,1-.54-.52.6.6,0,0,1,.5-.7.58.58,0,0,1,.54.52A.6.6,0,0,1,523.53,156.07Z"/><path class="cls-79" d="M529.4,153.87a.5.5,0,0,1-.45.58.52.52,0,0,1-.62-.56.48.48,0,0,1,.52-.51A.48.48,0,0,1,529.4,153.87Z"/><path class="cls-80" d="M518.9,153.94a.62.62,0,0,1-.7.5.59.59,0,0,1-.52-.55.6.6,0,0,1,.7-.5A.58.58,0,0,1,518.9,153.94Z"/><path class="cls-80" d="M514.51,149.5a.62.62,0,0,1,0,1.22.62.62,0,0,1-.5-.7A.58.58,0,0,1,514.51,149.5Z"/><path class="cls-77" d="M534.05,144.85c-.25,0-.41-.29-.38-.63s.23-.57.48-.55a.6.6,0,0,1,.58.63A.67.67,0,0,1,534.05,144.85Z"/><path class="cls-77" d="M519.24,135.4a.53.53,0,1,1-.51-.55A.58.58,0,0,1,519.24,135.4Z"/><path class="cls-81" d="M524.05,134c0,.51-.17.69-.49.72s-.59-.18-.56-.46a.63.63,0,0,1,.66-.59A.41.41,0,0,1,524.05,134Z"/><path class="cls-82" d="M515.24,139a.57.57,0,0,1-.5.54.43.43,0,0,1-.51-.48c0-.24,0-.46.31-.53A.57.57,0,0,1,515.24,139Z"/><path class="cls-83" d="M584.77,203.22h8.42l.84,0a.3.3,0,0,1,.31.22c0,.27-.19.29-.37.3s-.65,0-1,0H576.28c-.28,0-.56,0-.84,0s-.42,0-.44-.23.29-.3.5-.31c.37,0,.75,0,1.12,0Z"/><path class="cls-83" d="M584.68,187.73H576c-.32,0-.66.09-.94-.15a.26.26,0,0,1,0-.24.32.32,0,0,1,.24-.13c.32,0,.65,0,1,0h16.85c.37,0,.74,0,1.11.07.06,0,.11.13.15.2a.15.15,0,0,1-.13.21,2.52,2.52,0,0,1-.54.08h-9Z"/><path class="cls-84" d="M584.57,186.3H576c-.32,0-.67.08-1-.15,0,0,0-.08,0-.12s0-.11,0-.13a.53.53,0,0,1,.25-.12c.37,0,.75,0,1.12,0q8.31,0,16.62,0c.44,0,1-.29,1.32.33-.38.38-.87.2-1.32.2C590.2,186.31,587.38,186.3,584.57,186.3Z"/><path class="cls-83" d="M584.52,183.22H576.1c-.33,0-.65,0-1-.07a.15.15,0,0,1-.13-.21.37.37,0,0,1,.14-.2.6.6,0,0,1,.27-.07H593.1c.37,0,.74,0,1.11.08a.15.15,0,0,1,.13.21c0,.07-.09.19-.14.2a4,4,0,0,1-.69.07h-9Z"/><path class="cls-85" d="M584.53,184.63h-8.74a3.44,3.44,0,0,1-.56,0,.25.25,0,0,1-.17-.16.29.29,0,0,1,.13-.22,1.49,1.49,0,0,1,.95-.14c1.32,0,2.63,0,4,0,4.27,0,8.55,0,12.82,0a2.19,2.19,0,0,1,1.24.14.32.32,0,0,1,.12.22.22.22,0,0,1-.16.16c-.38,0-.75,0-1.13,0Z"/><path class="cls-86" d="M578.76,175.46c1.08-.19,7.1-.26,10.77-.14.18,0,.37,0,.48.17-1.08.17-7.09.25-10.77.13C579.06,175.61,578.88,175.63,578.76,175.46Z"/><path class="cls-87" d="M588.27,174.35a55.28,55.28,0,0,1-7.5,0A38.7,38.7,0,0,1,588.27,174.35Z"/><path class="cls-72" d="M613.84,226.88h-8.31c-.38,0-.75,0-1.13,0-.17,0-.4,0-.36-.3s.16-.21.3-.22l.7,0H621.8c.43,0,.85,0,1.27,0a.27.27,0,0,1,.3.22c0,.19-.12.26-.24.27-.37,0-.75,0-1.12,0Z"/><path class="cls-72" d="M613.69,231.39H605.1a5.92,5.92,0,0,1-.84,0c-.13,0-.28-.09-.22-.27a.27.27,0,0,1,.17-.19,5.36,5.36,0,0,1,.7,0c.89,0,1.78,0,2.67,0H622c.42,0,.84,0,1.26.06.06,0,.12.12.16.19a.14.14,0,0,1-.12.22c-.37,0-.74.08-1.11.08Z"/><path class="cls-88" d="M613.63,228.3h-8c-.37,0-.75,0-1.12,0-.18,0-.42,0-.44-.23s.29-.29.5-.32.47,0,.7,0h16.91a8,8,0,0,1,1,0c.13,0,.28.07.24.27a.27.27,0,0,1-.3.22c-.37,0-.75,0-1.12,0Z"/><path class="cls-89" d="M613.56,235.91h-8c-.38,0-.76,0-1.13,0-.17,0-.41,0-.37-.3s.27-.22.44-.24H621.8c.43,0,.85,0,1.27,0,.14,0,.27.06.3.22s-.11.26-.23.28c-.38,0-.75,0-1.13,0Z"/><path class="cls-71" d="M613.84,238.71H622c.37,0,.75,0,1.12,0,.12,0,.29.07.24.27a.3.3,0,0,1-.31.22,5.12,5.12,0,0,1-.56,0H605.6a2.71,2.71,0,0,1-1.38-.14.29.29,0,0,1-.12-.22.25.25,0,0,1,.16-.17c.38,0,.75,0,1.13,0Z"/><path class="cls-90" d="M623.24,229.42c-1.22.33-17.73.34-19.07.19.18-.06-.13,0,0-.09s.07-.08.11-.08c5.91,0,11.82,0,17.73,0Z"/><path class="cls-91" d="M604.08,237.13c1.48-.16,18-.15,19.17,0,0,0,0,.07,0,.09s-.07.08-.11.08l-18.43,0A.66.66,0,0,1,604.08,237.13Z"/><path class="cls-92" d="M607.86,219.25a87.8,87.8,0,0,1,11.12-.17c-.17.06.14-.09,0,.08a.15.15,0,0,1-.11.08Z"/><path class="cls-93" d="M617.3,218a56.53,56.53,0,0,1-7.49.06A34.61,34.61,0,0,1,617.3,218Z"/><path class="cls-94" d="M612,189.29a.58.58,0,0,1-.48.59.52.52,0,0,1-.53-.51.56.56,0,0,1,.56-.5A.44.44,0,0,1,612,189.29Z"/><path class="cls-95" d="M633.17,190.45a.58.58,0,0,1-.55-.5.46.46,0,0,1,.48-.53c.35,0,.57.18.56.46A.58.58,0,0,1,633.17,190.45Z"/><path class="cls-96" d="M654.24,197.34a.43.43,0,0,1-.38.52c-.26,0-.48-.1-.52-.36a.46.46,0,0,1,.9-.16Z"/><path class="cls-97" d="M586.79,235.58a.54.54,0,0,1,.14-1.06.44.44,0,0,1,.5.49A.63.63,0,0,1,586.79,235.58Z"/><path class="cls-98" d="M576.2,218.94a.56.56,0,0,1-.57.49.56.56,0,0,1-.5-.56.52.52,0,0,1,.57-.47A.49.49,0,0,1,576.2,218.94Z"/><path class="cls-99" d="M633.34,171.9a.56.56,0,0,1,.63.56.62.62,0,0,1-.62.59.57.57,0,0,1-.54-.65A.53.53,0,0,1,633.34,171.9Z"/><path class="cls-100" d="M569.34,242.83a.85.85,0,0,1,.58.7.63.63,0,0,1-.72.5c-.28,0-.55-.33-.52-.56S569.1,242.81,569.34,242.83Z"/><path class="cls-101" d="M612.46,172.63a.41.41,0,0,1-.38-.34c-.05-.23.18-.5.39-.46a.37.37,0,0,1,.31.4A.39.39,0,0,1,612.46,172.63Z"/><path class="cls-102" d="M640.09,227.2a.41.41,0,0,1-.39.45.33.33,0,0,1-.35-.32.38.38,0,0,1,.74-.13Z"/><path class="cls-103" d="M651,244.66c.31,0,.47.27.38.51a.28.28,0,0,1-.31.21c-.23,0-.44-.34-.34-.51S651,244.72,651,244.66Z"/><path class="cls-104" d="M660.89,168.64a.49.49,0,0,1,.39.49c0,.24-.22.29-.39.3a.38.38,0,0,1-.39-.45C660.54,168.76,660.7,168.69,660.89,168.64Z"/><path class="cls-105" d="M657.25,227.69a.35.35,0,0,1-.38-.45.25.25,0,0,1,.27-.25.41.41,0,0,1,.4.46A.26.26,0,0,1,657.25,227.69Z"/><circle class="cls-106" cx="0.68" cy="227.79" r="79.84"/></svg>