<svg xmlns="http://www.w3.org/2000/svg" xmlns:xlink="http://www.w3.org/1999/xlink" viewBox="0 0 800 500"><defs><style>.cls-1,.cls-4,.cls-5{fill:none;}.cls-2{fill:#fff;}.cls-3{clip-path:url(#clip-path);}.cls-4{stroke:#fff;stroke-width:2px;opacity:0.29;}.cls-4,.cls-5{stroke-miterlimit:10;}.cls-5{stroke:#6a2c90;stroke-width:1.3px;opacity:0.54;}.cls-6{fill:url(#linear-gradient);}.cls-7{fill:#373f5a;}.cls-8{fill:#e0ebf5;}.cls-9{fill:#7daadb;}.cls-10{fill:#b4ceec;}.cls-11{fill:#2a5096;}.cls-12{fill:#f69649;}.cls-13{fill:#21407b;}.cls-14{fill:#ed7d2a;}.cls-15{fill:#99bfe5;}.cls-16{fill:#b6d1ee;}.cls-17{fill:#29478b;}.cls-18{fill:#193661;}.cls-19{fill:#243863;}.cls-20{fill:#aa453d;}.cls-21{fill:#1f3f72;}.cls-22{fill:#c3d8f0;}.cls-23{fill:#fab17e;}.cls-24{fill:#b7463e;}.cls-25{fill:#9dbae1;}.cls-26{fill:#243963;}.cls-27{fill:#fab17f;}.cls-28{fill:#f9b17f;}.cls-29{fill:#f9b17e;}.cls-30{fill:#253963;}.cls-31{fill:#e4783b;}.cls-32{fill:#e3925b;}.cls-33{fill:#fab280;}.cls-34{fill:#ad4940;}.cls-35{fill:#2a3b64;}.cls-36{fill:#b3574a;}.cls-37{fill:#345273;}.cls-38{fill:#b5d1ee;}.cls-39{fill:#5097d0;}.cls-40{fill:#1e3f72;}.cls-41{fill:#f9b07e;}.cls-42{fill:#283a63;}.cls-43{fill:#e9eaed;}.cls-44{fill:#a8b7cc;}.cls-45{fill:#ecf2f9;}.cls-46{fill:#fab27f;}.cls-47{fill:#efeff4;}.cls-48{fill:#b7d3ee;}.cls-49{fill:#575774;}.cls-50{fill:#eaf1f5;}.cls-51{fill:#b7453e;}.cls-52{fill:#f0f1f6;}.cls-53{fill:#ea955c;}.cls-54{fill:#fff8f3;}.cls-55{fill:#4b4a8a;}.cls-56{fill:#fddfc7;}.cls-57{fill:#fde3ce;}.cls-58{fill:#ee985f;}.cls-59{fill:#b05146;}.cls-60{fill:#cc9f94;}.cls-61{fill:#e2eaf7;}.cls-62{fill:#bb7368;}.cls-63{fill:#cbe3f6;}.cls-64{fill:#b6d2ee;}.cls-65{fill:#eaf2f6;}.cls-66{fill:#e5edf3;}.cls-67{fill:#2d3e67;}.cls-68{fill:#fdf9f6;}.cls-69{fill:#eff5fa;}.cls-70{fill:#bde3e0;}.cls-71{fill:#a4d5cf;}.cls-72{fill:#a3d5ce;}.cls-73{fill:#b8d4ef;}.cls-74{fill:#bbd5ef;}.cls-75{fill:#c2d9f0;}.cls-76{fill:#c3d9f0;}.cls-77{fill:#c1d8ef;}.cls-78{fill:#bfd6ee;}.cls-79{fill:#bed6ef;}.cls-80{fill:#c0d7ef;}.cls-81{fill:#bed6ee;}.cls-82{fill:#bfd7ef;}.cls-83{fill:#bdd5ee;}.cls-84{fill:#bcd5ee;}.cls-85{fill:#c1daf2;}.cls-86{fill:#b9d4ef;}.cls-87{fill:#b7d4f0;}.cls-88{fill:#bbd6f0;}.cls-89{fill:#bcd7f1;}.cls-90{fill:#c3daf1;}.cls-91{fill:#c3d9f1;}.cls-92{fill:#b7d3ef;}.cls-93{fill:#b6d3ef;}.cls-94{fill:#bbd8f1;}.cls-95{fill:#bcdaf3;}.cls-96{fill:#96bae2;}.cls-97{fill:#bed8f1;}.cls-98{fill:#85afdd;}.cls-99{fill:#bdd7f0;}.cls-100{fill:#edb14c;}.cls-101{fill:#f1a838;}.cls-102{fill:#c4dbf1;}.cls-103{fill:#bcd7f0;}.cls-104{fill:#ed974f;}.cls-105{fill:#c3dbf2;}.cls-106{fill:#eaa363;}.cls-107{fill:#c7dbf1;}.cls-108{opacity:0.11;fill:url(#linear-gradient-2);}</style><clipPath id="clip-path"><rect class="cls-1" x="1.04" y="-0.33" width="799.84" height="500.44"/></clipPath><linearGradient id="linear-gradient" x1="315.24" y1="583.97" x2="896.26" y2="-108.46" gradientUnits="userSpaceOnUse"><stop offset="0.02" stop-color="#fff" stop-opacity="0.99"/><stop offset="0.1" stop-color="#eae2ef" stop-opacity="0.99"/><stop offset="0.28" stop-color="#b497c8"/><stop offset="0.49" stop-color="#713996"/></linearGradient><linearGradient id="linear-gradient-2" x1="-40.66" y1="227.79" x2="116.6" y2="227.79" gradientUnits="userSpaceOnUse"><stop offset="1" stop-color="#713996" stop-opacity="0.93"/><stop offset="1" stop-color="#fff"/></linearGradient></defs><g id="Layer_1" data-name="Layer 1"><rect class="cls-2" x="1.04" y="-0.21" width="798.77" height="500.32"/></g><g id="Layer_2" data-name="Layer 2"><g class="cls-3"><rect class="cls-4" x="705.46" y="416.7" width="72.91" height="72.71"/><rect class="cls-4" x="680.8" y="393.18" width="72.91" height="72.71"/><path class="cls-5" d="M399.89,1.81c26.7,19,55.45,54.39,56.82,93,2.64,74.25-114.76,96.09-143.43,188.32-13.42,43.16-10.49,110.93,68.14,216.24"/><path class="cls-6" d="M801.24,500.82H389c-78.46-115.09-77.8-186-59.21-230.79C363.55,188.83,467.1,168,468.1,102c.64-42.63-42-78.22-79.07-102H801.24Z"/><path class="cls-7" d="M781.57,357.84H781c-.29,0-.57,0-.85,0-.75,0-.75,0-.94-.86,0-.17-.13-.34-.19-.52a2.24,2.24,0,0,1-2.27,1.05,31.44,31.44,0,0,0-3.22,0,3.25,3.25,0,0,1-2.58-.79,3.79,3.79,0,0,1-2.33.77c-4.49,0-9,0-13.48,0a2.94,2.94,0,0,1-2.17-.76,5,5,0,0,1-3.32.75c-4.54.06-9.08-.18-13.61.14a2.77,2.77,0,0,1-1.5.23l-7.15,0a3.16,3.16,0,0,0-2.15-.4c-4.2,0-8.41.07-12.61-.07-3.81.15-7.61.05-11.42.05-3,0-5.92.11-8.88-.06-1.62.06-3.24.14-4.87.1a6.08,6.08,0,0,1-1.28,0c-2.53,0-5,0-7.58-.05a5.13,5.13,0,0,1-2.05.36,86.45,86.45,0,0,1-9.25-.28q-8.17,0-16.36,0c-5.93,0-11.87,0-17.8,0h-89a8.64,8.64,0,0,1-1.83-.08c-.31-.1-.52-.38-.85-.44a5.47,5.47,0,0,1-2.1.49c-8.78.08-17.57,0-26.35,0-8.08-.07-16.16.15-24.24.25-7.85.09-15.71,0-23.57,0a4,4,0,0,1-1.53-.1l-.32-.36a58,58,0,0,1-7.57.15c-2.66,0-5.33.25-8-.24a9.29,9.29,0,0,1-1.81.26c-3.81,0-7.62.09-11.42-.08-1.07.09-2.15.06-3.22.1a21.36,21.36,0,0,0-4.45.15c-.51.38-1.09.2-1.63.2H422a5.53,5.53,0,0,1-.1,1.22H781.66A6.21,6.21,0,0,1,781.57,357.84Z"/><path class="cls-8" d="M529.16,196.21A21.57,21.57,0,0,1,528,203a13.71,13.71,0,0,1-1.87,3.75,16.16,16.16,0,0,1-3.57,3.53,24,24,0,0,1-8.64,3.6c-1.19.25-2.39.4-3.59.61a30.73,30.73,0,0,1-4.49.25,3.37,3.37,0,0,0-.84.07,8.37,8.37,0,0,1-3.76,0,7.91,7.91,0,0,0-1.82-.09,26.73,26.73,0,0,1-5.85-.69,28.9,28.9,0,0,1-5.89-1.82,1,1,0,0,0-1.11.23c-1.38,1.05-2.6,2.29-3.9,3.43a41.6,41.6,0,0,0-4.07,3.68c-.37.42-.68.49-.8.31s0-.53.09-.79q1.83-4.49,3.64-9c.07-.17.08-.37.16-.53a1.32,1.32,0,0,0-.34-1.76A15.82,15.82,0,0,1,478,203a27.45,27.45,0,0,1-1.75-5.61,31.53,31.53,0,0,1-.54-7.81,16.28,16.28,0,0,1,.53-3.17,17.56,17.56,0,0,1,3.66-7.5,17.93,17.93,0,0,1,2.74-2.62,25.83,25.83,0,0,1,3.4-2.23,20.69,20.69,0,0,1,4.4-1.84l1.75-.5a25.56,25.56,0,0,1,3.57-.69c2.77-.44,5.54-.16,8.31-.24a5.94,5.94,0,0,1,2.51.23.83.83,0,0,0,.28,0,19.94,19.94,0,0,1,5.25.86,22.2,22.2,0,0,1,8.29,3.72,19,19,0,0,1,2.77,2.55,21.41,21.41,0,0,1,2.43,3.26,23.88,23.88,0,0,1,2.15,5c.48,1.52.64,3.1,1,4.64a4.54,4.54,0,0,1,.05,1,3.31,3.31,0,0,0,0,.84A11.28,11.28,0,0,1,529.16,196.21Z"/><path class="cls-9" d="M678.55,357.64c-.18.29-.48.24-.76.24l-8.75,0-1.69,0a1.14,1.14,0,0,1-.31-.44c-.22-1.67-.32-3.36-.4-5-.32-6.79-.74-13.56-1.09-20.34q-.34-6.53-.67-13.05c-.25-5.43-.66-10.85-.84-16.28-.06-1.52-.36-1.78-1.89-1.8-2.82,0-5.65,0-8.47,0-8.22.1-16.44,0-24.66,0-4.84,0-9.68.06-14.52,0-.85.07-1.69,0-2.54,0h-53.2c-.7,0-1.41,0-2.11-.05-11.39.08-22.77,0-34.15,0-.57,0-1.13,0-1.7,0a1.19,1.19,0,0,0-1.39,1.2c-.33,2.89-.36,5.8-.52,8.7-.08,1.42.16,1.56,1.65,1.59s2.73,0,4.1,0c2.77.11,5.55-.08,8.33,0a3.4,3.4,0,0,1,2,.36c-.06,1-.88.77-1.42.79-2.48.07-5,0-7.45,0h-6c-1.06,0-1.54.48-1.53,1.53,0,.84,0,1.68,0,2.52-.45,6.82-.74,13.65-1.14,20.47-.35,5.84-.57,11.69-1,17.52-.1,1.37.08,1.58,1.61,1.58,6.91,0,13.82,0,20.73,0a1.08,1.08,0,0,1,1.15.43.47.47,0,0,1-.46.25l-1.27,0H517.28c-1.4,0-2.81,0-4.22-.07a.8.8,0,0,1,.1-.5,6,6,0,0,0,.56-2.87c-.18-7.23.18-14.46.38-21.68.16-5.43-.15-10.89.45-16.31a3,3,0,0,0,0-.42c.06-2.39,0-2.48-2.39-2.48a7.85,7.85,0,0,1-.84,0c-1.37,0-2.73.07-4.1,0-.59,0-1.26.08-1.6-.61.46-.65,1.17-.5,1.8-.51,1.88,0,3.76,0,5.64,0,1.06,0,1.52-.37,1.52-1.47a71.75,71.75,0,0,1,.23-8.42c.17-1.4-.13-1.6-1.56-1.65h-.71c-3.91.09-5-2.18-4.24-5.9a2.32,2.32,0,0,1,2-1.94c13.38-.05,26.76,0,40.14,0a5,5,0,0,1,.54.07c.47,0,.94.07,1.41.07h37.37c.38,0,.75,0,1.13,0a.54.54,0,0,0,.44-.3,2.86,2.86,0,0,1,1.39-.16c5.22,0,10.45,0,15.67,0,5.69,0,11.38.14,17.08.18-1.68,0-3.36,0-5,0-.43,0-1.11.22-1.1-.63a2.72,2.72,0,0,1,1.76-.37h4.66a5.26,5.26,0,0,1,2.85.58,3.83,3.83,0,0,0,2.07.26c6.59,0,13.21-.42,19.75.11,7.63.63,15.25.3,22.87.51a1,1,0,0,1,.27.09,2.24,2.24,0,0,1,1.71,2.42c0,.75,0,1.5,0,2.25a2.22,2.22,0,0,1-1.55,2.12,3.89,3.89,0,0,1-1.66.26c-1.18,0-2.35,0-3.53,0-.37,0-.51.18-.48.52.23,3.42,0,6.85.18,10.26.23,4.92.08,9.85.32,14.76.21,4.17,0,8.34.26,12.5.28,4.45.09,8.91.29,13.35.08,1.68.16,3.37.21,5.05,0,.65.13.8.71.8q3.6,0,7.2,0a.56.56,0,0,0,.57-.32C678.15,357.17,678.38,357.35,678.55,357.64Z"/><path class="cls-10" d="M752.69,262.39c0-.66,0-1.31,0-2a.52.52,0,0,0-.53-.54c-.85,0-1.7-.05-2.54,0a2.46,2.46,0,0,1-2.48-1.49,7.92,7.92,0,0,1-.94-3.77c0-1,0-2,0-3a26.64,26.64,0,0,1,.66-6c.38-2,.81-3.93,1.35-5.86a40.54,40.54,0,0,1,3.07-8.43,4.77,4.77,0,0,1,2.63-2.39,17.41,17.41,0,0,1,5.17-1.27c.54,0,.65-.16.69-.69,0-.14,0-.28,0-.42,0-1.11,0-1.11,1.12-1.64,1-.77,2-.45,3-.19a3.63,3.63,0,0,1,1.52,1.41c.3.59.51,1.21.76,1.82.87,2.11,1,2.14,3.2,2.19a4.94,4.94,0,0,0,4.9-2.75,32.57,32.57,0,0,1,6.56,1.45,15.9,15.9,0,0,1,4.67,2.26,5.41,5.41,0,0,1,2.35,3.05,6.32,6.32,0,0,1,.09,2.37,20.56,20.56,0,0,1-1.32,4.57,33.42,33.42,0,0,1-2.63,4.94,13.47,13.47,0,0,1-1.27,1.68,2.65,2.65,0,0,0-.69,1.92,26.32,26.32,0,0,0,.05,2.67c.22,1.53.13,3.08.31,4.61.15,1.26.08,2.52.26,3.76.24,1.59.09,3.19.31,4.75.17,1.21.12,2.42.25,3.63.16,1.53.26,3.06.29,4.61,0,.54.27,1.08.25,1.65a1.57,1.57,0,0,1-.39,1.17,2,2,0,0,0-.51,1.4,4.5,4.5,0,0,0-2.36,0,91.65,91.65,0,0,1-16.58,2.29,24.19,24.19,0,0,1-3.51-.28c-3-.27-6-.79-8.55-2.61a7.7,7.7,0,0,1-.13-1.1c0-1.68.28-3.34.43-5,.18-1.91.19-3.82.24-5.72a.85.85,0,0,1,.25-.63c.37,1.38,1.2,1.46,2.51,1.18a72,72,0,0,0,13.61-4.16,16.3,16.3,0,0,0,5.54-3.74.83.83,0,0,1,.49-.48c2.62-.93,3.42-3,3.48-5.52a4.2,4.2,0,0,1,1.3-1.42,27.43,27.43,0,0,1-6,2.16,4.1,4.1,0,0,1-3.56-1.34,21.42,21.42,0,0,1-4.83-6.54,68.76,68.76,0,0,1-4.9-12.21,73.45,73.45,0,0,0,1.26,8.18c1,3.85,2.2,7.57,4.78,10.72,1.56,1.91,3.3,3.45,5.87,3.74a22.27,22.27,0,0,1,1.94,3,3.45,3.45,0,0,1-2,.73,76.23,76.23,0,0,1-15.6,1.1c-.52,0-1,0-1.56,0-.95,0-1.67.16-1.72,1.32C753.3,262,753.21,262.37,752.69,262.39Z"/><path class="cls-11" d="M688.36,349.72a2.86,2.86,0,0,1,0-2.31c2.86-8.93,5.38-18,7.65-27.05q2.91-11.66,5.25-23.45c.41-2.12.83-4.23,1.25-6.35.61-.34,1.19,0,1.75.16a16.31,16.31,0,0,0,3,.73c1.49.19,2-.22,2-1.7.05-2.85,0-5.69,0-8.54a9.1,9.1,0,0,1,.64-4,1.45,1.45,0,0,1,1.22-.1,29.7,29.7,0,0,0,8.76.88,3.38,3.38,0,0,1,1.51.21c.66.45.69,1.18.81,1.86.51,2.85,1,5.71,1.53,8.55.72,3.61,2.16,4.89,5.86,5.26a2.8,2.8,0,0,1,1.81,1.66,14.16,14.16,0,0,1,1.47,7.91c-.5,5.61-1.41,11.16-2.19,16.73-1.14,8.13-2.25,16.26-3.92,24.31a29.58,29.58,0,0,1-1.17,4.34,2.87,2.87,0,0,1-1.25,1.65,4.33,4.33,0,0,1-2.34.08c-1.34-.39-1.59-1.5-1.7-2.65-.26-2.84-.49-5.7-.57-8.55-.16-5.62-.47-11.24-.34-16.87.12-5.45-.7-10.85-.9-16.28,0-.33-.16-.63-.19-1,.07-3.79-.67-7.56-.51-11.45-4.12,7.89-7.76,15.88-9.61,24.56a72,72,0,0,1-7.6,19.18,121.86,121.86,0,0,1-7.17,11.63c-.37.54-.66,1.15-1.36,1.38a7.26,7.26,0,0,1-2.63,0C689,350.51,688.48,350.33,688.36,349.72Z"/><path class="cls-12" d="M425.47,344.62c.09-2.34.13-4.69.28-7A99.75,99.75,0,0,1,427,327.4a128.64,128.64,0,0,1,3.95-15.81,40.77,40.77,0,0,0,1.62-8.83c.24-3,.46-6.07.59-9.12q.23-5.62.54-11.24c.14-2.72.31-5.43.54-8.14a15.56,15.56,0,0,1,1.22-4.32,10,10,0,0,0,.8-2.09c1,0,1.47.88,2.09,1.45,1.91,1.74,1.89,1.76,3.65-.07a48.53,48.53,0,0,1,4.07-4.41c1,.21,1.6-.32,2-1.22.28-.64.34-1.46,1.16-1.77,2-.1,4,.35,6,.09.94.23,1.92.25,2.85.55a36.42,36.42,0,0,1,1.33,10.84,6.52,6.52,0,0,1-.93,2.93c-3.22,5.53-5.15,11.57-6.89,17.67a133.05,133.05,0,0,0-3.78,17.9,3.33,3.33,0,0,1-.17.82,17.47,17.47,0,0,0-1.21,7.7,1.43,1.43,0,0,1-.2.82c-.7.45-.68-.23-.74-.54a5.3,5.3,0,0,1,.17-2.62,75.24,75.24,0,0,1-3.85,9.12q-4.06,8.86-8.48,17.58a3.64,3.64,0,0,1-3.09,2.3,6.42,6.42,0,0,1-3.92-1.17A1.62,1.62,0,0,1,425.47,344.62Z"/><path class="cls-13" d="M760.32,279.67c.94,0,1.87.1,2.81.09a67.54,67.54,0,0,0,13.52-1.42l5.35-1.13c.49-.11.49-.11.73.49a1.49,1.49,0,0,0,.14.24c.14,3.05.12,6.09,0,9.14-.19,3.93-.38,7.86-.61,11.8-.14,2.39,0,4.78-.06,7.17-.07,4.83-.28,9.65-.58,14.47-.12,1.83-.21,3.65-.33,5.48-.31,5.14-.61,10.29-1,15.44-.3,4.44-.66,8.88-1,13.32,0,.41,0,.86-.38,1.16-1.81.76-3.7.39-5.56.33a8.29,8.29,0,0,1-2.08-.34,2.19,2.19,0,0,1-1.17-2q-2-14.46-4-28.93c-.44-3.15-.92-6.3-1.3-9.45-.08-.41-.14-.81-.23-1.21-1.1-9-2.44-18-3.68-27q-.42-3.06-.83-6.12C760,280.71,759.84,280.13,760.32,279.67Z"/><path class="cls-2" d="M495,291.43c-.29-.15-.58-.31-.88-.44a2.73,2.73,0,0,1-1.66-2.26,8.36,8.36,0,0,0-.27-1.65,1.83,1.83,0,0,1,0-.84c.2-1,.2-1.94.33-2.9a48.31,48.31,0,0,1,1.07-5.46c.41-1.62.83-3.24,1.4-4.82-.35-.57,0-1.1.13-1.62a61.68,61.68,0,0,1,4.31-10.24,8.29,8.29,0,0,1,4-3.82,17.82,17.82,0,0,1,7.63-1.77,29.22,29.22,0,0,1,3.33,1.5c1.84.76,3.62,1,5.21-.55a12.83,12.83,0,0,1,8.45,3.23.87.87,0,0,1,.33,1.12c0,.09,0,.2,0,.27a17.73,17.73,0,0,1,1.4,4.24q1,3.42,2,6.86c.36.53,0,1-.16,1.45-1.9,4.72-3.86,9.42-5.73,14.15-.19.46-.32,1-.92,1.16a1.9,1.9,0,0,1-1.18-.36,8,8,0,0,0-5.18-1.11,6.52,6.52,0,0,1-2.84-.68c-1.59-.69-3.13-1.5-4.73-2.14-3.1-1.22-4.42-3.57-4.75-6.68a10,10,0,0,0-.35-2c-.93,1.19-1.52,2.46-2.35,3.59-.6.84-1.08,1.75-1.63,2.63s-.38,1.29.61,1.48a9,9,0,0,1,1.22.37,58.17,58.17,0,0,1,10,2.24,2.91,2.91,0,0,1,2.06,1.54,5,5,0,0,1,.19,2.74,1.62,1.62,0,0,1-.38,1.12c-.91.52-2,.08-2.91.48-2.67.38-5.36.31-8,.59a30.18,30.18,0,0,1-8.52-.76,4,4,0,0,1-.8-.41C495.2,291.62,495.09,291.52,495,291.43Z"/><path class="cls-14" d="M446,321.34a21.49,21.49,0,0,0,0-3.93,3.42,3.42,0,0,1,.15-1.36c.12-.4.3-.79.42-1.19a20.17,20.17,0,0,0,.95-4.08,41.83,41.83,0,0,1,.82-4.82c.6-2.87,1.21-5.74,1.91-8.59a104,104,0,0,1,4.74-14.8c.66-1.6,1.31-3.2,2.12-4.73.39-.75.84-1.46,1.23-2.21a6.1,6.1,0,0,0,.71-3,11,11,0,0,0-.26-3.48,33.36,33.36,0,0,0-.83-5.8,6.42,6.42,0,0,1,0-1c-.16-.49.19-.65.51-.84.84-.15,1.62-.7,2.52-.33a146.06,146.06,0,0,1,3.9,14.38,15.47,15.47,0,0,1,.24,5.17c-.38,3.07-.64,6.16-1,9.23-.39,3.35-.85,6.7-1.28,10.05s-.82,6.42-1.24,9.62-.82,6.14-1.24,9.2c-.33,2.42-.67,4.83-1,7.25-.42,3-.83,6-1.25,9.06s-.86,6-1.29,9.05c-.11.74-.24,1.48-.3,2.23a4.67,4.67,0,0,1-2,3.44l-1.12.84a1.5,1.5,0,0,1-1.57.69,6.7,6.7,0,0,1-4.43-1.76c-.67-1.27-.46-2.68-.56-4-.26-3.64-.53-7.29-.69-10.94-.17-3.8-.53-7.58-.55-11.38A2.82,2.82,0,0,1,446,321.34Z"/><path class="cls-10" d="M482.26,248.85c0,.28,0,.56,0,.84a2,2,0,0,1-.56,1.53,33.8,33.8,0,0,1-5.14,4.72,20.74,20.74,0,0,1-3.09,1.63,6.65,6.65,0,0,1-6.76-4.25,17.37,17.37,0,0,0-2.77-4.54c-.61,2-.74,3.91-1.46,5.69a1,1,0,0,0-.45.67,14,14,0,0,0-.74,2.52c-.77,1.07-2,1.21-3.12,1.49a3.3,3.3,0,0,0-3,.19,11,11,0,0,1-3.14-.06c-.81-.4-.4-.9-.1-1.38.73-1.16,1.81-2,2.63-3.11.95-1.26,1-1.31-.2-2.37-2.44-2.12-4.85-4.27-7.33-6.35-1.08-.91-2.12-1.85-3.18-2.77-.6-.52-1.05-.51-1.54.07-1.86,2.16-3.88,4.2-5.59,6.49-.88,1.17-.78,1.76.24,2.83,1.82,1.9,3.84,3.58,5.8,5.33.72.65,1.58,1.19,1.87,2.21a3.33,3.33,0,0,1-1,2.36,1.48,1.48,0,0,1-1.33.28,35.77,35.77,0,0,1-12.4-4.84,1.56,1.56,0,0,1-.49-.5c0-.13-.08-.31-.18-.37a10.17,10.17,0,0,1-2-2.14,4.62,4.62,0,0,1-.82-2.05,1.59,1.59,0,0,1,.12-.67,44.15,44.15,0,0,1,1.94-5.26c.74-1.66,1.41-3.36,2.13-5s1.38-3.17,2.08-4.75c.45-1,.93-2,1.37-3.07a3.2,3.2,0,0,0,.14-.82,10.05,10.05,0,0,1,8.56-4.93,20.28,20.28,0,0,0,5.13,2.85,11.33,11.33,0,0,0,10.17-1.5,4.9,4.9,0,0,1,1-.56,6.9,6.9,0,0,1,6.23,3.3,41.17,41.17,0,0,1,2.3,5.58,1.18,1.18,0,0,0-.05.81c.67,1.64,1.28,3.31,1.94,5,.48,1.21,1,2.41,1.52,3.61a4.84,4.84,0,0,0,.48.86,1.15,1.15,0,0,0,1.23.47c2-.37,4-.71,6-1.08a16.86,16.86,0,0,0,1.77-.4,3.34,3.34,0,0,1,1.25-.13C482.37,247.6,482.67,248.11,482.26,248.85Z"/><path class="cls-15" d="M615.9,161.5h57.79c.47,0,.95,0,1.42,0s.68.16.71.66,0,.85,0,1.27q0,26.42,0,52.83,0,23.25,0,46.49c0,2,.17,1.87-1.92,1.87H558.05c-.38,0-.76,0-1.13,0-.65,0-.86-.23-.9-.84,0-.43,0-.85,0-1.27V163.19c0-1.77-.11-1.69,1.68-1.69Z"/><path class="cls-12" d="M729.6,294.15l-.28,0a5.37,5.37,0,0,1-5.79-4.73c-.58-3.12-1.11-6.25-1.67-9.37-.09-.55-.23-1.09-.35-1.63a2.25,2.25,0,0,1-.55-1.27L719,265.68a2.6,2.6,0,0,1,0-1.24c.49-1,1.34-.64,2.1-.54,1.55.2,1.56.22,1.3-1.25a9.34,9.34,0,0,1-.13-1.4c0-2,0-2-2.14-2.13-1,0-1.93,0-2.25-1.22a47.92,47.92,0,0,1-1-6.52,11.9,11.9,0,0,1,.8-5.38c1.37-3.74,2.82-7.46,4.53-11.06.11-.19.24-.38.36-.56A1.93,1.93,0,0,1,723,234a1.37,1.37,0,0,1,.58-.35,15.75,15.75,0,0,1,9.85,3.47,5.43,5.43,0,0,1,1.69,2.38,21.77,21.77,0,0,1,1.38,8.49,3.1,3.1,0,0,0-.07,1.25,51.7,51.7,0,0,1-.14,10.48,21.15,21.15,0,0,1-1,4.63,1.7,1.7,0,0,1-1.56,1.35l-.7.07a6.11,6.11,0,0,1-3.83.57c-.37,0-.73-.15-1.11-.18s-1-.24-1.34.14.11.88.32,1.27a18.88,18.88,0,0,0,7.43,7.68,4.75,4.75,0,0,1,1.54,1.2,19.91,19.91,0,0,1,1,2.92c1,3.38,2.08,6.77,3.14,10.14.38,1.23.32,1.21-.77,1.63l-2.09.79a3.44,3.44,0,0,0-1.13.53A11.22,11.22,0,0,1,729.6,294.15Z"/><path class="cls-13" d="M744.7,353.65a2.41,2.41,0,0,1-.17-1.91c.58-2.66,1.08-5.32,1.49-8,.46-3.05.91-6.11,1.31-9.18s.72-5.85,1-8.79c.26-2.51.47-5,.67-7.55.26-3.18.5-6.35.73-9.53.12-1.73.23-3.46.31-5.19.14-2.76.25-5.52.38-8.29.09-1.91.2-3.83.3-5.75.89.13,1,.94,1.25,1.53,3.56,7.8,7.77,15.27,11.31,23.07.45,1,1.05,1.88,1.45,2.88a80.09,80.09,0,0,1-2.15,14,154.26,154.26,0,0,1-7.13,22.1c-.53,1.25-.84,2.76-2.48,3.21-2.76.37-5.12-.91-7.58-1.81A1.07,1.07,0,0,1,744.7,353.65Z"/><path class="cls-16" d="M673.56,293.35l-6.92,0H655.9a9.41,9.41,0,0,1-2.8-.21,4.49,4.49,0,0,0-1.27,0H628.66a.56.56,0,0,1-.56-.34.72.72,0,0,0-.75-.52c-2.68,0-5.36-.1-8,.07-.73,0-1-.54-1.17-1-1.29-3-2.42-6.08-3.7-9.1-.12-.3-.21-.63.09-.9a.6.6,0,0,0,.52-.4,8.42,8.42,0,0,1,2.42-3.57,9.42,9.42,0,0,1,4.74-2.27,24.16,24.16,0,0,1,4.49-.24c5.7,0,11.39,0,17.08,0a10.59,10.59,0,0,1,5.14,1.22,9,9,0,0,1,4.45,5.71,11,11,0,0,1,.41,3c0,2.21,0,4.41,0,6.62,0,.32,0,.65,0,1,0,.54.16.68.66.71s.76,0,1.13,0c5.51,0,11,0,16.52,0C672.58,293.1,673.12,292.94,673.56,293.35Z"/><path class="cls-17" d="M614.53,281.28c.89,2.24,1.79,4.49,2.69,6.73.5,1.26,1,2.51,1.52,3.76.1.27.23.51.57.54a2.71,2.71,0,0,0,1.38.14h5.92a1.84,1.84,0,0,1,1,.12.54.54,0,0,1,.13.22c0,.11,0,.18-.11.23a2.07,2.07,0,0,1-1.1.12l-8.18,0H593.07c-.6,0-1.24.16-1.74-.34q-2.05-5.16-4.12-10.32L583.79,274c-.13-.3-.25-.61-.36-.92s0-.55.34-.57.47,0,.71,0h25.28l.84,0a.48.48,0,0,1,.44.3c.13.3.25.6.37.91q1.38,3.39,2.77,6.77C614.28,280.77,614.41,281,614.53,281.28Z"/><path class="cls-18" d="M467.54,238.11c-.33,0-.45-.28-.56-.55-.36-.91-.72-1.81-1.09-2.72-.17-.43-.4-.85-.53-1.29a5.25,5.25,0,0,0-3.45-3.41,8.33,8.33,0,0,0-2.81-.81c-3,.11-4.42-2-4.65-4.53,0-.77-.13-1.57.5-2.2,2.26-.28,2.88-1.95,3.29-3.83a16.17,16.17,0,0,0,.42-5.71,6.42,6.42,0,0,0-1.52-3.43c-.78-.88-1.24-.83-1.81.21a21,21,0,0,1-1.93,2.94,7.45,7.45,0,0,1-4.17,2.71c-1.72.45-2,.8-1.48,2.57a12.64,12.64,0,0,1-.75,8.25,3.81,3.81,0,0,1-4.3,2.38,10.89,10.89,0,0,0-7.8,4.08c-.2.24-.32.59-.72.6a12.64,12.64,0,0,1-.4-6.65A46.08,46.08,0,0,1,438,214a47.52,47.52,0,0,1,4.45-7.65,17.4,17.4,0,0,1,2.47-2.88,6.8,6.8,0,0,1,6.14-1.71,6.14,6.14,0,0,0,1.54.09,8.61,8.61,0,0,1,7.34,3.48,16.12,16.12,0,0,1,3.07,7,14.64,14.64,0,0,1,.25,3.5c0,1,0,2,0,2.95a12.28,12.28,0,0,0,2.27,6.84c.47.69,1,1.35,1.55,2a16.27,16.27,0,0,1,2,3,8.61,8.61,0,0,1,.72,2,4.91,4.91,0,0,1-1.56,4.85Z"/><path class="cls-12" d="M524.91,288.89a31.82,31.82,0,0,0,1.54-3.61q2.64-6.5,5.25-13c.38,0,.75,0,1.13,0h26.4c.19.56-.13.95-.3,1.35-1.62,4.05-3.26,8.08-4.88,12.13-.9,2.21-1.77,4.44-2.66,6.66a.83.83,0,0,1-.17.21c-2.81.18-5.62.07-8.44.08-5.58,0-11.16,0-16.75,0a7.39,7.39,0,0,1-1.82-.09,1.35,1.35,0,0,1-.45-.22,1,1,0,0,1-.22-.65,2.18,2.18,0,0,1,.26-.78,5.3,5.3,0,0,0,.28-.65c.08-.21.17-.42.27-.62a3.11,3.11,0,0,1,.32-.56Z"/><path class="cls-19" d="M511.1,255.83a23.49,23.49,0,0,0-5.93,1.2,19.85,19.85,0,0,0-2.07.89,7.48,7.48,0,0,0-3.13,2.95,42,42,0,0,0-2.18,4.41,76.14,76.14,0,0,0-2.85,7.78c-.42-.08-.59-.44-.8-.75a10.33,10.33,0,0,1-1.26-9.27,13.93,13.93,0,0,1,3.08-5.16,26.14,26.14,0,0,1,3.68-3.29l2.57-2a9.14,9.14,0,0,0,3.77-7,8.11,8.11,0,0,1,.23-1.38,20,20,0,0,1,4.07-8,11,11,0,0,1,2.87-2.47,6.92,6.92,0,0,1,4-1,31.69,31.69,0,0,1,5.3.79,7.26,7.26,0,0,1,4.63,3.42,23.42,23.42,0,0,1,2.52,5.78,34,34,0,0,1,1.49,10.69,18.54,18.54,0,0,1-.85,5.12,9,9,0,0,1-1.18,2.39c-.19.28-.29.27-.76-.1a3.24,3.24,0,0,0-1.35-1.55,12.25,12.25,0,0,0-2.85-1.48,27.05,27.05,0,0,0-4.58-1.27.63.63,0,0,1-.23-.37c0-.81,0-1.64.84-2.14,1.55.21,2.4-.61,3.1-1.89a12.43,12.43,0,0,0,1.55-7.32,6,6,0,0,0-.31-1.51c-.46-1.22-.75-1.32-1.84-.64a27.36,27.36,0,0,1-4,2.29,8.82,8.82,0,0,1-3.84.82c-1-.07-1.44.45-1.55,1.39a5.67,5.67,0,0,0,0,1.54,10.86,10.86,0,0,1-1.07,6A1.49,1.49,0,0,1,511.1,255.83Z"/><path class="cls-20" d="M736.45,248c-.14-.77-.33-1.54-.41-2.32a40.57,40.57,0,0,0-.83-4.53,7.44,7.44,0,0,0-4.12-5.18,19.37,19.37,0,0,0-5.29-1.76,9.62,9.62,0,0,0-2.5-.31,1.08,1.08,0,0,1-.81-1c-.17-1.94-.79-3.87-.09-5.83a5.27,5.27,0,0,0,.22-1.94c0-.63-.23-1.11-.92-1.2-2.59-.31-4.07-2.13-5.5-4a14.09,14.09,0,0,1-.91-1.41c-.68-1.16-.89-1.15-1.6.06a18.37,18.37,0,0,0-1.14,3.6c-.19.57-.19,1.37-1.12,1.35a9.35,9.35,0,0,1-.82-3.68,4.65,4.65,0,0,1,1.91-4.16,2.55,2.55,0,0,0,1-1.19,4.29,4.29,0,0,1,3.95-2.9,1.55,1.55,0,0,0,.69-.12,1.62,1.62,0,0,1,1.61,0,1.28,1.28,0,0,0,1.08,0,5.18,5.18,0,0,1,.82-.21,5.45,5.45,0,0,1,5.71,1.85A9.71,9.71,0,0,1,729,215.9a22.1,22.1,0,0,1,1.61,8.8c0,.84,0,1.69,0,2.53a7,7,0,0,0,3,5.61,10.81,10.81,0,0,0,1.44.9,6.31,6.31,0,0,1,3.44,5.59,12.77,12.77,0,0,1-.34,3.49A22.59,22.59,0,0,1,736.45,248Z"/><path class="cls-19" d="M764.47,316.77a2.33,2.33,0,0,1-.77-1.15c-1-2-1.92-4.06-2.92-6.06-2.48-5-5-10-7.49-15-.69-1.38-1.31-2.79-2-4.18a2.63,2.63,0,0,0-.58-1,15,15,0,0,1,.06-3.07,80.38,80.38,0,0,1,1-8.32,5.51,5.51,0,0,0,.06-.7c.19,0,.41-.06.55,0a19.62,19.62,0,0,0,7.77,2.25l.13,0a18.53,18.53,0,0,0,.36,3.05c.11,1.24.43,2.46.5,3.72a15.29,15.29,0,0,0,.34,2.35,14.09,14.09,0,0,0,.45,2.75c.06,1.73.55,3.4.63,5.13a18.73,18.73,0,0,0,.44,2.75c.15.73.13,1.47.31,2.21a22.07,22.07,0,0,1,.35,3.05c.06.74.25,1.46.33,2.2.16,1.62.57,3.21.72,4.83a8.5,8.5,0,0,1,.14,2.89,2.17,2.17,0,0,1,.08.84A1.19,1.19,0,0,1,764.47,316.77Z"/><path class="cls-12" d="M710,277.29a14.47,14.47,0,0,0-.17,2.94c-.06,2.95-.07,5.91-.1,8.86,0,.47,0,.94,0,1.41a1.28,1.28,0,0,1-1.35,1.45,5.34,5.34,0,0,1-1.54-.11,26.7,26.7,0,0,1-4.31-1.28,1.12,1.12,0,0,1-.33-.88c.33-2.44.67-4.89.95-7.35.26-2.22.45-4.45.68-6.68.07-.74.15-1.48.22-2.22a2.64,2.64,0,0,0-1.94-1.63,3.8,3.8,0,0,1-2.55-1.8.58.58,0,0,1-.22-.74c.29-.73.56-1.48.89-2.2a11.86,11.86,0,0,0,.91-3.08c.16-1,.29-2,.43-3,.29-.88,1.19-.69,1.8-1,2.39-.59,4.27,1.05,6.44,1.46.33.06.47.42.55.75.23,4.67.08,9.34.08,14A1.56,1.56,0,0,1,710,277.29Z"/><path class="cls-16" d="M495,291.43h.24c.16.17.42.1.58.25a16.48,16.48,0,0,0,4.13.59,2.09,2.09,0,0,1,.56,0,18.23,18.23,0,0,0,4,.26c.4.42.18.89.05,1.32a39.51,39.51,0,0,0-1.76,9.79c-.12,2.85,0,5.73,1.83,8.19a1,1,0,0,1,.27.9c-.48.6-1.17.5-1.81.51-1.82,0-3.64.05-5.46,0-1.25-.05-2.11.21-2.06,1.69a.89.89,0,0,1-.36.72,1,1,0,0,1-.28-.9c0-1,0-2,0-2.95V293.11C495,292.55,495,292,495,291.43Z"/><path class="cls-15" d="M495.23,315.65c0-.75,0-1.5,0-2.25a.52.52,0,0,1,.51-.55c.38,0,.76,0,1.13,0h6.77c.41,0,.87.12,1.17-.29s.67-.09.84.3.67.28,1,.28l4.63,0c-.37,1.22-1,2.41-.07,3.69.34.49-.16.74-.61.83a9.93,9.93,0,0,1-1.81.06c-2.48,0-4.95,0-7.43,0-.85,0-1.38.24-1.24,1.21-.09,4.63-.49,9.25-.75,13.88-.2,3.41-.43,6.82-.58,10.24-.18,4.21-.55,8.41-.68,12.62,0,1.19.32,1.56,1.49,1.54,3.67-.05,7.34,0,11,0a6.45,6.45,0,0,1,2,.16.92.92,0,0,1,.42.33.66.66,0,0,0,0,.14c-.51,0-1,.06-1.55.06-4.88,0-9.77,0-14.66,0q-15.94,0-31.88,0c-.44,0-.94.2-1.32-.21l1.55,0h29.38c1.74,0,1.32,0,1.73-1.54a5.2,5.2,0,0,0,0-1.12c0-2.54,0-5.07,0-7.61a13.72,13.72,0,0,1,.22-3.5,4.64,4.64,0,0,0,0-1.12c0-2.54,0-5.07,0-7.61a13.08,13.08,0,0,1,.21-3.36,4.63,4.63,0,0,0,0-1.12c0-3,0-5.91,0-8.87a7.37,7.37,0,0,1,.19-2.24,6.22,6.22,0,0,0,.06-1,1.32,1.32,0,0,0-.86-1.56A1.72,1.72,0,0,1,495.23,315.65Z"/><path class="cls-12" d="M702.07,258.14c.22-1.67.41-3.33.66-5,.43-2.86.89-5.71,1.36-8.57.17-1,.4-2,.63-3a6.64,6.64,0,0,1,2.53-3.77,19.24,19.24,0,0,1,4.22-2.48,4.11,4.11,0,0,0,1.48-.77.8.8,0,0,1,.39-.36,4.83,4.83,0,0,1,.52-.23c.56-.09,1.06-.69,1.68-.16a1.07,1.07,0,0,1,.09.43c-.53,2.24-1.66,4.27-2.36,6.45-.15.44-.31.88-.49,1.31a26.33,26.33,0,0,0-2.11,12.45,7.9,7.9,0,0,1-.1,2.52,1.27,1.27,0,0,1-1.06.8c-2.4-1.08-4.65-1.16-6.7.81C702.47,258.88,701.89,259,702.07,258.14Z"/><path class="cls-19" d="M762.33,210.84c-.08-.11-.14-.26-.25-.33a3.4,3.4,0,0,1-1.47-2.88,6.66,6.66,0,0,1,.08-2.13,7.62,7.62,0,0,1,.94-.24,17.55,17.55,0,0,0,4.45-1.26,7.7,7.7,0,0,1,4.54-.5,12.4,12.4,0,0,1,3.18,1,7.63,7.63,0,0,1,4.29,6,11,11,0,0,1,.13,1.81,4.44,4.44,0,0,1-1.1,3.09,32.25,32.25,0,0,0-2.71,3.93,3.1,3.1,0,0,1-.81,1.12c-.54-.53-.4-1.22-.39-1.86a1.76,1.76,0,0,0-1.3-1.92,3,3,0,0,1-2.47-3,2,2,0,0,0-1.68-1.82,12.41,12.41,0,0,0-3.21-.37A2.77,2.77,0,0,1,762.33,210.84Z"/><path class="cls-21" d="M729.6,294.15l6.49-1.67a45.83,45.83,0,0,1-.5,5.74c-.39,3.31-.84,6.6-1.3,9.9-.41,2.93-.85,5.84-1.28,8.77s-.79,5.56-1.23,8.34c-.59,3.7-1.18,7.41-1.83,11.1s-1.42,7.65-2.14,11.47c-.09.5-.2,1-.3,1.51a.84.84,0,0,1-.57.74.25.25,0,0,1-.18.11.46.46,0,0,1-.09.15,1.62,1.62,0,0,1-2.26-.11A6.37,6.37,0,0,0,725.8,347a69.35,69.35,0,0,0,1.48-7.27c.19-1.24.5-2.47.72-3.71.24-1.42.44-2.85.66-4.28.26-1.7.53-3.41.79-5.11.13-.92.23-1.85.35-2.78s.21-1.76.34-2.63.35-1.84.47-2.76c.31-2.36.58-4.72.9-7.07.22-1.62.57-3.22.75-4.84a28.68,28.68,0,0,0,.3-4.89,12.88,12.88,0,0,0-1.5-6.06A3.25,3.25,0,0,0,729.6,294.15Z"/><path class="cls-22" d="M524.93,130.52c4.05,0,8.1,0,12.15,0,1.79,0,2.56.77,2.55,2.52,0,7.84,0,15.68,0,23.52a2.17,2.17,0,0,1-2.4,2.44c-1.93,0-3.86,0-5.79,0H513.46a5.8,5.8,0,0,1-1.8-.21,2,2,0,0,1-1.43-1.74,2,2,0,0,1,0-.42c0-7.89,0-15.77,0-23.66a2.58,2.58,0,0,1,.85-2,1.35,1.35,0,0,1,1-.43h12.86Z"/><path class="cls-23" d="M715.43,234l0-.31a.79.79,0,0,1,.29-.73,8.07,8.07,0,0,0,4.8-3,14.54,14.54,0,0,1-5.2,1.23c-1.9-.08-2.43-.51-3.13-2.24-.5-1.23-.55-2.55-.94-3.8a2.24,2.24,0,0,1,.23-1.66c.58-.3.65-.89.8-1.42a18.26,18.26,0,0,0,.5-2.19,4.36,4.36,0,0,1,.95-2c1.08-1.36,1.07-1.3,1.78.09a14.18,14.18,0,0,0,2.8,3.86,5.56,5.56,0,0,0,3.47,1.69l.14,0c1.15.19,1.17.21,1.18,1.45a6.06,6.06,0,0,1-.33,2.35,7,7,0,0,0-.18,2.92c0,.61.14,1.21.16,1.82a3,3,0,0,0,.6,1.83l-.32.31a6.32,6.32,0,0,1-5.81,1.52A2.06,2.06,0,0,1,715.43,234Z"/><path class="cls-23" d="M762.33,210.84a21.27,21.27,0,0,0,3.08.3,17.18,17.18,0,0,1,2.38.28,2.23,2.23,0,0,1,2.09,2.27.32.32,0,0,1,0,.14,2,2,0,0,0,1.76,2.33,6.7,6.7,0,0,1,1.06.38c.82.36,1,.63.93,1.53a11.13,11.13,0,0,0,0,2.38c0,.18,0,.36,0,.54a3.68,3.68,0,0,1-2.2,1.85,12.87,12.87,0,0,1-6,.74c-.49,0-1-.18-1.1-.71a4.36,4.36,0,0,0-2.25-2.9c-.13-.08-.15-.24-.18-.37.06-2.1-.14-4.2.12-6.29A5.6,5.6,0,0,1,762.33,210.84Z"/><path class="cls-24" d="M429.4,257.53a1.08,1.08,0,0,1,.67.18,32.23,32.23,0,0,0,10.7,4.43l1.77.46a1.1,1.1,0,0,0,.93-.19,5.55,5.55,0,0,1,2.62,2.51c-1.08,1.55-2.45,2.84-3.64,4.3-.5.62-1,1.21-1.56,1.81-.34.39-.54.4-.94.05l-3.71-3.23-8.7-7.57c-.07,0-.09-.16-.16-.3Z"/><path class="cls-25" d="M752.69,262.39a.83.83,0,0,0,.27-.62c0-.42,0-.85,0-1.27s.18-.6.59-.63.75,0,1.13,0h8a4,4,0,0,0,1.67-.18,1,1,0,0,1,.41-.08,20.26,20.26,0,0,0,4.19-.34,18.35,18.35,0,0,0,5.17-1,.17.17,0,0,1,.27,0c-.06.75-.65,1.13-1.16,1.51a24.26,24.26,0,0,1-5,2.85,68.38,68.38,0,0,1-9.34,3c-1.85.48-3.74.83-5.61,1.23-.4.09-.62-.09-.64-.51s0-.94,0-1.4Z"/><path class="cls-23" d="M702.07,258.14c.09.16.08.59.39.33.68-.58,1.44-1,2.16-1.52a2.81,2.81,0,0,1,2.52-.35,13.65,13.65,0,0,1,2.29,1,7,7,0,0,1,1.77.18,19.83,19.83,0,0,0,7,.09c.06.08.15.14.17.23a.75.75,0,0,0,.92.64h.28a10.82,10.82,0,0,1,3.16.38c.26.29,0,.54,0,.8A7.92,7.92,0,0,0,723,263c.1.3.16.63.24.94.12.52-.07.75-.55.66-.78-.15-1.56-.33-2.34-.46-.36-.06-.76-.1-1,.29-3.11-.77-6.21-1.58-9.26-2.54a.82.82,0,0,0-.74-.32,4.84,4.84,0,0,1-2.52-.8,2.34,2.34,0,0,0-2.25-.43c-.48.2-.91-.21-1.38-.12s-1.08.21-1.39-.43C701.87,259.22,701.7,258.63,702.07,258.14Z"/><path class="cls-26" d="M425.47,344.62a7,7,0,0,0,4.72,2.14c.52.41.42,1,.43,1.55,0,1,0,2.05,0,3.07.08,2.19.72,4,3,4.9.54.21,1.17.5.85,1.33a.76.76,0,0,1-.61.29c-2.07,0-4.13,0-6.2,0a2.65,2.65,0,0,1-.79-.24,4,4,0,0,1-1.11-2.23,5.23,5.23,0,0,0-1.39-2.71c-.47-.52-.94-1-1.39-1.58a2.48,2.48,0,0,1-.26-3.12,11.1,11.1,0,0,1,1.05-1.49C424.32,345.86,424.91,345.25,425.47,344.62Z"/><path class="cls-26" d="M447.74,349.68c.63.3,1.25.63,1.89.89a4.91,4.91,0,0,0,3.8.19,7.28,7.28,0,0,0,4.4,4.05,17,17,0,0,0,3,.86,6.11,6.11,0,0,1,1.35.36,1.74,1.74,0,0,1,1.19,1.27c-.07.28-.16.55-.51.58l-.7,0c-4.33,0-8.65,0-13,0a1.42,1.42,0,0,1-1.34-.55C446.73,356.11,446.68,351,447.74,349.68Z"/><path class="cls-27" d="M699.55,270a11.28,11.28,0,0,0,3.7,1.85c.82.22.8.27.83,1.16,0,.14,0,.28,0,.42-.49.18-.64.67-.88,1.05-1.19,1.91-2.36,3.83-3.53,5.75-.12.2-.23.41-.37.6a7.53,7.53,0,0,0-1.35,3.06,2.66,2.66,0,0,1-.87,1.55,6.88,6.88,0,0,0-.8,1c-.12.14-.27.37-.44.29s-.13-.39-.06-.59a1.48,1.48,0,0,0,.08-1,2.12,2.12,0,0,0-1.55,1.31c-.32.78-.65,1.56-1,2.33-.11.24-.21.53-.55.57s-.45-.26-.51-.74a9.68,9.68,0,0,1-.07-3.48,3.57,3.57,0,0,1,1-1.8,13.74,13.74,0,0,1,2.23-1.71,2.11,2.11,0,0,0,.91-1.18c1-3.25,2.12-6.49,3.18-9.74A3.94,3.94,0,0,0,699.55,270Z"/><path class="cls-14" d="M736,276.47a16.68,16.68,0,0,1-3.73-2.21,19.1,19.1,0,0,1-6-7.45c-.08-.16-.16-.33-.23-.51a.35.35,0,0,1,.29-.51,8.92,8.92,0,0,1,2.25.08,7.39,7.39,0,0,0,3.34,0,10.35,10.35,0,0,1,1.12-.09c.86,3,1.73,6,2.59,9,.07.26.12.54.18.81s.09.42.21.61Z"/><path class="cls-28" d="M688.36,349.72a2.64,2.64,0,0,0,1.82.61c.66,0,1.32,0,2,0,.34.13.79-.12,1,.33a27.77,27.77,0,0,1-.39,4.26c-3.55,1.34-7.14,2.39-11,1.21a2,2,0,0,1-1.41-.84,1.12,1.12,0,0,1,.37-.17,6,6,0,0,0,3.18-1.34c1-.79,2-1.63,3.06-2.45A8.7,8.7,0,0,0,688.36,349.72Z"/><path class="cls-29" d="M724.41,350.2l2.26.11a16.07,16.07,0,0,0,.8,4.86,18.16,18.16,0,0,1-6.89,1.82,6.74,6.74,0,0,1-5-1.07c-.22-.56.18-.77.57-.92a14.15,14.15,0,0,0,6-4.68Z"/><path class="cls-23" d="M774.29,227.45c-.1,1.68-1.18,2.44-2.67,2.84a12.59,12.59,0,0,1-4.06.21,1.17,1.17,0,0,1-1-.8,32,32,0,0,1-1.34-3.4,1.22,1.22,0,0,1,1-.32c2.78.18,4.68-1.31,6.36-3.26.29-.34.39-.89,1-.9A35.57,35.57,0,0,0,774.29,227.45Z"/><path class="cls-26" d="M744.7,353.65a7.68,7.68,0,0,0,1.6.79c.93.3,1.84.63,2.75,1a11.11,11.11,0,0,0,4,.55.55.55,0,0,1-.1.82c-.47,1.11-.47,1.11-1.69,1.11-4.63,0-9.27,0-13.91,0-.44,0-.95.15-1.3-.29a3,3,0,0,1,1.89-.81,17.14,17.14,0,0,0,3.5-1A10.09,10.09,0,0,0,744.7,353.65Z"/><path class="cls-25" d="M462.46,254.47c0-.18-.16-.37-.12-.54.37-1.73.77-3.45,1.16-5.18a3.81,3.81,0,0,1,.17-.51,1,1,0,0,1,.79.55c.58.85,1.15,1.71,1.66,2.61.59,1.06,1.15,2.14,1.72,3.22a4.55,4.55,0,0,0,2.54,2.08,8.55,8.55,0,0,0,2.45.61.8.8,0,0,1,.62.26,26.14,26.14,0,0,1-2.74.57,8.27,8.27,0,0,1-4.08-.85A15.72,15.72,0,0,1,462.46,254.47Z"/><path class="cls-30" d="M680.42,355.3c.4.13.81.24,1.2.38a10.29,10.29,0,0,0,5.81.39c1.47-.31,2.92-.71,4.37-1.06.32-.08.65-.12,1-.17,1,1.33.84,2.23-.53,2.8a10,10,0,0,1-3.18.26h-1.67a1.06,1.06,0,0,0-1.11,0c-2,0-4,0-6.07,0a3.92,3.92,0,0,1-1.66-.27l-.76-.31a5.82,5.82,0,0,1-.46-.53.37.37,0,0,1,.14-.58,4.41,4.41,0,0,1,.78-.32C679,355.69,679.69,355.5,680.42,355.3Z"/><path class="cls-31" d="M523.74,292.21c.61,0,1.22,0,1.83,0h25.07a.72.72,0,0,1,.58.33l-.24.48-.07,0,0,.06a1.65,1.65,0,0,1-1,.12H515.37a3.43,3.43,0,0,1-.56,0,.71.71,0,0,1-.11-1A24.75,24.75,0,0,1,523.74,292.21Z"/><path class="cls-30" d="M715.57,355.64a8.46,8.46,0,0,0,4.88,1,19.59,19.59,0,0,0,4.14-.82,20.32,20.32,0,0,1,2.88-.65,3.78,3.78,0,0,1-.1,2.69c-1.22,0-2.44,0-3.66,0h-9.43a4.2,4.2,0,0,1-1.79-.26c-.94-.29-1-1-.3-1.38A3.41,3.41,0,0,1,715.57,355.64Z"/><path class="cls-32" d="M773.55,221.82a9.14,9.14,0,0,1-5.19,4.32,4.89,4.89,0,0,1-1.51.19l-1.68,0a5.23,5.23,0,0,0-1.16-1.14,1,1,0,0,1-.32-.61A4.42,4.42,0,0,0,762,220.5a.4.4,0,0,1,0-.62c.18,0,.42-.06.55,0a3.78,3.78,0,0,1,2,2.55c.11.73.15.76.89.76a18.9,18.9,0,0,0,4.18-.24,8.45,8.45,0,0,0,3.27-1.48l.66-.51C773.56,221.27,773.56,221.54,773.55,221.82Z"/><path class="cls-27" d="M762,219.88a1.07,1.07,0,0,0,.13.38,2.88,2.88,0,0,0,.43.33c1.41,1.21,1.41,1.21,1.4,3.06,0,.5,0,1,0,1.51a6.09,6.09,0,0,0-3.14-.19c-.31,0-.69.06-.89-.29a7.28,7.28,0,0,1-1.12-3.56c0-.85.33-1.2,1.17-1.25.52,0,1,0,1.62,0,.19-.19.09-.53.09-.85,0-1.49,0-3,0-4.49a1.73,1.73,0,0,1,.24-1.21Q762,216.6,762,219.88Z"/><path class="cls-33" d="M482.26,248.85a4.38,4.38,0,0,0-.53-1.65c2-1.92,1.23-1.64,4.24-2,.28,0,.55-.13.82-.18.46-.08.75,0,.69.22s-.35.27-.55.36l-.4.14-.38.16c0,.34.21.38.41.43a9.09,9.09,0,0,0,2.49.36,3.11,3.11,0,0,1,1.74.36c0,.1-.05.22-.11.26a7,7,0,0,1-3.53,1.26C485.52,248.6,483.88,248.63,482.26,248.85Z"/><path class="cls-34" d="M715.68,233.09a1,1,0,0,1-.3.6c-.55.15-1,.58-1.61.53-.44-.32-.41-.83-.51-1.28s-.34-.73-.31-.87c0,.12.2.47.29.83-.07.54.47,1,.17,1.57l-.46.07a13.16,13.16,0,0,1-1.57-5.18,28.06,28.06,0,0,1-.18-4.2c.26-.08.45-.08.48.26a13.21,13.21,0,0,0,.83,3.4,6,6,0,0,0,.38.91,1.77,1.77,0,0,0,1.9,1.14,3.62,3.62,0,0,1,.57,0C716.3,231.48,716.16,232.26,715.68,233.09Z"/><path class="cls-26" d="M771.25,355.67a4.78,4.78,0,0,1,2,.17,1.77,1.77,0,0,0,.69.08,32.65,32.65,0,0,0,4.64-.11,1,1,0,0,1,.4.11l.06.54c-.08,1.39.14,1.45-1.52,1.45h-5.33c-1,0-1,0-1.11-1.13A.68.68,0,0,1,771.25,355.67Z"/><path class="cls-35" d="M458.23,259c.06-.07.1-.18.17-.21l2.87-1.13a5.32,5.32,0,0,1-.3,3.58,9.61,9.61,0,0,1-2.42.53C458.33,260.86,458.4,259.91,458.23,259Z"/><path class="cls-36" d="M701.76,259.76l1.39.43a1.55,1.55,0,0,1-1,.5c-.23.05-.47.05-.63.25-.65,0-1.24.41-1.9.26-.13,0-.3,0-.27-.22a.44.44,0,0,1,.11-.24,2.85,2.85,0,0,1,1.07-.61C701,260,701.36,259.88,701.76,259.76Z"/><path class="cls-12" d="M736,276.2a.55.55,0,0,1-.21-.61A.59.59,0,0,1,736,276.2Z"/><path class="cls-11" d="M726.76,350.16a.14.14,0,0,1,.18-.11l-.06.11Z"/><path class="cls-15" d="M667.31,357.63c0,.06,0,.12,0,.18-.32,0-.65.06-1,.06l-15,0-.42,0a1.1,1.1,0,0,1-.31-.43,50.07,50.07,0,0,1-.36-5.47c-.27-5.71-.66-11.42-.95-17.13-.24-4.68-.58-9.36-.8-14a7,7,0,0,0-.13-2.66,1.46,1.46,0,0,0-.34-.26c-2.9-.23-5.79,0-8.68-.1a7.2,7.2,0,0,1-1.39-.07c-.39-.09-.83-.3-.6-.74.71-1.38.21-2.71,0-4.06.61-.6,1.4-.47,2.13-.48H651c2.79,0,2.91.13,2.84,2.94a2.09,2.09,0,0,1-.75,1.47,3.18,3.18,0,0,0-1.16,3c.38,8.51.41,17,.65,25.54.09,3.37.13,6.74.21,10.11,0,1.62.13,1.74,1.78,1.75,3.57,0,7.14,0,10.71,0A2.75,2.75,0,0,1,667.31,357.63Z"/><path class="cls-16" d="M650.92,357.63a1.16,1.16,0,0,0,0,.18c-.56,0-1.13.05-1.69.05H542.07a.46.46,0,0,1-.47-.22,1.33,1.33,0,0,1,.67-.36,11.8,11.8,0,0,1,1.57-.08c3.63-.08,7.25,0,10.88,0H603a16.15,16.15,0,0,1,2,0,7.84,7.84,0,0,1,1.37,0c8.24-.07,16.47,0,24.7,0,.47,0,1,0,1.42,0,.95,0,1.34-.42,1.34-1.36,0-2.4-.25-4.78-.38-7.16q-.35-6.67-.77-13.33c-.25-4.07-.37-8.15-.75-12.21a26.75,26.75,0,0,1-.06-3.23c0-.33,0-.65,0-1,.07-2,1.22-2.58,3.08-1.47a2.89,2.89,0,0,1,.28,1.61c0,2.18-.24,4.37.19,6.55a4.68,4.68,0,0,1,.11,1.12c-.11,5.54.52,11.06.28,16.6-.09,2,.44,4,.26,6,0,2-.06,3.93,0,5.89,0,.63-.14,1.33.42,1.85,4.09.2,8.17,0,12.26.09A2.93,2.93,0,0,1,650.92,357.63Z"/><path class="cls-30" d="M539.88,357.62l-.87-.26c-1.46-.08-2.36-1.15-3.17-2.1-1.77-2.11-3.35-4.37-5.58-6.07a2.87,2.87,0,0,1-.45-.53c-1.46-2-1.2-3,1-4.21.88-.06,1.19.63,1.57,1.21.61.94,1,2,1.6,2.95a13.48,13.48,0,0,0,6,5.49c.63.89,1.65,1.61,1.33,2.94-.3.83-.3.83-1,.65Z"/><path class="cls-37" d="M686.28,357.89c.53-.36.58-.36,1.11,0Z"/><path class="cls-17" d="M556.5,300.42a3.89,3.89,0,0,0,.25.5C562,309,566.68,317.46,571.23,326c1.3,2.43,2.54,4.9,3.84,7.34a1,1,0,0,1-.15,1.26c-1.32,1.51-3,1.4-4.76,1.07a2.42,2.42,0,0,1-1.22-.65c-5.47-4.77-10.9-9.6-16-14.8-1-1-1.92-2-2.88-3.07-.92-.36-1.23-1.25-1.66-2-1-1.72-1.53-3.62-2.36-5.4-.16-.34-.29-.69-.45-1-1.24-2.51-1.92-2.71-4.34-1.28a4,4,0,0,1-1.12.55c-2.6,1.1-5.15,2.31-7.83,3.22a28.62,28.62,0,0,1-7.69,1.59c-1.84,0-3.67,0-5.5,0-.67,0-.77-.1-.76-.71,0-1.31,0-2.63.19-3.93.08-.61.07-1.22.1-1.83.1-1.78.19-3.55.3-5.33,0-.53.16-.64.7-.67.38,0,.75,0,1.13,0h33.87C555.28,300.34,555.89,300.39,556.5,300.42Z"/><path class="cls-16" d="M653.76,300.41c0,4.5,0,9,0,13.49,0,.5.17,1-.26,1.47,0-.66,0-1.32,0-2a.54.54,0,0,0-.52-.56H638.28a1,1,0,0,0-.9.28,2.26,2.26,0,0,1-1.23.19c-6.51,0-13,0-19.53,0a2.79,2.79,0,0,1-2.13-.45V300.43l15,0Z"/><path class="cls-17" d="M514.77,292.31l.05.73c-1,.43-2.09.09-3.13.2-.5.05-1-.13-1.5.13a2.21,2.21,0,0,0-1.61,2.22,14.08,14.08,0,0,0,0,2.25,2.4,2.4,0,0,0,2.13,2.41,13,13,0,0,0,2.25.09c2.7,0,2.37-.35,2.26,2.31-.13,3-.14,6.08-.21,9.12,0,.14,0,.28,0,.42,0,.48-.13.59-.57.62-.28,0-.56,0-.85,0h-7.89a1.58,1.58,0,0,0-.84-.3,4.49,4.49,0,0,1-1.67-2.52,19.64,19.64,0,0,1-.73-6.78,41.9,41.9,0,0,1,2-10.28c0-.13,0-.27.07-.41a2.49,2.49,0,0,1,.53-.16l7.74-.45C513.48,292,514.28,291.38,514.77,292.31Z"/><path class="cls-38" d="M538,318.52c-.24-.89-.24-.89-.94-.91H518.11c0-.93,0-1.87,0-2.81a4.55,4.55,0,0,1,.09-1c.12-.51.36-.67.9-.7h14.64c.45,0,1,.16,1.3-.32,0-.33.24-.37.49-.38,1.25.13,2.55-.26,3.76.32.5,1.47-.43,2.76-.57,4.15C538.69,317.47,538.73,318.22,538,318.52Z"/><path class="cls-38" d="M513.05,357.67l-.28-.07a1.52,1.52,0,0,1-.32-1.31,33.71,33.71,0,0,0,.14-4.92c0-6,.19-12,.39-18,.15-4.68-.14-9.37.37-14,.1-.92-.33-1.29-1.21-1.29H501.57c-.72,0-1.14.62-1.8.69-.11-1.49.16-1.42,1.35-1.42H511a.46.46,0,0,0-.12-.56c-1-1.35-.92-2.2.25-3.44l.19-.19c.94,0,1.88,0,2.82,0,.55,0,.82.24.81.77a16,16,0,0,1-.15,3.91,4.81,4.81,0,0,0-.08,1.26l0,10a6.31,6.31,0,0,1-.16,1.67,5.44,5.44,0,0,0-.09,1.4c0,3.14,0,6.28,0,9.42a6.4,6.4,0,0,1-.19,1.95,4.78,4.78,0,0,0-.07,1.26c0,3.05,0,6.1,0,9.15a20.93,20.93,0,0,1-.25,3.06C513.83,357.56,513.49,357.62,513.05,357.67Z"/><path class="cls-26" d="M535.41,312.59a.37.37,0,0,0-.34.2H524.64a5.5,5.5,0,0,1,2.15-.46,47.85,47.85,0,0,0,7.63-2.28,50.62,50.62,0,0,0,5.12-2.25c.2-.1.4-.27.64-.08.06.09.11.19.07.26A10,10,0,0,1,535.41,312.59Z"/><path class="cls-39" d="M510.19,293.37c.33-.33.76-.25,1.17-.26l3.46-.07h33.66c.79,0,1.59,0,2.38.06a.56.56,0,0,1-.46.26H510.61Z"/><path class="cls-25" d="M772.12,255.63a1.31,1.31,0,0,0-.28,0,3.91,3.91,0,0,1-2.87-.89,14.13,14.13,0,0,1-3.54-3.57,22.52,22.52,0,0,1-2.92-5.74,39.47,39.47,0,0,1-2-8,34.59,34.59,0,0,1-.52-5.28c0-.14,0-.28,0-.43.4.12.38.5.47.77.79,2.45,1.61,4.89,2.61,7.27a50.54,50.54,0,0,0,4.14,8.13,20.82,20.82,0,0,0,3.24,3.7,5.25,5.25,0,0,0,2.26,1.1,1.23,1.23,0,0,0,.54,0,12.35,12.35,0,0,0,1.36-.36,37.84,37.84,0,0,0,5.11-2c.19-.1.37-.31.73-.11a11.82,11.82,0,0,1-2.18,2.12A8.87,8.87,0,0,1,772.12,255.63Z"/><path class="cls-25" d="M755.21,249.28a4.28,4.28,0,0,1-.33,2.17.73.73,0,0,1-.64.49,3.22,3.22,0,0,1-1.12,0,8.44,8.44,0,0,0-2.23-.25c-.62,0-.83-.28-.73-.9a8.94,8.94,0,0,1,.31-1.36,68.54,68.54,0,0,1,3.12-8.11.27.27,0,0,1,.2-.16c.17,0,.24.12.27.25.28,1.47.67,2.92.8,4.39A19.41,19.41,0,0,1,755.21,249.28Z"/><path class="cls-28" d="M772.12,255.63c.36-.35.87-.32,1.29-.49a19.41,19.41,0,0,0,4.94-2.84,1.43,1.43,0,0,1,.26,1.33,8.61,8.61,0,0,1-1.9,3.56,2.05,2.05,0,0,1-1.21.66,3.1,3.1,0,0,0-1.07.33h-.14l-.13,0c-.13,0-.27,0-.41,0-.35,0-.64-.07-.69-.47A5.57,5.57,0,0,0,772.12,255.63Z"/><path class="cls-40" d="M718.52,304.91c-.52,1.2-1,2.41-1.55,3.6-1.32,2.91-2.66,5.8-4,8.7a86.05,86.05,0,0,0-3.28,8.52,78,78,0,0,1-11.62,22.36c-.22.3-.48.58-.68.89a3,3,0,0,1-3.2,1.54,5.26,5.26,0,0,0-1.12.06l-1-.24a7.41,7.41,0,0,0,1.09-1.46c1.69-2.42,3.27-4.91,4.78-7.44A106,106,0,0,0,703.54,331a70.9,70.9,0,0,0,2.93-7.44,51.46,51.46,0,0,0,1.45-5.55,62.68,62.68,0,0,1,1.94-6.88,96.26,96.26,0,0,1,3.82-9.65c1.05-2.36,2.26-4.63,3.39-6.95a7.17,7.17,0,0,1,.47-.86c.1-.15.28-.34.41-.33.33,0,.23.34.24.55,0,.79,0,1.59,0,2.39a7,7,0,0,0,.18,1.81,6.38,6.38,0,0,1,.09,1.39,16.64,16.64,0,0,0,.23,3.07A3.61,3.61,0,0,1,718.52,304.91Z"/><path class="cls-2" d="M710,261.86a.8.8,0,0,1,.89-.17c1.55.48,3.11.95,4.67,1.39.94.26,1.88.51,2.84.69a1.34,1.34,0,0,1,.86.63c.24,1.57.46,3.14.72,4.71.5,3,1,5.91,1.51,8.87a2,2,0,0,1,0,.42,31.69,31.69,0,0,1-11.5-1.11,5.23,5.23,0,0,1-.07-1.53Q710,268.8,710,261.86Z"/><path class="cls-41" d="M446.09,264.92a19.44,19.44,0,0,1-2.62-2.51,7.12,7.12,0,0,0,1-2.28,4.69,4.69,0,0,1,4.57,1.52.54.54,0,0,1-.12.42,7.71,7.71,0,0,1-.82,2.17,5.21,5.21,0,0,1-.56.77c-.34.39-.43.39-1,.17C446.41,265.11,446.25,265,446.09,264.92Z"/><path class="cls-42" d="M448.91,262.07l0-.3c.59-1.32,1.26-2.55,2.88-2.81l3.49.07c.15,1,0,2.06.15,3.08-.32.27-.71.19-1.07.21A35.73,35.73,0,0,1,448.91,262.07Z"/><path class="cls-43" d="M455.45,262.11a3.11,3.11,0,0,1-.15-3.08c.41-.11.66-.5,1.11-.58a2.26,2.26,0,0,1,1.82.55,2.51,2.51,0,0,1,.32,2.77c-.2.21-.41.42-.61.64A2.15,2.15,0,0,1,455.45,262.11Z"/><path class="cls-44" d="M765.12,315.36h-.27c0-.26,0-.51,0-.77A.66.66,0,0,1,765.12,315.36Z"/><path class="cls-23" d="M519.52,256.43a.11.11,0,0,1,0,.18,2.76,2.76,0,0,1-3.17,1.46,10.32,10.32,0,0,1-2.43-.73,17.32,17.32,0,0,1-2.86-1.5,6.77,6.77,0,0,0,1.32-2.77c.22-.86.38-1.74.55-2.61a2.13,2.13,0,0,0,0-1.12,7.54,7.54,0,0,1,.13-3.47.37.37,0,0,1,.39-.33c.37,0,.75,0,1.12,0a8.93,8.93,0,0,0,3.7-.77,24.77,24.77,0,0,0,4.18-2.33l1.34-.9a3.18,3.18,0,0,1,1.07,1.76,10.89,10.89,0,0,1-.12,6.37,19.49,19.49,0,0,1-1.29,3,6,6,0,0,1-.36.6c-.8,1.13-1.36,1.66-3,1-2.09.13-3.74-.9-5.37-1.94A7.69,7.69,0,0,0,519.52,256.43Z"/><path class="cls-45" d="M515.51,288a2.17,2.17,0,0,0-1.38-1.11,48.48,48.48,0,0,0-6.5-1.69,21.89,21.89,0,0,0-3.86-.63c-.11,0-.23-.15-.34-.23.44-1.63-.27-3.2-.28-4.8,1-1.38,1.74-3,2.82-4.28.33,0,.27.26.29.42a30.5,30.5,0,0,0,.88,4.93,4.78,4.78,0,0,0,2.41,3,77.16,77.16,0,0,0,7.39,3.41,5.25,5.25,0,0,0,1.52.2C517.69,288.26,516.56,288,515.51,288Z"/><path class="cls-46" d="M515.51,288a4.81,4.81,0,0,1,2.06-.56,1.57,1.57,0,0,0,.89-.26,7.87,7.87,0,0,1,5.58,1.25,8.79,8.79,0,0,0,.87.43l0,.29c-.19.13-.42.23-.26.53l-.28.57a1.2,1.2,0,0,1-1,.45,4,4,0,0,0-3.73-.27c-1.3.4-2.67,1-4,0A5.38,5.38,0,0,0,515.51,288Z"/><path class="cls-47" d="M515.61,290.49a8.07,8.07,0,0,0,4-.37c.58-.18,1.17-.3,1.74-.49a1.26,1.26,0,0,1,1.3.27l.85.71c.2.11.49,0,.64.24a.83.83,0,0,1-.34.65c-.51.66-1.24.43-1.9.47a6.34,6.34,0,0,0-1.63.13c-1.08,0-2.16,0-3.24,0a1.75,1.75,0,0,1-1.44-.41Z"/><path class="cls-48" d="M503.15,279.57a1.14,1.14,0,0,1,.19.19,15.85,15.85,0,0,1,.66,4c0,.39-.18.61-.57.65a10.47,10.47,0,0,1-2.11-.64.42.42,0,0,1-.22-.57c.19-.42.38-.84.61-1.24C502.17,281.13,502.66,280.35,503.15,279.57Z"/><path class="cls-49" d="M515.58,291.7a10.69,10.69,0,0,0,2.65.19l2.09.05a12.31,12.31,0,0,1,3.43,0,.87.87,0,0,1,0,.28l-5.19,0-3.78.06a.74.74,0,0,0-.7-.36l-1.27,0a2.94,2.94,0,0,1,1.52-.21C514.74,291.7,515.16,291.7,515.58,291.7Z"/><path class="cls-50" d="M495.8,291.67a.58.58,0,0,1-.58-.25A.58.58,0,0,1,495.8,291.67Z"/><path class="cls-51" d="M451.81,259a1.14,1.14,0,0,0-.8.51l-2.08,2.3a2.46,2.46,0,0,0-1.35-.92,25.64,25.64,0,0,0-3.12-.72,4.15,4.15,0,0,0-1.08-1.09c-2-1.77-4-3.53-5.93-5.41-.37-.36-.7-.76-1.09-1.1a1.72,1.72,0,0,1-.34-2.28,3.24,3.24,0,0,1,.44-.71c2.12-2.45,4.25-4.88,6.3-7.23a.52.52,0,0,1,.62.13L455.5,253c.18.16.38.28.47.35a1.31,1.31,0,0,1-.51,1c-1.14,1.32-2.28,2.62-3.42,3.93C451.84,258.44,451.67,258.65,451.81,259Z"/><path class="cls-23" d="M454.81,224.92c0,.23.06.46.11.69a4,4,0,0,0,3,3.3c.4.11.78.28,1.17.42a8.61,8.61,0,0,1-3.92,2.33,12,12,0,0,1-10.24-1.3,6.92,6.92,0,0,1-2.24-1.67c.51-.11,1-.22,1.51-.35a3.65,3.65,0,0,0,2.61-2.37,17.58,17.58,0,0,0,1-6.23,3,3,0,0,0-.21-.81,5.45,5.45,0,0,1-.33-1.79,4,4,0,0,1,.1-1.52c.25-.51.94-.29,1.42-.37a6.84,6.84,0,0,0,4.15-2.48,17.56,17.56,0,0,0,2.23-3.41c.12-.25.24-.51.38-.76s.37-.4.68-.23a4.56,4.56,0,0,1,1.82,1.72,8.59,8.59,0,0,1,1.18,4.58,19.76,19.76,0,0,1-1.08,5.79,8.49,8.49,0,0,1-.66,1.4,1.55,1.55,0,0,1-1.63.87c-.23,0-.47,0-.7,0-1.87.49-3.52-.29-5.21-.92a6.65,6.65,0,0,0,4.16,2.79A1.25,1.25,0,0,1,454.81,224.92Z"/><path class="cls-8" d="M615.91,262.41H560.24c-.47,0-.94,0-1.41,0a.52.52,0,0,1-.54-.53c0-.52,0-1,0-1.55V164.79c0-1.67,0-1.59,1.64-1.59h112c1.68,0,1.62-.06,1.62,1.61v95.93c0,.37,0,.75,0,1.12a.54.54,0,0,1-.56.53c-.47,0-.94,0-1.41,0Z"/><path class="cls-2" d="M718.24,257.86c-.17.81-.22.9-.82.8a44.37,44.37,0,0,0-4.76-.26,3.05,3.05,0,0,1-1.86-.45c.52-.83,1.49-.69,2.24-1a8.52,8.52,0,0,0,1.65-.7,21,21,0,0,0-2.82.78c-.52.15-1,.48-1.6.06a14.15,14.15,0,0,1,0-2.52c0-1.54.06-3.08,0-4.62a10.65,10.65,0,0,1,.49-3.17c1-3.22,2.17-6.36,3.38-9.5.42-1.08.85-2.17,1.28-3.26,0,0,.09.05.11.09.79,1.39,2.11,1.57,3.5,1.43a7.21,7.21,0,0,0,3-1,1.69,1.69,0,0,1,.9-.35,1.42,1.42,0,0,0,0,.2.87.87,0,0,1-.19.37c-1.78,4.07-3.51,8.16-4.93,12.39a11,11,0,0,0-.39,5C717.67,254.07,718,256,718.24,257.86Z"/><path class="cls-14" d="M726.57,248.89c.23.82.45,1.44.57,2.07.36,2,.93,3.9,1.4,5.85.21.89,0,1.31-.85,1.63a3.51,3.51,0,0,1-1.51.29c-.28,0-.57,0-.84,0-.42-.06-.87.28-1.23,0s-.21-.88-.25-1.33c0-.23,0-.47,0-.7-.19-2.7.92-5,2.18-7.28C726.11,249.27,726.28,249.17,726.57,248.89Z"/><path class="cls-23" d="M722.75,234.79a.36.36,0,0,1,.19-.37A.34.34,0,0,1,722.75,234.79Z"/><path class="cls-52" d="M600.15,284.15a1.83,1.83,0,0,1-1.65-1.48,1,1,0,0,1,.94-1.14,1.84,1.84,0,0,1,1.76,1.35A1,1,0,0,1,600.15,284.15Z"/><path class="cls-53" d="M454.81,224.92c-2.64,0-4.28-1.55-5.68-3.74a3.5,3.5,0,0,1,1.5.51c.49.16,1,.28,1.47.48a8,8,0,0,0,1.51.26,6,6,0,0,0,1.52.25,2.27,2.27,0,0,0-.25,1.17C454.87,224.21,454.84,224.56,454.81,224.92Z"/><path class="cls-54" d="M542.41,283.88a.94.94,0,0,1-.92-1.34,2,2,0,0,1,1.13-1.16,1.13,1.13,0,0,1,1.3.22,1.17,1.17,0,0,1,.07,1.31A1.75,1.75,0,0,1,542.41,283.88Z"/><path class="cls-55" d="M523.75,291.93h-3.43a3.61,3.61,0,0,1,1.38-.2l2.09-.24C523.78,291.65,523.76,291.79,523.75,291.93Z"/><path class="cls-56" d="M524.13,290.85a.71.71,0,0,1-.64-.24,1.26,1.26,0,0,1,.85-.33A.51.51,0,0,1,524.13,290.85Z"/><path class="cls-57" d="M524.62,289.71a.73.73,0,0,1-.23-.13,1.75,1.75,0,0,1-.15-.34.73.73,0,0,1,.25-.08,2.55,2.55,0,0,1,.39,0Z"/><path class="cls-58" d="M519.52,256.43a2.23,2.23,0,0,1-1.36-.22,7.55,7.55,0,0,1-3.49-3.28c-.25-.43-.43-.89-.78-1.65a17.39,17.39,0,0,0,3.07,1.91c1,.38,2.12.71,3.18,1.05a1.25,1.25,0,0,0-.32.73C519.73,255.46,519.62,256,519.52,256.43Z"/><path class="cls-59" d="M710.27,257.07l4.3-1.27a1.3,1.3,0,0,1,.67-.13.44.44,0,0,1,.35.39.46.46,0,0,1-.14.37,2.16,2.16,0,0,1-.63.3l-4,1.22a1.58,1.58,0,0,1-1.37-.36C709.59,257.22,710.08,257.39,710.27,257.07Z"/><path class="cls-60" d="M713.38,232.82l.39,1.4-.36.25a5.3,5.3,0,0,1-.31-1.67A.17.17,0,0,1,713.38,232.82Z"/><path class="cls-61" d="M524.9,157.58c-3.76,0-7.52,0-11.29,0A1.86,1.86,0,0,1,512,157a1.31,1.31,0,0,1-.36-.89c0-.33,0-.66,0-1V133.55a1.72,1.72,0,0,1,1.66-1.88,8.18,8.18,0,0,1,1,0h22a2.15,2.15,0,0,1,2.17,1.94,8,8,0,0,1,0,.85c0,6.85,0,13.69,0,20.54,0,1.91-.77,2.65-2.58,2.61C532.24,157.53,528.57,157.58,524.9,157.58Z"/><path class="cls-58" d="M715.68,233.09c0-.4,0-.81,0-1.21a1.76,1.76,0,0,0-.28-1c1.59-.06,2.81-.39,5.82-1.54.1.41-.26.56-.4.81a6.86,6.86,0,0,1-3.08,2.53A3.78,3.78,0,0,1,715.68,233.09Z"/><path class="cls-62" d="M713.38,232.82l-.28,0a1.89,1.89,0,0,1-.17-1.29A2.57,2.57,0,0,1,713.38,232.82Z"/><path class="cls-63" d="M648.69,317.61h-9.43a8.89,8.89,0,0,1-2.51-.21,2.31,2.31,0,0,0-1.91.22c-.67-.53-1.42-.25-2.15-.22-.28,0-.37.27-.38.51,0,.65,0,1.31,0,2-.59,0-.63-.53-.66-.92-.09-1-.71-1.18-1.55-1.18-6.43,0-12.85.05-19.28,0-1.52,0-1.38,1.24-2,1.89-.1,0-.22,0-.26-.07a4.67,4.67,0,0,0-2.5-2.22,2,2,0,0,1-1.08-.26,1.44,1.44,0,0,1-.9-1.44c0-.32,0-.65,0-1a1.79,1.79,0,0,1,1.89-1.82H635.6a3.2,3.2,0,0,1,1.78.28,1.59,1.59,0,0,1,.87,1.61,3.31,3.31,0,0,1-.62,2.48c.33.24.71.13,1.06.13h8.83C647.92,317.33,648.38,317.2,648.69,317.61Z"/><path class="cls-63" d="M649,320.43a.88.88,0,0,1-.26-.75v-2.07a.87.87,0,0,1,.27.75C649,319.05,649,319.74,649,320.43Z"/><path class="cls-16" d="M608.56,319.59c0,.75,0,1.5,0,2.25a4.92,4.92,0,0,1-.16,1.53,3.9,3.9,0,0,0-.11,1,26.33,26.33,0,0,1-.24,4.34,15.35,15.35,0,0,0,0,2.8,5.84,5.84,0,0,1-.18,1.81,3.71,3.71,0,0,0-.09,1.11,25.21,25.21,0,0,1-.24,4.06,14.49,14.49,0,0,0-.06,2.8,5.87,5.87,0,0,1-.2,1.95,3.42,3.42,0,0,0-.07,1,22.63,22.63,0,0,1-.25,4.19,12,12,0,0,0,0,2.25,16.63,16.63,0,0,1-.19,2.22,19.87,19.87,0,0,0-.09,3.09,3.85,3.85,0,0,1-.23,1.65h-1.23c0-3.41,0-6.83,0-10.24a6.75,6.75,0,0,1,.2-2.09,4.3,4.3,0,0,0,.07-1.25c0-2.62,0-5.24,0-7.86a11.1,11.1,0,0,1,.22-3.2,3.8,3.8,0,0,0,0-1.12c0-2.11,0-4.21,0-6.32a42,42,0,0,0,.14-5.26,4.5,4.5,0,0,1,.13-1.79v-1.12c.64,0,1.28,0,1.93,0,.42,0,.58.18.6.59S608.56,319,608.56,319.59Z"/><path class="cls-64" d="M543.24,335.58c0,3.41,0,6.83,0,10.24a9.65,9.65,0,0,0,.22,2.93,4.09,4.09,0,0,1,0,1.11c0,2.58,0,5.15.05,7.73h-1.47c0-.93,0-1.87,0-2.81a2.1,2.1,0,0,0,0-.56,14.59,14.59,0,0,1-.26-3.9,6.11,6.11,0,0,0-.15-1.53,4.55,4.55,0,0,1-.12-1.11,26.77,26.77,0,0,0-.24-4.19,16,16,0,0,1-.06-2.94c0-.38-.14-.63-.54-.69a.32.32,0,0,1,0-.37,3.6,3.6,0,0,0,1.29-1.88C542.33,336.88,542.33,336,543.24,335.58Z"/><path class="cls-65" d="M635.69,349.45a2,2,0,0,1,.55.06c.45.16.62.45.51.85a3.51,3.51,0,0,1-.4,1,2.18,2.18,0,0,0-.39,1.45c0,.57,0,1.13,0,1.69a1.44,1.44,0,0,0,.57,1.33c.41.32.35.66-.08,1.06-.21.19-.46.32-.48.64-.39-.25-.27-.66-.27-1Q635.69,353,635.69,349.45Z"/><path class="cls-63" d="M634.84,319c.34.28.28.67.28,1,0,1.82,0,3.64,0,5.45-.34-.28-.27-.67-.27-1Z"/><path class="cls-27" d="M540.71,339.61a.69.69,0,0,0,0,.25,56,56,0,0,0-1.58,5.37,28.2,28.2,0,0,0-.66,4.28,5.91,5.91,0,0,0,1,4.14c.13.2.23.41.35.61a10.37,10.37,0,0,1-4.62-3.28,19.25,19.25,0,0,1-2.14-3.28c-.47-.85-1-1.71-1.44-2.56a1,1,0,0,0-.72-.59,4.44,4.44,0,0,1,1.67-.72,3.53,3.53,0,0,0,2.44-2.32c.31-.84.58-1.69.87-2.53.08-.22.19-.42.29-.63A13.15,13.15,0,0,1,540.71,339.61Z"/><path class="cls-17" d="M540.71,339.61a11.84,11.84,0,0,1-4.51-1.26c-.07-.07-.12-.16-.2-.19-.64-.26-.73-.76-.65-1.37.13-1,.2-2,.33-2.92.46-3.61.92-7.21,1.54-10.8.26-1.51.5-3,.75-4.55a5.75,5.75,0,0,0,.45-1.88c.33-1.26.57-2.54.85-3.82a2.57,2.57,0,0,1,.74-2.64c.58-.11.87.29,1.1.69,2.22,3.82,4.49,7.61,6.62,11.47a1.39,1.39,0,0,1,.12.41,4.5,4.5,0,0,1-.46,1.47q-1.95,5.28-3.92,10.55c-.09.26-.16.54-.23.81a30.22,30.22,0,0,0-1.18,2.95C541.63,339.51,542,339.41,540.71,339.61Z"/><path class="cls-26" d="M547.85,322.75a1.74,1.74,0,0,1-.72-.84c-1.85-3.21-3.67-6.43-5.57-9.61a5.28,5.28,0,0,0-1.41-2.05c-.5-1.23.29-2.1.85-3a6.5,6.5,0,0,1,1.72-.93,1.73,1.73,0,0,1,2.38.81,10.66,10.66,0,0,1,1.2,2.23c.57,1.33,1.09,2.68,1.64,4a22.65,22.65,0,0,0,2.15,3.77l-1.7,4.38A4.09,4.09,0,0,1,547.85,322.75Z"/><path class="cls-27" d="M570.16,335.64c.51-.06,1-.17,1.54-.18a7.13,7.13,0,0,0,3.22-.89,18,18,0,0,0,6.45,4.56,4.59,4.59,0,0,0,2.17.47,1.86,1.86,0,0,1,1.22.19,13.75,13.75,0,0,1-9.31,1.79,9.84,9.84,0,0,1-3.82-.81A7.39,7.39,0,0,0,570.16,335.64Z"/><path class="cls-30" d="M571.63,340.77a23.61,23.61,0,0,1,3.75.39,14.11,14.11,0,0,0,5.3-.12,7.46,7.46,0,0,0,2.08-.79,3.18,3.18,0,0,1,2-.46c.69.12,1.39.22,2.07.38s.61.5.24.94a4,4,0,0,1-1.5,1A10.86,10.86,0,0,1,582,343a13.52,13.52,0,0,1-2.11,0,12,12,0,0,0-3.91.39,7.88,7.88,0,0,1-2.65.27c-1.27-.11-1.73-.61-1.78-1.89C571.56,341.43,571.61,341.1,571.63,340.77Z"/><path class="cls-63" d="M606,318.45v6c0,.36.07.75-.27,1,0-2,0-4,0-6C605.74,319.13,605.67,318.74,606,318.45Z"/><path class="cls-66" d="M541,307.22c-.21.65-.4,1.31-.61,2a2.65,2.65,0,0,0-.24,1.07,18.56,18.56,0,0,0-.88,2.57h-3.09a.88.88,0,0,1-.77-.24,22.22,22.22,0,0,0,4.33-4.17c.16-.22.3-.47.44-.71C540.48,307.58,540.64,307.25,541,307.22Z"/><path class="cls-67" d="M457,259a1,1,0,0,1,.72.34,1.62,1.62,0,0,1,.23,2.05,1.22,1.22,0,0,1-1,.65,1.21,1.21,0,0,1-1.1-.74,1.78,1.78,0,0,1,.26-1.94A1.15,1.15,0,0,1,457,259Z"/><path class="cls-68" d="M456.06,218.92c.45,0,.73,0,1,.06s.5,0,.49.35a.47.47,0,0,1-.35.39,3.56,3.56,0,0,1-2.19,0,.54.54,0,0,1-.22-.15c-.09-.1-.21-.21-.13-.36s.12-.17.18-.18Z"/><path class="cls-2" d="M577.48,174.77c.3-.24.27-.58.27-.9,0-.71,0-1.41,0-2.12,0-.44.18-.6.59-.63s.66,0,1,0H597c.28,0,.57,0,.85,0,.68,0,.78.14.81.86,0,.32,0,.65,0,1q0,15.78,0,31.54c0,.47,0,.94,0,1.41a.39.39,0,0,1-.37.36,5.93,5.93,0,0,1-.84.06H574.52c-1.27,0-1.28,0-1.28-1.38q0-12.25,0-24.5c0-1.36,0-2.72,0-4.09,0-.23,0-.47,0-.7,0-.41.2-.57.64-.58.9,0,1.79,0,2.68,0,.33,0,.67,0,.91-.28Z"/><path class="cls-2" d="M606.85,215.06a1.51,1.51,0,0,1,.48-.26,10.47,10.47,0,0,1,1.12,0H626c.28,0,.56,0,.84,0,.88,0,.94.09,1,1,0,.28,0,.56,0,.84v31.53c0,2,.14,1.85-1.79,1.85H604.24c-1.68,0-1.62,0-1.62-1.61V219.81c0-1,.06-1.07,1.16-1.09.8,0,1.6,0,2.4,0,.5,0,.65-.17.67-.7s0-1.22,0-1.83A.79.79,0,0,1,606.85,215.06Z"/><path class="cls-69" d="M606,189.35c0-.87.15-1,.85-1.06a39.31,39.31,0,0,0,4.59-.52,5.32,5.32,0,0,1,1,0,4.41,4.41,0,0,0,1.25-.15,4.16,4.16,0,0,1,1.11-.13,6.75,6.75,0,0,0,2-.22,3.78,3.78,0,0,1,1.26-.06,4,4,0,0,0,1.24-.22.41.41,0,0,1,.55.29,5.59,5.59,0,0,1,.32,1.36,17.76,17.76,0,0,0,.28,2.64c.11.73.19,1.49.23,2.22.07,1.26.33,2.5.36,3.76a6.46,6.46,0,0,0,.07,1c.16,1,.17,1-.79,1.07a4.74,4.74,0,0,0-1.39.18,3.44,3.44,0,0,1-1,.1,6.49,6.49,0,0,0-2.36.25.89.89,0,0,1-.28,0,37.06,37.06,0,0,0-4.59.53,20,20,0,0,0-2.65.28.7.7,0,0,1-.86-.7c0-.33,0-.66,0-1a4.15,4.15,0,0,0-.18-1.52,2.52,2.52,0,0,1-.1-.83,5,5,0,0,0-.21-1.8,2.34,2.34,0,0,1-.07-.84,8.54,8.54,0,0,0-.19-1.66C606.15,191.26,606.46,190.14,606,189.35Z"/><path class="cls-2" d="M627.76,189.84c0-2-.12-1.82,1.83-1.84a7.1,7.1,0,0,0,2.51-.23,2.6,2.6,0,0,1,.84,0,12.92,12.92,0,0,0,3.22-.24,6.07,6.07,0,0,1,1.54-.05,6,6,0,0,0,2.23-.22,2,2,0,0,1,.7-.05c.84,0,.89.1,1,1,.2,1.53.18,3.08.33,4.6.13,1.22.2,2.42.23,3.63a3.93,3.93,0,0,0,.15,1,3.19,3.19,0,0,1,.12,1.11c0,1-.05,1.09-1.12,1.12a11.76,11.76,0,0,0-3.07.24,6.14,6.14,0,0,1-1.55,0,8.86,8.86,0,0,0-2.51.22,5.48,5.48,0,0,1-1.41.06,6.49,6.49,0,0,0-2.23.22,2.57,2.57,0,0,1-.84.06c-1.11,0-1-.11-1.28-.93a1.49,1.49,0,0,1-.1-.55c.16-1.83-.33-3.63-.3-5.45a6.75,6.75,0,0,0-.2-2.09A6,6,0,0,1,627.76,189.84Z"/><path class="cls-69" d="M660.32,209c-2.85-.46-5.71-.89-8.53-1.54a28.73,28.73,0,0,1-4-.63A.76.76,0,0,1,647,206a4.68,4.68,0,0,1,0-.84c.35-2,.72-4,1.08-6.05.2-1.14.51-2.27.61-3.44.06-.7.42-1,1.16-.92a21.4,21.4,0,0,1,2.5.33c2.15.41,4.29.9,6.45,1.28.78.14,1.58.15,2.36.34.18.05.37,0,.55.08.56.15.73.43.79,1a6.5,6.5,0,0,1-.33,2.07c-.36,1.55-.52,3.12-.81,4.68-.21,1.1-.38,2.2-.59,3.3A2.38,2.38,0,0,1,660.32,209Z"/><path class="cls-2" d="M583.77,245.48h-.28c-1.11,0-1.31-.15-1.45-1.24a15.74,15.74,0,0,1,0-1.82,8,8,0,0,0-.18-1.94,7.34,7.34,0,0,1-.1-1.82,10.26,10.26,0,0,0-.23-2.64,5.63,5.63,0,0,1-.05-1.54c0-1.08.06-1,1.07-1.31a4.7,4.7,0,0,1,1.25-.08,11.62,11.62,0,0,0,3.22-.24,3.47,3.47,0,0,1,1.12,0,11.44,11.44,0,0,0,2.79-.23,6.69,6.69,0,0,1,1.68-.06,6.16,6.16,0,0,0,2.09-.19.43.43,0,0,1,.6.4,29.08,29.08,0,0,1,.32,4.18,5.56,5.56,0,0,0,.19,1.8,9,9,0,0,1,.08,1.81,5.23,5.23,0,0,0,.21,2.08,1,1,0,0,1,.06.42c0,1.58.1,1.64-1.45,1.62a3.48,3.48,0,0,0-1.53.19.93.93,0,0,1-.41.07c-1.83-.15-3.63.38-5.46.31a6.49,6.49,0,0,0-2.23.21,4.4,4.4,0,0,1-1.26,0Z"/><path class="cls-70" d="M573,230.65a.39.39,0,0,1-.41-.32c-.17-.53-.33-1.07-.45-1.62-.54-2.5-1.07-5-1.6-7.51-.13-.59-.26-1.18-.38-1.78-.07-.36.07-.6.49-.71,1.13-.3,2.26-.58,3.41-.82,2.05-.44,4.11-.83,6.17-1.26.92-.19,1.82-.42,2.73-.63.47-.11.72,0,.86.47s.28,1.18.41,1.77l1.17,5.61c.25,1.18.52,2.36.77,3.55.07.34-.06.52-.42.59-3.29.68-6.59,1.35-9.88,2-.5.1-1,.26-1.49.37S573.45,230.57,573,230.65Z"/><path class="cls-16" d="M635,183.22h-5.36c-.33,0-.66,0-1,0a.53.53,0,0,1-.54-.53c0-.23,0-.47,0-.7V172.4a5.61,5.61,0,0,1,0-.71c0-.4.2-.54.64-.58h11.86l.84,0a.46.46,0,0,1,.43.31,3.72,3.72,0,0,1,.33,1.35c0,3,0,6,0,9a2.59,2.59,0,0,1,0,.56,1,1,0,0,1-1.09.86Z"/><path class="cls-2" d="M570.9,241.25h5.37c.32,0,.65,0,1,0a.47.47,0,0,1,.46.45,8,8,0,0,1,0,1c0,2,0,4,0,6.05a13.15,13.15,0,0,0,.24,3.91.53.53,0,0,1-.53.68c-.33,0-.66,0-1,0h-5.36a18.84,18.84,0,0,0-2.8.2,25.47,25.47,0,0,1-3.81,0c-.41,0-.55-.19-.59-.63,0-.23,0-.47,0-.7,0-3.24,0-6.48,0-9.72a7.86,7.86,0,0,1,0-.84.49.49,0,0,1,.47-.45c.32,0,.65,0,1,0h5.51Z"/><path class="cls-2" d="M610.55,173.08c.34-.28.24-.68.27-1.05.06-.88.09-.9,1-.93h7.06c.24,0,.47,0,.71,0a.56.56,0,0,1,.52.56c0,.19,0,.38,0,.57,0,3.38,0,6.76,0,10.14a5.34,5.34,0,0,1,0,.69.42.42,0,0,1-.38.36,4.12,4.12,0,0,1-.7.05H608c-.88,0-1.08-.23-1.12-1.08a2.53,2.53,0,0,1,0-.28q0-3.3,0-6.62c0-.36-.07-.76.28-1a2.11,2.11,0,0,1,1.45-.38A2,2,0,0,0,610.55,173.08Z"/><path class="cls-70" d="M638,226.33a.85.85,0,0,1,.75-.28c2.59,0,5.18,0,7.77,0,.86,0,1.08.23,1.08,1.1,0,3.48,0,7,0,10.42a2.62,2.62,0,0,1,0,.28.54.54,0,0,1-.52.56c-.24,0-.47,0-.71,0H635.58a7.87,7.87,0,0,1-.84,0,.49.49,0,0,1-.44-.47,5.47,5.47,0,0,1,0-.7q0-3.53,0-7c0-.37-.1-.77.29-1a2.33,2.33,0,0,0,1.11.13c1.65.06,1.75,0,1.88-1.64A2.49,2.49,0,0,1,638,226.33Z"/><path class="cls-2" d="M649.24,247.17a.81.81,0,0,0,.29-.75c0-.66,0-1.31,0-2,0-.44.18-.6.59-.64.23,0,.46,0,.7,0h6.76c.24,0,.48,0,.71,0a.79.79,0,0,1,.81.8,5.4,5.4,0,0,1,0,.7v9.41c0,1.34-.13,1.46-1.44,1.47H647.13c-.24,0-.47,0-.7,0a.54.54,0,0,1-.55-.53.66.66,0,0,1,0-.14c0-2.44,0-4.87,0-7.31,0-.58.16-.71.79-.73s1.22,0,1.83,0a.81.81,0,0,0,.75-.28Z"/><path class="cls-70" d="M658.86,168.29a.75.75,0,0,1,.61-.29h8.47c.67,0,.8.14.81.86,0,2.86,0,5.72,0,8.58,0,.66,0,1.31,0,2s-.17.65-.68.69a5.42,5.42,0,0,1-.57,0H656.77c-1.27,0-1.29,0-1.29-1.23q0-3.37,0-6.75c0-.37-.08-.77.29-1a.42.42,0,0,0,.26,0c.82-.33,1.89.22,2.51-.46S658.61,169.08,658.86,168.29Z"/><path class="cls-2" d="M655.46,226.33h8c.33,0,.66,0,1,0a.54.54,0,0,1,.55.53c0,.23,0,.47,0,.7,0,3.19,0,6.39,0,9.58,0,.19,0,.38,0,.56,0,.55-.16.68-.67.72H653.1c-1.28,0-1.3,0-1.3-1.22q0-3.18,0-6.34a5.39,5.39,0,0,1,0-.7.48.48,0,0,1,.48-.44c.75,0,1.5,0,2.26,0,.32,0,.66,0,.88-.3A2.92,2.92,0,0,1,655.46,226.33Z"/><path class="cls-64" d="M606.85,215.06v1.11c-.29.24-.26.58-.27.9a7.86,7.86,0,0,1,0,.84.51.51,0,0,1-.55.51c-.93,0-1.87,0-2.78,0-.18-.31,0-.45.18-.62a31.25,31.25,0,0,1,2.93-2.58C606.45,215.11,606.68,215.11,606.85,215.06Z"/><path class="cls-64" d="M577.48,174.77l-3.35-.05s-.06-.06-.15-.17a14.55,14.55,0,0,1,3.41-3,8,8,0,0,1,.08,1.73c0,.51,0,1,0,1.53Z"/><path class="cls-71" d="M638,226.33c0,.84,0,1.67,0,2.5,0,.54-.25.82-.74.84-.74,0-1.48,0-2.23,0-.26,0-.35-.25-.39-.49A43.76,43.76,0,0,1,638,226.33Z"/><path class="cls-72" d="M658.86,168.29a.81.81,0,0,1,.28.74c0,.6,0,1.2,0,1.8a.52.52,0,0,1-.53.53c-.83,0-1.67,0-2.5,0-.11,0-.22-.14-.33-.22.65-.61,1.29-1.21,2-1.81A5.52,5.52,0,0,1,658.86,168.29Z"/><path class="cls-73" d="M610.55,173.08c0,1.46,0,1.4-1.48,1.4h-1.92a19.38,19.38,0,0,1,2.6-2.68.74.74,0,0,1,.7-.18A6.41,6.41,0,0,1,610.55,173.08Z"/><path class="cls-74" d="M655.46,226.33c0,1,0,2,0,3.08h-3.08c-.15-.32.06-.46.21-.63A26.82,26.82,0,0,1,655.46,226.33Z"/><path class="cls-48" d="M649.24,247.17H646a3.33,3.33,0,0,1,1.43-1.53c.55-.42,1-.92,1.52-1.36.13.05.18.05.21.08a.2.2,0,0,1,0,.13c0,.89,0,1.79,0,2.68Z"/><path class="cls-75" d="M525.24,137c.34.28.23.57.23.82,0,1.46,0,2.91,0,4.36,0,.33,0,.66,0,1a.31.31,0,0,0,.44.2,15.23,15.23,0,0,0,1.55-1.2c.42-.39.92-.65,1.36-1a.27.27,0,0,1,.37,0c.18.17.08.36-.07.48a16.39,16.39,0,0,1-1.54,1.21,5.22,5.22,0,0,0-1.68,1.66.64.64,0,0,1-.82.34.65.65,0,0,1-.16-1,2.2,2.2,0,0,0,.22-1.22c0-1.55,0-3.1,0-4.64C525.2,137.67,525.22,137.35,525.24,137Z"/><path class="cls-76" d="M534.71,149.91a.84.84,0,0,1-.55.73c-.23.05-.62-.3-.69-.59a.59.59,0,0,1,.48-.6A.66.66,0,0,1,534.71,149.91Z"/><path class="cls-77" d="M514.94,144.32a.64.64,0,0,1-.56.54c-.34,0-.71-.25-.69-.54s.4-.68.62-.68S514.91,144.06,514.94,144.32Z"/><path class="cls-78" d="M529.85,136a.69.69,0,0,1-.67-.59.7.7,0,0,1,.63-.63.69.69,0,0,1,.59.66A.76.76,0,0,1,529.85,136Z"/><path class="cls-79" d="M534.42,139a.58.58,0,0,1-.52.54.6.6,0,0,1-.7-.5.58.58,0,0,1,.52-.54A.6.6,0,0,1,534.42,139Z"/><path class="cls-80" d="M524.93,156.07a.57.57,0,0,1-.54-.52.6.6,0,0,1,.5-.7.58.58,0,0,1,.54.52A.6.6,0,0,1,524.93,156.07Z"/><path class="cls-81" d="M530.81,153.87a.49.49,0,0,1-.45.58.52.52,0,0,1-.62-.56.49.49,0,0,1,.53-.51A.47.47,0,0,1,530.81,153.87Z"/><path class="cls-82" d="M520.29,153.94a.62.62,0,0,1-.7.5.58.58,0,0,1-.52-.55.6.6,0,0,1,.7-.5A.58.58,0,0,1,520.29,153.94Z"/><path class="cls-82" d="M515.89,149.5a.61.61,0,0,1,.5.7.59.59,0,0,1-.55.52.6.6,0,0,1-.5-.7A.58.58,0,0,1,515.89,149.5Z"/><path class="cls-79" d="M535.48,144.85c-.25,0-.41-.29-.38-.63s.22-.57.48-.55a.6.6,0,0,1,.58.63A.67.67,0,0,1,535.48,144.85Z"/><path class="cls-79" d="M520.63,135.4a.58.58,0,0,1-.54.66.61.61,0,0,1,0-1.21A.59.59,0,0,1,520.63,135.4Z"/><path class="cls-83" d="M525.45,134c0,.51-.17.69-.49.72s-.59-.18-.56-.46a.63.63,0,0,1,.66-.59A.4.4,0,0,1,525.45,134Z"/><path class="cls-84" d="M516.61,139a.55.55,0,0,1-.5.54c-.29,0-.5-.15-.51-.48s0-.46.32-.53A.56.56,0,0,1,516.61,139Z"/><path class="cls-85" d="M586.33,203.22h8.45l.84,0c.15,0,.29.07.31.22s-.19.29-.37.3-.65,0-1,0H577.82c-.28,0-.56,0-.84,0s-.42,0-.44-.23.29-.3.5-.31c.38,0,.75,0,1.13,0Z"/><path class="cls-85" d="M586.24,187.73h-8.72c-.32,0-.67.09-.95-.15a.26.26,0,0,1,0-.24.31.31,0,0,1,.24-.13c.33,0,.65,0,1,0h16.9c.37,0,.74,0,1.11.07.06,0,.12.13.15.2a.15.15,0,0,1-.13.21,2.52,2.52,0,0,1-.54.08h-9Z"/><path class="cls-86" d="M586.13,186.3h-8.61c-.32,0-.67.08-.95-.15,0,0,0-.08,0-.12s0-.11,0-.13a.49.49,0,0,1,.25-.12c.37,0,.75,0,1.12,0q8.34,0,16.66,0c.45,0,1-.29,1.33.33-.39.38-.88.2-1.32.2C591.78,186.31,589,186.3,586.13,186.3Z"/><path class="cls-85" d="M586.09,183.22h-8.45c-.33,0-.65,0-1-.07a.15.15,0,0,1-.13-.21.37.37,0,0,1,.14-.2.57.57,0,0,1,.27-.07h17.74c.37,0,.74,0,1.11.08a.15.15,0,0,1,.13.21c0,.07-.08.19-.14.2a4,4,0,0,1-.69.07h-9Z"/><path class="cls-87" d="M586.09,184.63h-8.76a3.44,3.44,0,0,1-.56,0,.25.25,0,0,1-.17-.16.29.29,0,0,1,.13-.22,1.51,1.51,0,0,1,1-.14c1.31,0,2.63,0,3.95,0,4.29,0,8.57,0,12.86,0a2.2,2.2,0,0,1,1.24.14.29.29,0,0,1,.12.22.22.22,0,0,1-.16.16c-.38,0-.76,0-1.13,0Z"/><path class="cls-88" d="M580.31,175.46c1.08-.19,7.11-.26,10.8-.14.18,0,.37,0,.48.17-1.08.17-7.11.25-10.8.13C580.61,175.61,580.43,175.63,580.31,175.46Z"/><path class="cls-89" d="M589.84,174.35a55.58,55.58,0,0,1-7.52,0A38.91,38.91,0,0,1,589.84,174.35Z"/><path class="cls-74" d="M615.48,226.88h-8.33c-.38,0-.75,0-1.13,0-.17,0-.4,0-.37-.3a.3.3,0,0,1,.31-.22l.7,0h16.81c.42,0,.85,0,1.27,0a.28.28,0,0,1,.3.22c0,.19-.12.26-.24.27-.38,0-.75,0-1.13,0Z"/><path class="cls-74" d="M615.34,231.39h-8.62a5.92,5.92,0,0,1-.84,0c-.13,0-.28-.09-.22-.27a.28.28,0,0,1,.16-.19,5.65,5.65,0,0,1,.71,0c.89,0,1.78,0,2.68,0h14.4c.42,0,.85,0,1.27.06.06,0,.12.12.16.19a.14.14,0,0,1-.12.22c-.37,0-.74.08-1.11.08Z"/><path class="cls-90" d="M615.28,228.3h-8.06c-.37,0-.75,0-1.13,0-.17,0-.42,0-.43-.23s.29-.29.5-.32.47,0,.7,0h17a8,8,0,0,1,1,0c.12,0,.28.07.24.27a.27.27,0,0,1-.3.22c-.37,0-.75,0-1.13,0Z"/><path class="cls-91" d="M615.2,235.91h-8.05c-.38,0-.76,0-1.13,0-.17,0-.41,0-.37-.3s.26-.22.44-.24h17.38c.42,0,.85,0,1.27,0a.29.29,0,0,1,.3.22c.05.2-.11.26-.23.28-.38,0-.76,0-1.13,0Z"/><path class="cls-73" d="M615.48,238.71h8.19c.38,0,.76,0,1.13,0,.12,0,.28.07.23.27a.29.29,0,0,1-.3.22l-.56,0H607.22a2.7,2.7,0,0,1-1.38-.14.26.26,0,0,1-.12-.22.25.25,0,0,1,.16-.17c.37,0,.75,0,1.13,0Z"/><path class="cls-92" d="M624.91,229.42c-1.23.33-17.78.34-19.12.19.17-.06-.14,0,0-.09s.07-.08.11-.08c5.92,0,11.85,0,17.77,0Z"/><path class="cls-93" d="M605.7,237.13c1.48-.16,18-.15,19.22,0,0,0,0,.07,0,.09s-.08.08-.11.08l-18.49,0A.64.64,0,0,1,605.7,237.13Z"/><path class="cls-94" d="M609.49,219.25a88.21,88.21,0,0,1,11.15-.17c-.18.06.13-.09.05.08a.15.15,0,0,1-.11.08Z"/><path class="cls-95" d="M619,218a56.83,56.83,0,0,1-7.51.06A34.8,34.8,0,0,1,619,218Z"/><path class="cls-96" d="M613.62,189.29a.59.59,0,0,1-.48.59.53.53,0,0,1-.54-.51.57.57,0,0,1,.57-.5A.44.44,0,0,1,613.62,189.29Z"/><path class="cls-97" d="M634.87,190.45a.58.58,0,0,1-.56-.5c0-.29.16-.51.49-.53s.57.18.56.46A.59.59,0,0,1,634.87,190.45Z"/><path class="cls-98" d="M656,197.34a.43.43,0,0,1-.38.52c-.26,0-.48-.1-.52-.36a.46.46,0,0,1,.9-.16Z"/><path class="cls-99" d="M588.36,235.58a.54.54,0,0,1,.14-1.06.45.45,0,0,1,.51.49A.65.65,0,0,1,588.36,235.58Z"/><path class="cls-100" d="M577.74,218.94a.56.56,0,0,1-.57.49.55.55,0,0,1-.5-.56.52.52,0,0,1,.57-.47A.49.49,0,0,1,577.74,218.94Z"/><path class="cls-101" d="M635,171.9a.55.55,0,0,1,.62.56.61.61,0,0,1-.61.59.58.58,0,0,1-.55-.65A.54.54,0,0,1,635,171.9Z"/><path class="cls-102" d="M570.86,242.83a.86.86,0,0,1,.59.7.63.63,0,0,1-.73.5c-.28,0-.55-.33-.52-.56S570.63,242.81,570.86,242.83Z"/><path class="cls-103" d="M614.1,172.63a.41.41,0,0,1-.38-.34c-.05-.23.18-.5.39-.46a.37.37,0,0,1,.31.4A.39.39,0,0,1,614.1,172.63Z"/><path class="cls-104" d="M641.8,227.2a.41.41,0,0,1-.39.45.33.33,0,0,1-.35-.32.38.38,0,0,1,.74-.13Z"/><path class="cls-105" d="M652.76,244.66c.31,0,.47.27.39.51a.29.29,0,0,1-.32.21c-.22,0-.44-.34-.34-.51S652.69,244.72,652.76,244.66Z"/><path class="cls-106" d="M662.66,168.64a.49.49,0,0,1,.39.49c0,.24-.22.29-.4.3a.38.38,0,0,1-.38-.45C662.31,168.76,662.47,168.69,662.66,168.64Z"/><path class="cls-107" d="M659,227.69a.36.36,0,0,1-.39-.45c0-.14.11-.26.28-.25a.41.41,0,0,1,.4.46A.26.26,0,0,1,659,227.69Z"/><ellipse class="cls-108" cx="0.68" cy="227.79" rx="80.06" ry="79.84"/></g></g></svg>